<svg width="98rem" height="89rem" viewBox="0 0 98 89" fill="none" xmlns="http://www.w3.org/2000/svg">
  <path d="M15.5 32.9339C15.3785 31.962 14.2485 32.0002 13.5733 31.3925C8.0734 26.4426 8.81611 36.1543 6 42.3497C-2.30407 60.6187 23.0435 81.3627 39.5 85.6292C66.0138 92.5031 92.8674 74.3241 91.8099 45.8428C90.7948 18.5017 63.5591 -0.429724 37.235 2.68468C25.2722 4.09999 15.8878 8.40545 8.62345 18.291C5.46097 22.5945 3.07688 27.6795 2.12084 32.9339C-2.06384 55.9326 6.76196 46.7565 7.5156 70.1192" stroke="#FB471F" stroke-width="2" stroke-linecap="round" />
  <path d="M66 23.6133C69 21.5 62.8786 16.9166 62.5 17.0002C60.9159 17.3499 57.5997 24.9696 57.3908 25.1606C49.1548 32.6907 41.5527 41.1434 34.8621 50.6419C30.9648 56.1748 31.4216 60.1135 27.5 65.5002" stroke="#FB471F" stroke-width="2" stroke-linecap="round" />
  <path d="M27.457 23.3004C26.4451 24.4388 26.786 26.4617 27.8424 27.6355C39.3028 40.3694 54.452 51.0125 67.6287 61.8344C70.9378 64.5521 70.1207 66.606 75 68" stroke="#FB471F" stroke-width="6" stroke-linecap="round" />
  <path d="M64.8007 23.1418C63.3609 22.9618 63.3722 22.6699 62.007 24.0088C50.4683 35.3257 42.6383 51.5542 30.1201 61.2905" stroke="#FB471F" stroke-width="6" stroke-linecap="round" />
  <path d="M24.0514 23.1418C22.4252 22.9385 22.0828 21.9636 23.1844 24.4423C24.706 27.8658 30.5711 30.516 33.0106 32.101C50.7089 43.6002 59.9776 49.2948 74 65" stroke="#FB471F" stroke-width="6" stroke-linecap="round" />
  <path d="M67.8858 7.95076C66.1243 7.73057 67.5005 6.04443 67.5005 5.34972C67.5005 5.04127 65.8748 3.7674 65.8628 3.76019C57.1606 -1.46112 19.7549 5.99007 11.0004 12.3497C-7.06583 25.4738 7.33259 54.4642 22.111 69.493C35.5231 83.1325 61.6943 86.9703 79.1895 79.9454C94.2819 73.8852 101.482 37.6421 92.0471 24.9214C87.9706 19.4254 83.3206 15.8487 77.5005 12.3497C69.7902 7.71433 63.2289 7.44834 55.0063 5.07642" stroke="#FB471F" stroke-width="3" stroke-linecap="round" />
</svg>