<svg width="589" height="415" viewBox="0 0 589 415" fill="none" xmlns="http://www.w3.org/2000/svg">
<path d="M2 315.601C9.57524 313.571 19.9268 322.571 25.804 325.964C45.6162 337.403 65.1765 349.11 85.8267 359.034C108.864 370.105 38.9119 333.628 13.3553 333.987C10.9324 334.021 8.84824 334.831 11.4588 336.906C13.3111 338.379 23.6169 343.758 24.701 344.34C36.0476 350.439 47.5324 356.416 58.6232 362.975C62.5681 365.307 57.4669 362.978 56.9563 362.752C52.1952 360.644 47.5116 358.365 42.7569 356.244C38.6392 354.406 27.6114 348.05 29.9434 351.909C33.0655 357.076 42.2289 361.227 47.216 363.888C57.1698 369.2 67.9803 372.678 78.6473 376.226C90.2511 380.085 104.446 382.472 112.866 391.968" stroke="white" stroke-width="3" stroke-linecap="round"/>
<path d="M409 32.9238C442.905 31.4857 476.981 28.0126 510.937 30.1188C531.96 31.4228 546.511 37.057 560.667 52.8637C564.219 56.8297 579.652 70.8587 578.826 77.0853C578.422 80.1324 557.463 67.5071 555.956 66.3767C549.75 61.719 543.872 49.724 556.623 49.4307C564.634 49.2464 567.666 61.2336 569.144 66.7907C574.139 85.5724 574.33 104.19 574.595 123.374" stroke="white" stroke-width="3" stroke-linecap="round"/>
<path d="M556 275C551.104 275.369 547.298 279.855 545.026 282.098C534.899 292.092 527.444 303.287 520.318 314.363C510.021 330.368 500.073 346.247 489 362" stroke="white" stroke-width="3" stroke-linecap="round"/>
<path d="M539.456 306.725C539.553 306.132 541.921 302.364 540.601 304.827C533.56 317.964 525.041 330.317 520 344" stroke="white" stroke-width="3" stroke-linecap="round"/>
<path d="M556 316C555.815 317.037 554.52 318.665 553.985 319.665C549.095 328.811 544.171 337.934 539 347" stroke="white" stroke-width="3" stroke-linecap="round"/>
<path d="M423.147 150.867C421.53 150.687 418.299 146.69 419.136 148.085C420.674 150.648 421.345 152.939 423.793 154.942C430.799 160.674 443.808 158 448.632 150.608C458.868 134.923 427.397 133.905 429.874 147.374C432.502 161.663 461.396 151.144 456.006 145.369C451.38 140.413 439.409 143.639 434.531 146.468C426.075 151.373 439.931 152.969 442.875 152.743C443.605 152.686 457.14 149.242 450.314 146.727C446.666 145.383 435.359 150.89 439.188 150.22C445.271 149.155 446.839 142.624 439.447 148.538" stroke="white" stroke-width="3" stroke-linecap="round"/>
<path d="M294.224 300.034C285.147 298.901 290.544 326.6 291.069 330.258C291.472 333.061 293.203 341.363 292.938 338.544C292.489 333.751 292.121 329.012 292.121 324.19C292.121 316.227 292.445 307.222 298.196 300.967C303.246 295.474 314.684 324.677 316.07 327.458C318.209 331.75 329.491 359.969 330.789 342.161C331.222 336.228 330.962 330.25 331.023 324.307C331.053 321.395 331.321 320.006 332.074 323.957C333.484 331.351 334.935 338.493 338.033 345.429C341.413 353 345.497 356.504 351 362" stroke="white" stroke-width="3" stroke-linecap="round"/>
</svg>
