<svg width="1918" height="617" viewBox="0 0 1918 617" fill="none" xmlns="http://www.w3.org/2000/svg">
  <path d="M125.5 42L0.5 121V540L42 616.5L169.5 469L230 540L304 506.5L415.5 569.5L549.5 616.5L719 522.5L810.5 616.5L940.5 569.5L1058.5 616.5L1214.5 569.5L1335.5 616.5L1413.5 580.5L1574.5 616.5L1633.5 540L1747.5 616.5L1817.5 569.5L1919.5 616.5V0.5L1801.5 26L1586.5 0.5L1483 34L1398.5 42L1288.5 9.5L1024 75.5L888 26L810.5 42L709.5 9.5L601 91.5L535 42L469 65L383 9.5L206 91.5L125.5 42Z" fill="#264F36" />
</svg>