<svg width="1920" height="294" viewBox="0 0 1920 294" fill="none" xmlns="http://www.w3.org/2000/svg">
<path d="M137.5 34.5C92 106.5 -13.8008 274.819 -27 294L1930 273L1855 148H1754C1738.67 98.9063 1696.01 0 1693.5 0C1690.99 0 1628.5 65.5 1588.5 116.5L1440.53 88.0417L1269.5 160.5L1143.5 116.5L961.5 150L883 214L650.5 216.5L614.5 148.5L491.5 187L411 86L362 187H170.5L137.5 34.5Z" fill="#FB471F"/>
<path d="M135.107 47.152C95.6092 114.997 13.1992 247.19 0 265H1920L1851 153.691H1749.51C1734.18 108.107 1695.51 5 1693 5C1690.49 5 1622.18 76.3044 1590.02 123.478L1446.53 93.2657L1269.04 169.592L1149.55 123.478L966.557 153.691L884.562 220.476H644.576L613.078 153.691L489.586 193.444L412.09 93.2657L369.093 193.444H162.105L135.107 47.152Z" fill="#264F36"/>
</svg>
