<svg width="97" height="21" viewBox="0 0 97 21" fill="none" xmlns="http://www.w3.org/2000/svg">
  <g clip-path="url(#clip0_416_689)">
    <path d="M91.799 5.3748C90.364 5.3748 88.519 5.6078 88.288 5.6078V20.1678H91.132V15.1988C91.547 15.2768 91.967 15.3158 92.388 15.3158C95 15.3158 97 13.3558 97 10.3748C97 6.9838 94.797 5.3748 91.799 5.3748ZM92.055 12.5968C91.739 12.6048 91.4247 12.5472 91.132 12.4278V8.2998C91.28 8.2708 91.773 8.2708 92.055 8.2708C93.31 8.2708 94.155 8.9718 94.155 10.4338C94.155 11.8378 93.285 12.5968 92.055 12.5968ZM82.371 15.0588H85.114V12.2458H82.37V8.4678H85.702V5.5478H79.576V20.1678H85.905V17.2438H82.37V15.0578L82.371 15.0588ZM72.021 12.7138V5.5488H69.228V20.1688H72.02V15.4378H72.533L75.813 20.1678H76.997V16.7778C76.433 15.8998 75.689 14.7878 75.177 13.9708C75.512 12.8618 75.967 11.2508 76.252 10.1408L77.456 5.5488H74.53L72.635 12.7118L72.02 12.7138H72.021ZM38.792 16.2808C37.768 16.2808 36.102 15.1988 36.102 12.8588C36.102 10.5188 37.765 9.4388 38.792 9.4388V16.2808ZM28.848 0.695801L25.416 2.9458V4.1758H29.875V0.695801H28.848ZM28.515 16.0468V20.1698H31.328V5.5488H28.515V11.4628L26.651 14.2338H26.191C26.243 12.4798 26.339 9.4678 26.339 7.7728V5.5488H23.526V20.1688H25.037L28.061 16.0458L28.515 16.0478V16.0468ZM1.82 11.1358C1.82 14.0598 1.48 16.9538 0 17.5678V20.6958C3.459 20.2868 4.535 16.8358 4.535 11.6898V8.1298H6.38V20.1768H9.193V5.5488H1.82V11.1358ZM41.532 9.4458C42.556 9.4458 44.222 10.5278 44.222 12.8678C44.222 15.2078 42.556 16.2818 41.532 16.2818V9.4458ZM41.532 18.8328C44.605 18.8328 47.066 16.3758 47.066 12.8678C47.066 9.3598 44.606 6.9028 41.531 6.9028V4.9068H38.792V6.8938C35.718 6.8938 33.258 9.3508 33.258 12.8588C33.258 16.3668 35.717 18.8238 38.792 18.8238V20.5778H41.532V18.8328ZM51.6 9.4758C51.081 8.2998 50.319 6.7198 49.749 5.5488H48.519V9.5548L50.132 12.5968L48.295 16.1348V20.1698H49.525L51.598 15.7258H52.136L54.208 20.1698H55.438V16.1358L53.598 12.5978L55.212 9.5558V5.5488H53.983C53.419 6.7188 52.651 8.2988 52.139 9.4678L51.6 9.4758ZM64.259 5.5488H59.876L56.443 20.1688H59.313L59.876 17.5938H64.259L64.823 20.1668H67.693L64.259 5.5488ZM63.642 14.9068H60.49L61.797 8.7368H62.309L63.642 14.9068ZM18.549 5.5488H14.169L10.735 20.1688H13.604L14.168 17.5938H18.549L19.113 20.1668H21.983L18.549 5.5488ZM17.935 14.9068H14.783L16.09 8.7368H16.602L17.935 14.9068Z" fill="white" />
  </g>
  <defs>
    <clipPath id="clip0_416_689">
      <rect width="97" height="20" fill="white" transform="translate(0 0.695801)" />
    </clipPath>
  </defs>
</svg>