<svg width="188" height="23" viewBox="0 0 188 23" fill="none" xmlns="http://www.w3.org/2000/svg">
  <g clip-path="url(#clip0_416_692)">
    <mask id="mask0_416_692" style="mask-type:luminance" maskUnits="userSpaceOnUse" x="0" y="0" width="188" height="23">
      <path d="M0 0.942871H188V22.0639H0V0.942871Z" fill="white" />
    </mask>
    <g mask="url(#mask0_416_692)">
      <path d="M17.346 1.01176C16.325 1.72177 15.6082 2.78962 15.3377 4.00346C15.0673 5.21731 15.263 6.48846 15.886 7.56476L24.14 21.8728C24.1672 21.9184 24.2034 21.9579 24.2465 21.9889C24.2896 22.0199 24.3386 22.0417 24.3904 22.0529C24.4423 22.0642 24.4959 22.0646 24.548 22.0543C24.6 22.0439 24.6494 22.023 24.693 21.9928C25.7129 21.2835 26.4291 20.217 26.6995 19.0045C26.97 17.792 26.7749 16.5222 26.153 15.4468L17.9 1.13276C17.8729 1.08705 17.8367 1.04742 17.7937 1.01634C17.7506 0.985258 17.7016 0.963402 17.6497 0.952139C17.5978 0.940875 17.5441 0.940445 17.492 0.950876C17.4399 0.961307 17.3906 0.982374 17.347 1.01276L17.346 1.01176ZM9.09 1.01176C8.06874 1.7218 7.35174 2.78983 7.08129 4.00391C6.81083 5.21799 7.00669 6.48937 7.63 7.56576L15.885 21.8738C15.9122 21.9194 15.9484 21.9589 15.9915 21.9899C16.0346 22.0209 16.0836 22.0427 16.1354 22.0539C16.1873 22.0652 16.2409 22.0656 16.293 22.0553C16.345 22.0449 16.3944 22.024 16.438 21.9938C17.4579 21.2845 18.1741 20.218 18.4445 19.0055C18.715 17.793 18.5199 16.5232 17.898 15.4478L9.644 1.13276C9.61694 1.08705 9.58075 1.04742 9.53768 1.01634C9.4946 0.985258 9.44558 0.963402 9.39367 0.952139C9.34176 0.940875 9.28809 0.940445 9.23601 0.950876C9.18393 0.961307 9.13456 0.982374 9.091 1.01276L9.09 1.01176Z" fill="#F47920" />
      <path d="M4.93799 12.1817C4.28354 12.1723 3.63377 12.2932 3.02644 12.5372C2.41911 12.7812 1.86634 13.1435 1.40025 13.603C0.934155 14.0625 0.564043 14.6101 0.311422 15.2139C0.0588018 15.8177 -0.0712891 16.4656 -0.0712891 17.1202C-0.0712891 17.7747 0.0588018 18.4226 0.311422 19.0264C0.564043 19.6302 0.934155 20.1778 1.40025 20.6373C1.86634 21.0968 2.41911 21.4591 3.02644 21.7031C3.63377 21.9471 4.28354 22.068 4.93799 22.0587C6.23559 22.0402 7.47379 21.5118 8.38487 20.5876C9.29595 19.6635 9.80671 18.4179 9.80671 17.1202C9.80671 15.8224 9.29595 14.5768 8.38487 13.6527C7.47379 12.7285 6.23559 12.2001 4.93799 12.1817Z" fill="#F04E23" />
      <path d="M46.989 7.09377H49.914L49.9 11.0798H50.425L53.625 7.09377H57.126L52.736 12.2098L57.34 17.6598H53.718L50.425 13.6138H49.9L49.914 17.6598H46.989V7.09377Z" fill="white" />
      <path d="M59.048 17.6588L61.071 14.0968L56.997 7.09382H60.331L62.684 11.3538L64.888 7.09382H68.162L62.322 17.6598H59.048V17.6588ZM78.182 7.09382H81.107V11.0518H85.148V7.09382H88.078V17.6598H85.148V13.6458H81.108V17.6578H78.182V7.09482V7.09382ZM115.063 11.1548H103.758V13.6008H115.063V11.1548ZM125.498 17.6588V11.6378L121.002 17.6588H118.453V7.09482H121.383V12.8948L125.726 7.09482H128.428V17.6608H125.498V17.6588ZM136.969 9.66082H133.817V7.09382H143.066V9.66082H139.899V17.6588H136.969V9.66082ZM161.983 14.4738C161.257 14.6088 160.518 14.7018 159.872 14.7018C157.109 14.7018 155.663 13.2838 155.663 10.7918V7.09282H158.588V10.3998C158.588 11.5618 159.132 12.0458 160.309 12.0458C160.899 12.0458 161.457 11.9858 161.983 11.8498V7.09982H164.908V17.6598H161.983V14.4748V14.4738ZM165.944 7.09382H168.874L168.86 11.0798H169.386L172.585 7.09382H176.086L171.697 12.2098L176.296 17.6598H172.678L169.386 13.6138H168.86L168.874 17.6598H165.944V7.09382ZM94.728 15.0888C94.009 15.0888 93.3195 14.8032 92.811 14.2948C92.3026 13.7864 92.017 13.0968 92.017 12.3778C92.017 11.6588 92.3026 10.9693 92.811 10.4609C93.3195 9.95244 94.009 9.66682 94.728 9.66682C95.447 9.66682 96.1366 9.95244 96.645 10.4609C97.1534 10.9693 97.439 11.6588 97.439 12.3778C97.439 13.0968 97.1534 13.7864 96.645 14.2948C96.1366 14.8032 95.447 15.0888 94.728 15.0888ZM94.728 6.73682C93.2329 6.73682 91.7989 7.33048 90.7413 8.38732C89.6838 9.44416 89.0891 10.8777 89.088 12.3728C89.0891 13.8679 89.6838 15.3015 90.7413 16.3583C91.7989 17.4152 93.2329 18.0088 94.728 18.0088C96.2232 18.0091 97.6573 17.4155 98.715 16.3586C99.7726 15.3017 100.367 13.868 100.368 12.3728C100.367 10.8776 99.7726 9.44392 98.715 8.38703C97.6573 7.33013 96.2232 6.73655 94.728 6.73682ZM149.18 15.0888C148.824 15.0888 148.471 15.0187 148.142 14.8824C147.813 14.7462 147.514 14.5464 147.263 14.2946C147.011 14.0429 146.811 13.7439 146.675 13.415C146.539 13.086 146.469 12.7334 146.469 12.3773C146.469 12.0212 146.539 11.6686 146.675 11.3397C146.811 11.0107 147.011 10.7118 147.263 10.46C147.514 10.2082 147.813 10.0085 148.142 9.87222C148.471 9.73595 148.824 9.66582 149.18 9.66582C149.899 9.66582 150.589 9.95149 151.097 10.46C151.606 10.9685 151.892 11.6582 151.892 12.3773C151.892 13.0965 151.606 13.7861 151.097 14.2946C150.589 14.8031 149.899 15.0888 149.18 15.0888ZM149.18 6.73682C147.685 6.73655 146.251 7.3301 145.193 8.38697C144.135 9.44384 143.54 10.8775 143.539 12.3728C143.54 13.8681 144.135 15.3018 145.193 16.3587C146.251 17.4155 147.685 18.0091 149.18 18.0088C150.675 18.0091 152.11 17.4155 153.167 16.3587C154.225 15.3018 154.82 13.8681 154.821 12.3728C154.82 10.8775 154.225 9.44384 153.167 8.38697C152.11 7.3301 150.675 6.73655 149.18 6.73682Z" fill="white" />
      <path d="M74.848 13.9437C74.5981 14.2974 74.267 14.586 73.8824 14.7851C73.4978 14.9841 73.071 15.0879 72.638 15.0877C71.919 15.0877 71.2294 14.8021 70.721 14.2937C70.2126 13.7853 69.927 13.0957 69.927 12.3767C69.927 11.6577 70.2126 10.9682 70.721 10.4598C71.2294 9.95135 71.919 9.66572 72.638 9.66572C73.55 9.66572 74.359 10.1167 74.848 10.8097L77.163 9.02472C76.6406 8.3162 75.959 7.74036 75.1732 7.34362C74.3873 6.94689 73.5193 6.74037 72.639 6.74072C71.8989 6.74072 71.166 6.8865 70.4822 7.16974C69.7984 7.45297 69.1771 7.86812 68.6537 8.39147C68.1304 8.91482 67.7152 9.53613 67.432 10.2199C67.1488 10.9037 67.003 11.6366 67.003 12.3767C67.003 13.1169 67.1488 13.8497 67.432 14.5335C67.7152 15.2173 68.1304 15.8386 68.6537 16.362C69.1771 16.8853 69.7984 17.3005 70.4822 17.5837C71.166 17.8669 71.8989 18.0127 72.639 18.0127C73.519 18.0122 74.3867 17.8053 75.1723 17.4089C75.958 17.0124 76.6398 16.4373 77.163 15.7297L74.848 13.9437ZM180.88 13.4787L182.071 10.4887L183.247 13.4787H180.88ZM183.54 7.09372H180.653L176.202 17.6597H179.267L180.02 15.7577H184.108L184.861 17.6597H188L183.536 7.09372H183.54ZM42.284 15.3057H39.59V13.3577H42.283C42.5408 13.3577 42.788 13.4601 42.9703 13.6424C43.1526 13.8247 43.255 14.0719 43.255 14.3297C43.255 14.5875 43.1526 14.8347 42.9703 15.017C42.788 15.1993 42.5408 15.3017 42.283 15.3017M39.59 9.44572H41.906C42.418 9.44572 42.832 9.85972 42.832 10.3757C42.832 10.8927 42.418 11.3057 41.906 11.3057H39.59V9.44772V9.44572ZM44.3 12.0827C44.7292 11.8599 45.089 11.5234 45.3401 11.1101C45.5912 10.6967 45.724 10.2224 45.724 9.73872C45.7237 9.03704 45.4449 8.36417 44.9487 7.86801C44.4525 7.37185 43.7797 7.09299 43.078 7.09272H36.74V17.6587H43.31C43.6881 17.6589 44.0625 17.5845 44.4119 17.4398C44.7612 17.2952 45.0787 17.0831 45.346 16.8158C45.6134 16.5484 45.8255 16.231 45.9701 15.8816C46.1147 15.5323 46.1891 15.1578 46.189 14.7797C46.1881 14.1917 46.0072 13.618 45.6706 13.1358C45.3339 12.6537 44.8577 12.2862 44.306 12.0827" fill="white" />
    </g>
  </g>
  <defs>
    <clipPath id="clip0_416_692">
      <rect width="188" height="22" fill="white" transform="translate(0 0.695801)" />
    </clipPath>
  </defs>
</svg>