<svg width="251" height="101" viewBox="0 0 251 101" fill="none" xmlns="http://www.w3.org/2000/svg">
<path d="M58.747 93.6056C58.0149 94.1473 56.5977 93.8114 58.2678 93.549C59.9367 93.2868 63.6007 93.105 64.8174 93.0226C78.221 92.1149 91.5896 91.0594 104.946 89.652C122.007 87.8542 134.224 86.3396 151.234 83.9169C157.662 83.0013 164.083 82.0346 170.483 80.9776C174.158 80.3707 177.822 79.7053 181.454 78.9261C182.817 78.6335 184.317 78.4753 185.447 77.7663C186.959 76.8189 181.71 77.3143 179.843 77.4781C169.742 78.3644 159.728 80.6602 149.927 82.839C145.048 83.9235 136.157 85.9624 130.839 87.4815C129.982 87.7264 127.466 88.2174 128.342 88.3838C129.915 88.6829 131.573 88.1269 133.179 87.9263C137.321 87.409 141.451 86.819 145.58 86.2306C154.902 84.9023 172.276 82.3264 181.689 80.8379C184.363 80.415 187.069 80.0966 189.691 79.4726C196.114 77.9437 176.53 81.2793 169.996 82.4068C145.597 86.6176 121.711 92.1679 97.845 98.1758" stroke="#FB471F" stroke-width="2" stroke-linecap="round"/>
<path d="M44.8927 62.9538C46.2618 66.1051 43.4286 69.3661 43.4286 69.3661C43.4146 69.9498 43.2446 70.4586 42.9659 70.8859C42.5983 72.3922 44.894 80.6965 42.2104 83.6455C42.0405 83.8149 41.271 87.2688 38.562 87.652C36.1856 87.9881 35.0329 86.0181 34.62 84.1374C33.8552 80.8037 33.064 76.2617 32.5301 72.8469C31.9597 72.9275 31.4369 73.0015 30.8734 73.1297C31.2114 75.1664 32.144 81.3851 30.7781 83.372C30.5742 83.6432 30.3636 83.8669 30.1055 84.0973C30.0032 84.742 29.8058 85.4001 29.4457 85.9359C26.0887 90.6283 21.8833 85.2604 21.7344 84.5543C21.0914 81.7366 20.4894 78.5252 19.9958 75.7349C17.1039 75.5137 15.2724 73.2035 17.5831 69.6771L18.5826 67.4996C18.5826 67.4996 16.9054 58.0898 16.757 56.7049C16.6762 55.7953 17.2945 55.0291 18.2042 54.9489C18.0218 53.6658 18.2266 52.0371 20.0254 52.4128C20.5487 51.6601 21.3976 51.1522 22.3482 51.0178C23.6789 50.8295 25.2263 51.4832 25.9383 52.7399C27.8652 54.358 27.5598 54.2557 28.2636 57.5012C28.5749 59.0084 28.8996 60.6107 29.2514 62.4031C29.8558 62.2207 30.4669 62.0858 31.0779 61.9508L30.6654 59.7307C30.1235 57.9652 29.3241 55.412 31.4232 53.4669C31.5393 52.5778 31.9404 51.6485 32.8439 50.842C34.7799 49.1138 37.7672 48.9821 39.4765 51.1157C41.0027 52.9844 41.583 58.0894 41.9003 60.6624C43.2376 60.861 44.3165 61.6295 44.8927 62.9538ZM43.2474 66.3861C44.2531 64.9349 43.7117 62.4907 41.7703 62.1351C41.3291 62.1005 40.9286 62.0118 40.5416 62.018C40.4943 61.6854 40.447 61.3527 40.393 60.9725C40.2784 59.8253 40.1162 58.6847 39.9133 57.5985C39.893 57.4559 39.9203 57.3066 39.8525 57.1708C39.521 55.5209 39.4138 53.4031 38.3014 52.0576C37.1211 50.5763 35.1182 50.8112 33.8275 51.9633C32.367 53.2849 32.9224 55.1454 33.4441 56.7684C33.8161 58.7033 34.2424 60.6791 34.6145 62.614C34.0985 62.7355 33.6367 62.8978 33.1207 63.0193C31.4775 63.3971 29.8343 63.775 28.2047 64.2479C28.1571 64.2546 28.1096 64.2614 28.1096 64.2614C27.663 62.143 27.2096 59.9772 26.7563 57.8113C26.6007 57.0577 26.445 56.3041 26.2894 55.5504C26.1811 55.1295 25.8626 54.2534 25.3603 54.1306C25.1567 54.0624 25.0073 54.0351 24.8172 54.062C24.8172 54.062 24.8105 54.0144 24.8037 53.9669C24.6008 52.8806 23.3045 52.2883 22.3267 52.5721C21.3014 52.8626 20.6353 53.9748 20.9333 55.0476C21.922 58.5921 22.5441 62.2854 23.1118 65.9379C23.0643 65.9446 23.0168 65.9513 23.0168 65.9513C22.9693 65.958 22.9352 66.0598 22.8945 66.114C22.5019 64.3759 22.0483 62.5494 21.6082 60.818C21.0395 58.523 20.5592 56.1671 19.7596 53.9533C19.7461 53.8582 19.6035 53.8784 19.617 53.9734C19.8395 56.2204 20.3539 58.4746 20.719 60.7014C21.091 62.6364 21.4155 64.578 21.7333 66.4722C21.0542 66.8107 20.4904 67.2782 20.198 67.9498C19.9466 68.2278 19.702 68.5532 19.5524 68.8652C18.6347 70.5948 20.5752 72.3079 22.0965 71.414C22.2323 71.3464 22.4089 71.2244 22.5448 71.1567C23.1873 74.6532 23.7415 78.2106 24.5266 81.6869C24.5739 82.0196 24.9337 82.1626 25.2188 82.1223C25.3476 82.3465 25.4765 82.5706 25.6528 82.7881C26.7923 84.3236 28.5238 83.8848 29.5363 82.4811C30.0188 81.7827 30.006 80.6695 29.9862 79.8482C29.9797 79.4613 29.9189 79.0336 29.9123 78.6467C29.9056 78.5991 29.8988 78.5516 29.8921 78.5041C29.961 76.943 29.6838 75.334 29.4608 73.7658C29.2649 72.3876 29.0215 71.0162 28.778 69.6448C30.5705 69.2943 32.4173 68.9846 34.2233 68.7291C34.556 68.682 34.8412 68.6417 35.1739 68.5947C35.2549 69.1649 35.3428 69.7827 35.4238 70.353C35.6806 72.1588 35.9916 74.0055 36.3434 75.7978C36.6544 77.6445 37.0062 79.4369 37.4123 81.2701C37.5476 81.8811 37.7575 82.6756 38.2528 83.0903C38.8702 83.6817 39.7662 83.8458 40.5474 83.202C40.7648 83.0258 40.9754 82.8021 41.0909 82.5919C41.1384 82.5852 41.1384 82.5852 41.1317 82.5376C42.0487 81.8262 42.0091 80.1835 42.003 79.1179C41.9835 77.9572 41.9164 76.8032 41.8425 75.6017C41.654 73.253 41.4588 70.8567 41.2228 68.5146C42.2887 68.5093 43.2872 67.6894 43.2676 66.5287C43.2609 66.4812 43.2541 66.4336 43.2474 66.3861ZM30.2863 67.9771C31.8412 67.6602 33.4163 67.4859 34.9914 67.3116C35.005 67.4066 35.0117 67.4541 35.0252 67.5492C34.7401 67.5895 34.4074 67.6366 34.0679 67.6361C32.2619 67.8916 30.4219 68.2488 28.5954 68.7011C28.5886 68.6536 28.5751 68.5585 28.5683 68.511C28.6566 68.45 28.6906 68.3483 28.7247 68.2465C29.2474 68.1725 29.7635 68.0511 30.2863 67.9771ZM69.7558 74.7074C70.1486 76.1061 70.371 78.3531 68.7001 79.559C68.4199 82.3619 65.9072 83.4445 63.885 82.1793C63.3422 81.7713 61.8565 80.1878 61.5513 79.7462C60.2695 77.8914 58.799 74.0273 57.7552 71.4602C57.5966 75.1184 58.4844 77.2713 56.6034 78.0222C56.2008 80.9878 55.5769 80.0095 55.2778 80.6336C55.2302 80.6403 54.467 84.8204 50.4687 84.3195C48.1946 84.0109 46.7159 82.1355 46.7041 79.6649C46.6852 77.486 46.7749 75.3888 46.9189 73.3323C45.2701 71.9658 43.5939 71.0879 43.4869 68.6307C43.4138 66.411 44.8063 65.293 44.8743 65.0895C45.1802 64.5129 45.0251 63.0805 47.6875 61.3466C47.9405 58.693 48.2471 57.0983 48.9619 54.2824C49.309 52.9729 49.7379 51.2155 50.7775 50.002C51.1989 49.2152 51.7576 46.3244 54.7993 45.8942C55.8924 45.7395 57.0666 46.1552 57.8944 46.8622C59.4693 47.0273 60.7856 48.1015 61.3005 49.6769C61.9453 49.7796 62.4542 50.2894 62.5963 50.9479C63.0019 53.4599 63.482 56.1552 64.159 58.8712C67.1866 59.364 69.3697 63.4666 67.0458 66.5586C67.8386 68.7249 69.1328 72.3716 69.7558 74.7074ZM64.5406 76.5601C66.0524 79.6912 69.42 79.1663 68.3095 75.1059C67.5849 72.3966 66.2567 68.8517 65.3013 66.2236C67.5905 64.2516 66.4867 60.2386 62.9564 60.3017C62.2319 57.5925 61.0146 50.7354 61.0346 51.2173C61.0607 52.7649 61.1886 54.3466 61.3641 55.9215C61.3165 55.9283 61.3165 55.9283 61.2622 55.8875C60.8154 54.1085 60.3618 52.282 59.9625 50.4964C59.658 49.0366 58.5316 48.2749 57.1873 48.3681C56.7465 47.6548 55.7692 47.2598 54.968 47.4216C52.6459 47.7985 52.1415 50.7301 51.5903 52.6502C50.8007 55.6221 50.466 58.7235 50.2737 61.8048C44.9298 63.4334 45.6324 68.3757 48.6872 68.7192C48.755 68.8551 48.7277 69.0043 48.6937 69.1061C49.0739 69.0523 49.4949 68.9443 49.9159 68.8363C49.6288 71.5916 49.5319 74.3201 49.5368 77.0826C49.5745 81.4403 55.3181 81.2581 55.1105 77.0699L55.0576 74.9928C55.0576 74.9928 55.2035 70.2213 55.4563 67.9071C55.5988 67.887 55.7414 67.8668 55.884 67.8466C55.4069 70.6289 55.3777 73.4932 55.5319 76.2831C55.5587 76.8126 56.3667 76.6983 56.2924 76.1755C56.0839 73.3448 56.2216 70.5621 56.5018 67.7592L60.0596 67.2075C60.6695 68.7695 63.5971 76.4027 64.5406 76.5601ZM56.3227 61.7248C56.5273 60.4355 56.8201 59.0852 57.1265 57.8299C57.438 58.9978 57.797 60.1589 58.1492 61.2726C57.5381 61.4075 56.927 61.5424 56.3227 61.7248ZM93.4144 50.7577C96.0554 50.578 98.2945 52.3458 98.6661 54.9596C98.8823 56.4803 98.3246 58.0135 97.2715 59.132C96.9989 60.6249 96.0204 61.9268 94.7165 62.6445C95.007 64.6879 95.3993 66.7655 95.8392 68.8363C95.961 69.3523 95.8385 69.8544 95.5598 70.2816C95.8103 71.3612 96.0335 72.5901 95.6523 74.0014C95.455 74.6595 95.054 75.2495 94.4767 75.622C94.4697 75.9138 94.4152 76.2124 94.3199 76.5652C93.9933 77.678 93.1306 78.4302 92.0375 78.5848C91.7998 78.6184 91.6097 78.6453 91.3653 78.6314L89.4717 77.9297C88.3115 76.9304 87.8304 75.5926 87.4239 74.4381C87.3968 74.248 87.3223 74.0647 87.2545 73.9288C87.18 73.7455 87.1054 73.5621 87.0784 73.372C86.8675 73.9351 86.392 74.3417 85.842 74.5649C85.8555 74.66 85.869 74.755 85.8825 74.8501C86.0447 75.9906 85.2292 77.0755 84.0886 77.2369C83.946 77.257 83.7967 77.2297 83.7016 77.2431C83.2534 77.5004 82.7441 77.6694 82.2213 77.7434C80.8906 77.9316 79.7028 77.4209 78.9771 76.4086C78.8551 76.232 78.7873 76.0961 78.6652 75.9195C78.5294 75.9872 78.3935 76.0549 78.2577 76.1225C78.2712 76.2176 78.2847 76.3126 78.2982 76.4077C78.3793 76.9779 78.2635 77.5276 77.9374 77.9615C77.6112 78.3955 77.1154 78.6595 76.5451 78.7402C76.4976 78.7469 76.4025 78.7604 76.355 78.7671C76.0493 79.0043 75.6351 79.1598 75.2549 79.2136C73.9717 79.3951 72.8045 78.6876 72.3979 77.5332C71.6727 75.8421 70.9882 74.0967 70.4055 72.3855C70.1749 72.1272 69.985 71.8148 69.8834 71.4413C69.3346 69.9677 68.9078 68.6706 68.5352 67.4144C67.8158 67.1284 67.2527 66.5778 66.9613 65.8919C66.941 65.7493 66.8799 65.661 66.8597 65.5184L67.0512 63.4553C67.1667 63.245 67.2823 63.0348 67.4521 62.8653L67.3028 62.8379L67.4184 62.6277C67.2762 61.9691 67.1817 61.3038 67.0871 60.6385C66.6482 57.2102 66.2775 53.2389 66.7011 49.3977C66.722 48.5222 67.164 47.5386 68.0335 46.8339C68.0684 45.3746 69.2372 43.7064 71.4235 43.3972C71.7562 43.3501 72.0956 43.3506 72.3943 43.4053C73.7248 43.5564 74.8172 44.4199 75.3731 45.6017C75.8076 45.5887 76.2148 45.725 76.5473 46.0174C76.7169 46.1873 76.839 46.3639 76.9203 46.5948C76.934 46.3505 76.9545 46.1537 76.975 45.9569C77.1116 44.871 77.92 44.078 78.9656 43.9301C79.2032 43.8965 79.4951 43.9037 79.7463 43.9651C79.9704 43.8364 80.2488 43.7486 80.534 43.7082C80.7716 43.6746 81.0635 43.6818 81.3147 43.7432C82.1972 43.8123 82.9979 44.3293 83.4387 45.0426C83.8676 43.2852 85.4164 41.9026 87.365 41.627C87.7452 41.5732 88.1797 41.5602 88.5735 41.6015C90.5488 41.8553 92.1228 43.3778 92.5694 45.4962C92.6167 45.8288 92.664 46.1615 92.657 46.4533L92.7113 46.4941C93.0913 46.7797 93.3082 47.2823 93.2807 47.771C93.3208 48.7349 93.3608 49.6988 93.4144 50.7577ZM94.4474 59.0467C96.1924 58.7029 97.3885 56.8855 97.1453 55.1747C96.8075 52.7986 94.4253 51.7297 92.3474 52.4599C92.2591 52.5209 92.1165 52.5411 92.0282 52.602C91.8936 50.9728 91.8132 49.3844 91.7803 47.7893C91.7873 47.4974 91.3053 47.5171 91.3458 47.8023C91.2904 49.4584 91.3367 51.1485 91.4306 52.832C91.3831 52.8387 91.0639 52.9808 91.0164 52.9875C90.9493 51.8336 91.0248 50.6594 91.0052 49.4987C91.0122 49.2069 91.1014 47.7884 91.1289 47.2997C91.1564 46.811 91.1772 46.2748 91.0621 45.8064C90.7643 44.3941 89.835 43.3136 88.3552 43.1352C86.726 42.9293 84.96 44.1487 84.857 45.8115C84.761 47.1824 85.1811 48.4319 85.3635 49.715C85.4916 50.9573 85.6673 52.1929 85.8837 53.3742C85.9513 53.8494 86.0189 54.3247 86.0864 54.7999C85.0678 55.1379 84.0493 55.4759 83.0307 55.8139C82.7341 52.7048 82.6277 49.5688 82.3786 46.4529C82.3383 45.8284 81.7277 45.2846 81.1371 45.2227C80.6416 45.1473 80.2341 45.3504 79.9352 45.6351C79.4399 45.2204 78.5844 45.3414 78.5024 46.1286C78.0586 49.8272 78.3004 53.5743 78.6848 57.3012C77.7138 57.6325 76.797 58.0045 75.8735 58.3291C75.5909 54.6363 75.4984 50.9166 75.5553 47.2242C75.5825 47.0749 75.3381 47.061 75.3584 47.2036C74.9824 51.038 74.844 54.8389 75.0043 58.6944C74.9092 58.7079 74.8142 58.7213 74.7734 58.7756C74.7126 58.3479 74.6585 57.9677 74.5977 57.54C74.2131 54.1525 74.2697 50.7995 74.2448 47.555C74.2525 46.245 73.6016 45.0767 72.2168 44.8847C71.0356 44.761 69.5618 45.6481 69.5541 46.9581C69.1443 50.555 69.4811 54.2886 69.9471 57.907C70.0347 58.8641 70.2173 59.8079 70.4 60.7516C70.1418 60.982 69.8905 61.26 69.7001 61.6262C69.7476 61.6195 69.7476 61.6195 69.7476 61.6195C69.4553 62.2911 69.5769 63.1465 70.4932 63.4532C70.7035 63.5688 70.9004 63.5895 71.104 63.6576C71.5714 65.2398 72.0862 66.8152 72.6486 68.3839C72.7367 68.6623 72.8655 68.8864 73.0351 69.0564C73.6788 70.8559 74.3701 72.6488 75.1564 74.4282C75.3865 75.3652 76.8394 75.3536 77.2133 74.5736C77.5457 74.8659 78.1976 74.6767 78.1098 74.0589C77.5555 70.5015 76.8587 66.9642 76.3928 63.3458C77.3366 63.1638 78.3211 62.9276 79.3057 62.6914C79.4678 63.8319 79.6707 64.9182 79.8261 66.0112C80.029 67.0975 80.2387 68.2313 80.4416 69.3176C80.6783 70.6415 80.8065 71.8838 81.5457 72.9912C82.2782 74.051 83.8533 73.8767 84.655 73.0361C84.7093 73.0769 84.8111 73.111 84.9129 73.1451C85.3201 73.2814 85.7616 72.9765 85.694 72.5013C85.1806 68.8896 84.3819 65.3183 83.7734 61.7201C84.9481 61.4569 86.1295 61.2413 87.3042 60.9782C87.7983 63.0898 88.3467 65.2422 88.9291 67.2929C89.2474 68.5083 89.5589 69.6762 90.0129 70.8239C90.4738 72.0191 90.8123 73.3771 91.8029 74.2065L91.8436 74.1523C92.6104 74.771 93.8663 74.7388 94.1862 73.5785C94.5468 72.364 94.1946 71.2504 93.9714 70.0216C93.9511 69.879 93.9309 69.7364 93.9106 69.5939C94.155 69.6078 94.4266 69.4724 94.3793 69.1397C93.7568 66.1252 93.2362 63.1448 92.8038 60.1033C93.1365 60.0563 93.5167 60.0025 93.8494 59.9554C94.3721 59.8815 94.549 59.4202 94.4474 59.0467ZM76.2914 62.633C76.2847 62.5855 76.2577 62.3954 76.2441 62.3003C77.2287 62.0641 78.2065 61.7804 79.191 61.5441C79.1978 61.5916 79.1705 61.7409 79.1773 61.7885C78.1995 62.0722 77.2692 62.3492 76.2914 62.633ZM106.009 45.001C106.307 45.7345 106.503 46.4339 106.7 47.1332C107.472 49.4964 108.583 52.8781 109.403 55.2345C109.077 54.9897 108.982 54.6638 108.725 54.2154C108.711 54.1204 108.65 54.0321 108.596 53.9913C107.559 51.1323 106.488 48.3751 105.363 45.5771C105.397 45.4753 105.391 45.4278 105.384 45.3803C105.615 45.2991 105.839 45.1705 106.009 45.001ZM116.855 58.204C117.156 54.8649 117.559 51.5599 118.159 48.2756C118.301 48.5948 118.396 48.9207 118.531 49.1924C117.85 52.9246 117.318 56.6842 116.976 60.4169L116.928 60.4236C116.881 60.4304 116.833 60.4371 116.779 60.3963C116.82 59.6633 116.861 58.9303 116.855 58.204ZM131.739 64.0005C132.199 65.8745 132.144 67.5306 131.566 68.9212C131.355 69.4843 130.988 69.9725 130.56 70.3724C130.472 70.7728 130.376 71.1256 130.234 71.4851C129.656 72.8758 128.351 73.9329 126.973 74.1278C126.213 74.2354 125.418 74.1054 124.774 73.6633C123.138 73.4099 121.788 72.0981 121.551 70.4348C121.443 70.0138 121.382 69.5861 121.321 69.1584C120.767 66.2797 119.954 63.2921 118.727 60.1207C118.44 62.876 118.201 65.6246 118.056 68.3598C118.036 68.5567 117.968 68.7602 117.893 68.9162C117.9 69.3031 117.852 69.6492 117.804 69.9953C117.613 71.0403 117.192 71.8271 116.492 72.3624C116.499 72.4099 116.465 72.5117 116.472 72.5592C116.233 73.9503 115.588 74.8658 114.487 75.3122C114.257 75.3934 114.066 75.4203 113.876 75.4472C113.639 75.4808 113.394 75.4669 113.15 75.453C112.96 75.4798 112.763 75.4592 112.559 75.3911C111.935 75.4309 111.371 75.2198 110.964 74.7441C110.496 74.1801 110.171 73.5959 109.947 73.0458C109.777 73.2153 109.608 73.3847 109.39 73.5609C109.254 74.6467 108.818 75.6778 107.616 76.4296C107.351 76.6125 107.032 76.7546 106.7 76.8017C106.272 76.8622 105.919 76.7667 105.559 76.6237C104.704 76.7447 103.903 76.5671 103.251 76.0775C101.955 75.1458 101.535 73.557 101.224 72.3891C101.156 72.2533 101.143 72.1582 101.122 72.0156C100.364 69.4082 99.7411 66.733 99.2747 63.7934C99.1869 63.1756 99.099 62.5578 98.9637 61.9467C98.6054 59.7675 98.2403 57.5406 97.9228 55.3071C97.8552 54.8319 97.7876 54.3566 97.7133 53.8339C97.3347 51.512 96.9494 49.1427 97.0461 46.7536C97.0806 45.973 97.6174 45.3154 98.3643 45.1128C98.3237 44.8276 98.324 44.4883 98.3785 44.1897C98.3995 43.3141 99.0313 42.643 99.9343 42.5153C99.9818 42.5085 99.9818 42.5085 100.029 42.5018C100.247 41.9863 100.573 41.5523 101.015 41.2475C101.667 40.7189 102.393 40.3738 103.201 40.2595C103.582 40.2057 104.016 40.1927 104.464 40.2748C105.537 40.3169 106.582 40.8478 107.28 41.67L108.386 43.3073C108.46 43.4907 108.542 43.7216 108.623 43.9525C108.84 44.7944 109.104 45.6297 109.382 46.5599C109.463 46.7908 109.551 47.0692 109.639 47.3477C110.249 49.249 110.852 51.1028 111.448 52.9091C111.674 50.0655 111.941 47.1675 111.922 44.3099C111.93 43.3393 112.535 42.4781 113.241 41.9904C113.275 41.8886 113.268 41.8411 113.255 41.746C113.276 40.5311 114.193 39.4803 115.157 39.1015C115.524 38.9527 115.945 38.8446 116.373 38.7841C116.753 38.7303 117.14 38.7241 117.534 38.7653C117.894 38.569 118.308 38.4134 118.736 38.3529C119.591 38.2319 120.446 38.4503 121.104 38.9874C122.794 40.2997 124.076 42.1545 125.052 44.5857C125.879 46.6503 126.61 48.7283 127.308 50.908C127.505 51.6074 127.755 52.3476 128.033 53.2779C128.277 53.9705 128.514 54.6157 128.758 55.3083C129.083 56.2319 129.402 57.1079 129.727 58.0315C129.957 58.6291 130.14 59.2334 130.371 59.8311C130.459 60.1095 130.553 60.4354 130.689 60.7071C131.082 61.7665 131.482 62.8734 131.739 64.0005ZM130.175 68.3424C130.671 67.0602 130.57 65.6686 130.286 64.3515C129.947 62.9935 129.419 61.6624 128.938 60.3246C128.382 58.8034 127.881 57.3231 127.373 55.7952C127.135 55.15 126.892 54.4574 126.6 53.7714C126.39 52.977 126.126 52.1418 125.869 51.3541C125.184 49.2693 124.5 47.1846 123.673 45.1201C122.921 43.2389 121.843 41.4523 120.16 40.1875C119.502 39.6504 118.456 39.7983 117.865 40.4152C117.248 40.1632 116.521 40.169 115.747 40.5209C115.238 40.6899 114.782 41.2391 114.755 41.7277C114.772 45.9428 114.308 50.1776 113.986 54.3923C113.746 57.1409 113.554 59.8828 113.315 62.6315C111.539 57.9864 109.703 52.5742 108.2 47.7937C107.841 46.6325 107.434 45.4781 107.177 44.351C107.062 43.8825 106.804 43.4342 106.472 43.1418C106.017 42.3335 105.217 41.8166 104.286 41.7542C103.492 41.6242 102.65 41.8402 101.957 42.423C101.434 42.8363 101.264 43.3452 101.332 43.8204C101.033 44.7838 101.229 45.8226 101.411 46.7663C101.573 47.9068 101.776 48.9931 101.939 50.1336L102.094 51.2267C101.999 51.2401 101.803 50.2013 101.708 50.2148C101.37 48.1781 101.011 45.9988 100.456 44.1382C100.375 43.9073 99.8993 43.9746 99.8856 44.2189C99.7479 47.0016 100.343 49.826 100.776 52.5281C101.175 55.3319 101.628 58.1765 102.121 60.9669C102.561 63.7164 103.129 66.3508 103.901 69.0533C104.206 70.1736 104.504 71.5858 105.481 72.3202C105.969 72.6874 106.648 72.6883 107.191 72.4176C107.252 72.5059 107.307 72.5467 107.361 72.5875C107.585 72.7982 107.918 72.7512 108.182 72.5683C109.609 71.6878 109.216 69.9497 108.973 68.5782C108.31 64.5998 107.573 60.4381 106.815 56.4731C106.971 56.8873 107.168 57.2473 107.365 57.6074C107.968 59.1218 108.625 60.6771 109.276 62.1848L112.353 69.1666C112.651 69.9 112.943 70.586 113.465 71.1908C113.587 71.3674 113.784 71.3881 113.913 71.2729C114.124 71.3885 114.368 71.4024 114.606 71.3688C114.762 71.4437 114.999 71.4101 115.23 71.3289C115.964 71.0313 116.174 70.4682 116.317 69.7693C116.392 69.2739 116.42 68.7852 116.447 68.2966C116.42 68.4459 116.617 68.4665 116.638 68.2697C116.734 66.22 116.981 63.1795 117.227 60.4783C117.514 57.723 118.114 53.4205 118.782 49.9326C119.493 51.868 120.205 53.8034 120.964 55.7321C122.597 59.7187 123.661 63.4465 124.35 67.615C124.512 68.7555 125.503 69.585 126.63 69.6679C127.987 70.6879 129.637 69.6788 130.175 68.3424ZM148.668 58.794C148.675 58.8416 148.682 58.8891 148.689 58.9366C148.837 59.9821 149.04 61.0684 149.196 62.1614C149.202 62.2089 149.216 62.304 149.223 62.3515C149.215 63.3221 149.065 64.3129 149.438 65.2297C149.085 64.7948 148.841 64.1021 148.828 63.6677C148.74 62.7106 148.66 61.8009 148.62 60.837C148.572 60.165 148.519 59.4454 148.472 58.7734C148.519 58.7667 148.573 58.8075 148.668 58.794ZM152.119 36.3455L152.261 37.0041C152.647 39.0341 152.89 41.0842 153.126 43.0869L153.167 43.372C153.241 44.2341 153.369 45.1371 153.45 46.0467C153.733 48.382 153.976 50.7716 154.266 53.1544C154.745 57.886 155.143 61.7079 155.446 65.2039L155.466 65.6859L155.235 66.1064C154.97 66.6287 154.549 67.0761 154.066 67.4352C154.08 67.5302 154.1 67.6728 154.114 67.7678L154.134 68.2498L153.903 68.6703C153.481 69.4571 152.836 70.0331 152.014 70.3918C151.654 70.5881 151.281 70.6894 150.853 70.7499C149.76 70.9045 148.694 70.5705 147.867 69.8635C146.774 69.6787 145.932 68.8766 145.519 67.6747C145.201 66.7986 145.113 65.8415 145.046 65.0269C145.053 64.735 145.019 64.4974 144.985 64.2598C144.864 63.065 144.749 61.9178 144.628 60.723C144.526 60.0102 144.473 59.2906 144.365 58.5302C144.365 58.5302 144.189 57.2947 144.148 57.0095C144.148 57.0095 143.986 55.869 143.871 55.0611C143.66 55.6242 143.518 55.9838 143.518 55.9838C143.518 55.9838 140.675 63.2697 140.573 63.575C140.539 64.0162 140.504 64.4573 140.524 64.9393L140.49 65.041C140.428 66.3102 140.346 68.1156 139.007 69.2745C138.776 70.3737 138.354 71.4999 137.152 72.2517C136.88 72.3871 136.52 72.5834 136.045 72.6506C135.76 72.691 135.516 72.6771 135.217 72.6224C134.063 72.6887 132.875 72.178 131.905 71.1517L131.559 70.7644L131.532 70.2349C131.169 65.2931 130.732 58.8103 130.872 52.2945C130.888 50.0139 130.923 47.5365 131.149 45.0322C131.232 43.2268 131.314 41.4214 131.39 39.5685C131.452 38.6387 132.118 37.8658 133.014 37.6905L133.042 37.5413L133.374 37.1548C133.504 37.0396 133.633 36.9244 133.762 36.8092C134.366 36.2874 135.14 35.9355 135.901 35.8279C136.994 35.6733 138.06 36.0073 138.711 36.8363C139.131 37.0676 139.518 37.4008 139.823 37.8424C140.773 39.0654 140.568 40.3548 140.459 41.2913C140.432 41.4406 140.405 41.5899 140.371 41.6917C140.282 42.4314 140.234 43.1169 140.186 43.8023C140.703 42.6627 141.226 41.5706 141.811 40.5669C141.851 40.5126 141.885 40.4109 142.008 40.2481C142.382 39.4681 142.715 38.7423 143.143 38.003C143.449 37.4265 145.284 34.3067 147.708 33.9638C148.659 33.8294 149.629 34.1768 150.362 34.8973C150.592 35.1556 150.776 35.4205 150.965 35.733C151.122 35.8079 151.325 35.876 151.536 35.9917L152.119 36.3455ZM133.557 67.4276C133.382 65.1739 133.248 62.8659 133.161 60.5513C132.967 56.4581 132.923 52.3923 132.973 48.313C133.022 46.27 133.118 44.2203 133.222 42.2181C133.27 41.5327 133.562 40.1823 133.183 39.5574C133 39.2924 132.273 39.2982 132.239 39.7393C131.744 48.196 131.901 56.8028 133.097 65.2142C133.11 65.6487 133.117 66.0356 133.123 66.4225C133.232 66.8434 133.374 67.1626 133.442 67.2985C133.503 67.3868 133.571 67.5227 133.557 67.4276ZM151.639 43.5396C151.389 41.4419 151.187 39.3375 150.754 37.3142C150.537 37.151 150.231 37.0488 149.933 36.9941C149.885 37.0008 149.838 37.0075 149.79 37.0143C149.736 36.6341 149.587 36.2674 149.254 35.975C147.504 34.235 145.194 37.4221 144.46 38.7378C143.148 41.1049 142.141 43.5742 141.189 46.0843C140.733 47.3123 138.346 53.7097 138.38 54.2867C138.36 53.4653 138.34 52.644 138.368 51.816C138.423 50.1599 138.472 48.4563 138.527 46.8002C138.617 45.0423 138.659 43.2912 138.891 41.5132C139 40.5766 139.299 39.6132 138.642 38.7367C138.404 38.4309 138.072 38.1386 137.712 37.9956C137.705 37.9481 137.658 37.9548 137.651 37.9073C136.932 36.9425 135.52 37.2392 134.793 37.9237C134.704 37.9847 134.575 38.0999 134.494 38.2084C134.432 39.1382 134.275 40.0815 134.166 41.018C133.798 43.8819 133.734 46.848 133.712 49.7598C133.586 55.6919 133.901 61.6586 134.351 67.5577C134.976 68.1965 135.817 68.6592 136.72 68.5315C137.032 68.6813 137.406 68.5799 137.671 68.397C138.873 67.6453 138.949 66.1317 139.01 64.8625C139.024 64.2788 139.045 63.7426 139.113 63.1997C139.318 62.5891 139.569 61.9718 139.821 61.3545C141.235 57.664 144.745 48.2476 145.234 47.2573C145.472 46.8843 145.656 46.4705 145.846 46.1042C146.292 49.5801 146.88 53.0357 147.285 56.5658C147.474 58.2358 147.656 59.8583 147.845 61.5283C147.939 62.533 147.905 63.6529 148.278 64.5697C148.515 65.2149 148.888 65.7923 149.621 65.834C149.723 65.8681 149.77 65.8614 149.865 65.8479C150.571 66.7177 151.718 66.9433 152.716 66.4627C153.266 66.2395 153.647 65.8463 153.919 65.3715C153.589 61.3461 153.164 57.334 152.739 53.322C152.422 50.0703 152.003 46.7846 151.639 43.5396ZM183.502 29.9672C183.916 30.4904 184.2 31.1288 184.247 31.8008C184.328 32.7105 184.015 33.5788 183.472 34.189C183.532 34.9561 183.443 36.3745 182.281 37.4115C182.241 37.4657 182.2 37.5199 182.112 37.5809C182.023 38.3206 181.764 39.2298 180.949 39.9753C180.738 40.199 180.474 40.3819 180.107 40.5308C179.937 40.7002 179.665 40.8356 179.434 40.9168C178.097 41.3968 176.657 41.8429 175.177 42.3431C175.312 43.2936 175.454 44.2915 175.589 45.242C175.711 46.0974 175.832 46.9528 175.954 47.8082C176.238 49.8041 176.582 51.8884 176.825 53.9385C177.11 55.2557 177.414 57.0548 177.766 58.8472L177.779 58.9423L177.745 59.044C177.826 59.9537 177.906 61.8815 176.642 63.2237L176.344 63.5083C176.214 64.3023 175.942 65.1165 175.31 65.7876L173.239 66.9047C172.872 67.0535 172.458 67.2091 172.078 67.2628C171.697 67.3166 171.358 67.3162 171.059 67.2615C167.59 66.7341 166.867 63.0067 166.596 61.7846C166.061 59.0485 165.778 56.3738 165.583 54.3169C165.475 53.2172 165.367 52.1174 165.259 51.0177C165.165 49.6736 165.017 48.2888 164.916 46.8972L164.673 44.847C164.673 44.847 164.435 44.8806 164.34 44.8941C163.05 45.0281 161.719 45.2163 160.321 45.2687C159.207 45.2808 157.85 45.2789 156.655 44.7207C155.78 44.3598 155.006 43.6935 154.457 42.8987C153.038 42.1297 152.184 40.5538 152.389 38.9251C152.491 37.9411 152.994 37.0458 153.728 36.4088L153.721 36.3612C153.878 35.0786 154.687 33.9462 155.719 33.3638C155.869 32.7124 156.426 32.1973 157.092 32.1032L157.139 32.0965L157.187 32.0898C159.726 31.876 162.306 31.608 164.872 31.245C168.722 30.7005 172.735 29.9389 176.775 29.0281C177.331 28.8524 177.888 28.6767 178.364 28.6094L178.459 28.596C178.642 28.5216 178.832 28.4947 179.117 28.4544C179.117 28.4544 179.117 28.4544 179.165 28.4476C179.912 28.245 180.523 28.1101 181.134 27.9752C181.175 27.9209 181.27 27.9075 181.365 27.894C182.315 27.7596 183.231 28.4057 183.468 29.3902C183.495 29.5803 183.522 29.7703 183.502 29.9672ZM182.053 33.4201C183.126 32.7835 182.917 30.9709 181.736 30.5078C181.628 30.4262 181.526 30.3921 181.424 30.358C181.512 30.297 181.655 30.2769 181.75 30.2634C182.212 30.1012 181.954 29.3134 181.533 29.4215C180.834 29.6174 180.128 29.7657 179.428 29.9616C179.137 29.9544 178.858 30.0423 178.62 30.0759C178.152 30.1907 177.683 30.3054 177.174 30.4744C170.649 31.9791 164.016 33.0629 157.308 33.6239C157.158 33.5966 157.151 33.8884 157.294 33.8683C159.921 33.9329 162.528 33.855 165.115 33.6346C165.122 33.6821 165.081 33.7363 165.088 33.7839C162.474 34.1536 159.88 34.3266 157.232 34.4587C156.173 34.5116 155.351 35.5489 155.201 36.5397C155.078 37.7206 155.811 38.7804 156.835 39.1687C157.229 39.8888 157.941 40.4667 158.62 40.807C159.55 41.2087 160.615 41.2034 161.634 41.2047C162.883 41.125 164.173 40.991 165.456 40.8095C166.074 40.7221 166.692 40.6347 167.31 40.5473C167.377 41.0225 167.452 41.5453 167.526 42.068L167.728 44.1724C167.984 46.657 168.193 49.1483 168.395 51.5921C168.645 54.0292 168.948 56.5071 169.436 58.9105C169.794 60.7505 170.533 62.876 172.617 63.2114C173.655 63.3554 174.762 62.617 174.946 61.5245C175.144 60.527 175.002 59.1896 175.071 58.3073C175.125 58.6875 175.28 59.7805 175.328 60.1132C175.375 60.7852 175.469 61.4505 175.516 62.1226C175.516 62.1226 175.523 62.1701 175.53 62.2176C176.291 61.4313 176.319 60.2639 176.252 59.1099C175.968 57.4533 175.636 55.8035 175.352 54.1469C174.94 51.2481 174.48 48.356 174.068 45.4571C173.771 43.3661 173.521 41.2684 173.224 39.1775C175.6 38.5019 177.916 37.7381 180.272 36.92C180.415 36.8998 180.496 36.7914 180.578 36.6829C180.809 36.6017 181.08 36.4664 181.25 36.2969C181.936 35.6666 182.005 34.7843 181.931 33.9222C182.006 33.7662 182.033 33.6169 182.053 33.4201ZM161.472 40.0642C160.324 40.178 159.041 40.0202 158.179 39.4149C160.114 39.723 162.062 39.7867 163.991 39.7079C163.142 39.8764 162.286 39.9974 161.472 40.0642ZM192.947 59.6085C193.863 59.2364 194.712 58.7285 195.568 58.2681C196.431 57.8552 197.239 57.4016 198.047 56.9479L198.06 57.043C197.402 57.524 196.743 58.005 196.036 58.4927C195.731 58.7299 195.378 58.9738 195.024 59.2176C194.984 59.2719 194.936 59.2786 194.889 59.2853C194.753 59.353 193.673 59.6027 192.947 59.6085ZM201.112 41.6801L201.18 41.8159C200.909 41.9513 200.684 42.0799 200.42 42.2629C198.178 43.5494 195.835 44.8019 193.675 46.3194C194.008 45.933 194.226 45.4174 194.247 44.8812C195.116 44.5159 195.978 44.103 196.888 43.6834C198.294 42.9998 199.707 42.3637 201.112 41.6801ZM216.132 47.7482C216.383 48.8278 216.103 49.9338 215.41 50.856C215.308 51.1613 215.111 51.48 214.846 51.6629C214.744 52.3076 214.486 52.8774 214.078 53.4198C213.867 53.9829 213.398 54.437 212.801 54.667C209.29 55.8908 205.997 57.2777 202.968 58.8212C201.569 59.5523 200.081 60.3445 198.601 61.1841C198.512 61.2451 198.424 61.306 198.329 61.3195L198.152 61.4414C197.752 61.692 197.351 61.9426 196.855 62.2067C196.298 62.7217 195.633 63.1552 194.723 63.5748C194.363 63.7712 193.914 64.0285 193.358 64.2042L193.222 64.2719L193.079 64.2921C192.937 64.3122 192.842 64.3257 192.692 64.2983C192.461 64.3795 192.224 64.4131 191.986 64.4467C190.703 64.6282 189.617 64.1516 188.946 63.1801C188.885 63.0918 188.817 62.9559 188.749 62.8201C188.172 62.5138 187.67 62.0516 187.304 61.5217C186.754 60.7268 186.483 59.844 186.504 58.9685C186.206 57.8956 185.956 56.8161 185.706 55.7365C185.59 55.268 185.469 54.752 185.347 54.236L182.781 43.6914C182.042 42.9234 181.554 41.8774 181.493 40.771C181.46 39.8546 181.684 39.0472 182.058 38.2671C181.875 38.0022 181.74 37.7305 181.74 37.3911C181.706 36.8141 181.965 36.2443 182.406 35.9395C182.664 35.709 182.929 35.5261 183.194 35.3432C183.126 35.2074 183.099 35.0173 183.072 34.8272C183.039 34.2502 183.297 33.6804 183.739 33.3756C186.856 31.0924 190.32 29.536 193.613 28.149C193.973 27.9527 194.34 27.8039 194.666 27.7093L194.713 27.7025L195.175 27.5403C196.975 26.8979 198.774 26.2555 200.702 25.8373C201.171 25.7226 201.646 25.6554 202.122 25.5881L202.325 26.335C202.827 26.1185 203.33 25.902 203.832 25.6855L204.423 25.408L204.769 25.456C205.156 25.4497 205.55 25.491 205.896 25.539C206.242 25.5869 206.541 25.6417 206.846 25.7439L207.05 25.812L207.254 25.8802C207.573 26.0775 207.892 26.2747 208.163 26.4787L208.489 26.7235L208.679 27.036C209.289 28.2586 209.607 29.474 209.532 30.6482L209.517 31.5712L208.702 31.9774C208.519 32.0518 208.336 32.1262 208.152 32.2006C208.193 32.4858 208.233 32.7709 208.226 33.0628C208.79 33.2739 209.421 33.621 209.957 34.3208C210.072 34.4499 210.14 34.5858 210.262 34.7624C210.269 34.8099 210.33 34.8983 210.384 34.9391C211.022 35.3336 211.497 35.9451 211.802 36.7261C212.289 38.1114 211.799 39.7805 210.631 40.7699C210.638 40.8174 210.638 40.8174 210.597 40.8717C212.45 40.9489 214.955 42.1944 216.132 47.7482ZM184.634 34.5578C184.552 34.6663 184.573 34.8089 184.674 34.843C185.653 34.2198 186.637 33.6442 187.683 33.157C190.665 31.6202 193.795 30.4503 196.925 29.2803C198.718 28.5904 200.552 27.8462 202.338 27.1088C201.91 27.1693 201.482 27.2298 201.061 27.3379C199.038 27.7695 197.143 28.4253 195.249 29.0811C194.882 29.23 194.563 29.3721 194.196 29.5209C190.903 30.9079 187.534 32.4509 184.634 34.5578ZM214.046 50.1278C214.556 49.6195 214.841 48.9004 214.672 48.0517C214.097 45.3698 212.6 41.3156 209.048 42.5936C208.546 42.8101 208.104 43.115 207.602 43.3315C207.011 43.609 206.42 43.8865 205.829 44.1639C204.742 44.7055 203.663 45.2945 202.583 45.8836C201.904 46.222 201.231 46.608 200.559 46.994C199.255 47.7117 197.999 48.4227 196.742 49.1336C195.757 49.7093 194.773 50.2849 193.794 50.908C193.754 50.9622 193.706 50.9689 193.665 51.0232C193.652 50.9281 193.645 50.8806 193.638 50.8331C193.395 49.8011 193.158 48.8165 192.914 47.7845C194.15 46.9309 195.339 46.0841 196.636 45.3189C198.735 44.0525 200.867 43.0237 203.061 42.0832C204.161 41.6367 205.315 41.231 206.429 40.8796C207.488 40.4873 208.54 40.387 209.471 39.7706C210.266 39.2219 210.687 38.0957 210.369 37.2197C210.206 36.7579 209.853 36.323 209.392 36.1459C209.344 36.1526 209.344 36.1526 209.29 36.1118C209.216 35.9285 209.094 35.7518 208.971 35.5752C208.91 35.4868 208.843 35.351 208.727 35.2219C207.9 34.1755 206.752 34.2893 205.571 34.5049C205.007 34.6331 204.491 34.7546 203.935 34.9303C203.751 35.0047 203.52 35.0858 203.337 35.1602C201.877 35.8031 200.369 36.4526 198.902 37.0479C196.335 38.4291 193.883 39.9394 191.384 41.4564C191.35 41.2188 190.822 39.5483 190.707 39.0798C190.707 39.0798 190.748 39.0256 190.788 38.9713C192.174 38.1452 193.614 37.3598 195.06 36.6219C195.549 36.3103 200.052 34.2191 202.381 33.2109C202.476 33.1975 202.564 33.1365 202.653 33.0755C203.705 32.6358 204.751 32.1485 205.749 31.6679C206.524 31.316 207.298 30.9641 208.024 30.619C208.079 29.6416 207.795 28.6638 207.32 27.7129C207.056 27.5564 206.737 27.3592 206.472 27.2027C206.221 27.1413 205.97 27.0798 205.671 27.0251C205.372 26.9704 205.033 26.97 204.694 26.9695C202.317 27.9844 199.94 28.9993 197.502 29.9259C194.365 31.0483 191.234 32.2183 188.253 33.755C187.302 34.2289 186.311 34.757 185.373 35.3258C185.346 35.4751 185.271 35.6311 185.237 35.7329C184.653 36.3973 184.327 37.1706 184.367 38.1345C184.387 38.9558 184.8 39.8184 185.458 40.3555L186.799 45.6924C187.259 47.5664 187.719 49.4404 188.18 51.3144C188.559 52.9575 188.897 54.6548 189.412 56.2302C189.16 57.5263 190.171 58.8377 191.426 59.1449C191.413 59.3892 191.44 59.5793 191.568 59.8034C192.063 60.5575 192.926 60.484 193.666 60.2339C193.856 60.207 194.134 60.1192 194.134 60.1192C194.094 60.1734 196.688 58.9823 197.204 58.5215L197.245 58.4672C197.734 58.1557 198.23 57.8916 198.719 57.5801C198.807 57.5191 198.943 57.4514 199.031 57.3904C199.031 57.3904 199.031 57.3904 199.079 57.3837C200.552 56.4966 202.087 55.6977 203.622 54.8989C206.828 53.2335 210.216 51.8331 213.639 50.6703C213.917 50.5824 214.033 50.3722 214.046 50.1278Z" fill="white"/>
<path d="M41.5 46C32.1873 40.969 29.3158 38.7733 22.8694 30.5057C18.4988 24.9003 13.1532 16.9552 14.6482 9.44176C14.964 7.85457 11.9737 11.3388 10.9325 12.5791C8.82924 15.0845 6.66701 17.5485 4.6498 20.1241C4.40987 20.4304 2.75446 22.5865 4.44213 20.8895C5.58625 19.7391 12.0711 10.3983 13.2531 10.4931C17.9891 10.873 20.3706 19.3095 24.9368 21.0089" stroke="#FB471F" stroke-width="2" stroke-linecap="round"/>
<path d="M120 31.9346C117.108 31.2502 113.952 28.7375 111.829 26.7287C108.28 23.3712 106.77 18.5736 105.403 13.9784C104.767 11.84 104.678 10.0531 104.649 7.81671C104.624 5.81723 103.972 7.40962 103.4 8.32509C102.643 9.53573 102.034 9.97911 101 10.8467C100.997 10.8489 101.62 8.55116 101.873 7.89805C102.501 6.27378 102.654 5.62864 104.53 6.2102C107.23 7.04699 109.549 9.38626 111.789 11.0704" stroke="#FB471F" stroke-width="2" stroke-linecap="round"/>
<path d="M222.088 45.5945C226.238 43.801 230.299 39.2358 232.949 35.6941C237.377 29.7745 238.371 22.2797 239.205 15.1222C239.594 11.7916 239.255 9.12802 238.707 5.81706C238.217 2.85684 239.614 5.03254 240.713 6.2299C242.165 7.8133 244.095 12.9157 245.873 13.9174C245.877 13.9199 243.437 6.08221 242.887 5.18591C241.516 2.95684 242.614 0.640605 239.958 2.00725C236.137 3.97366 236.647 9.61066 233.737 12.7043" stroke="#FB471F" stroke-width="2" stroke-linecap="round"/>
</svg>
