<svg width="129" height="72" viewBox="0 0 129 72" fill="none" xmlns="http://www.w3.org/2000/svg">
<path d="M23.5489 59.8302C23.006 60.2319 21.9552 59.9828 23.1936 59.7882C24.431 59.5938 27.1478 59.459 28.05 59.3979C37.9887 58.7249 47.9014 57.9422 57.8051 56.8986C70.4559 55.5656 79.5149 54.4425 92.1271 52.6461C96.894 51.9672 101.655 51.2504 106.4 50.4666C109.125 50.0166 111.842 49.5233 114.535 48.9455C115.546 48.7285 116.658 48.6112 117.496 48.0855C118.617 47.3829 114.725 47.7504 113.341 47.8718C105.851 48.5289 98.4259 50.2312 91.1583 51.8468C87.5408 52.651 80.9478 54.1628 77.0047 55.2892C76.369 55.4708 74.5035 55.8349 75.1528 55.9583C76.3196 56.1801 77.5491 55.7678 78.7399 55.619C81.8109 55.2354 84.8731 54.798 87.9351 54.3617C94.8469 53.3768 107.73 51.4667 114.709 50.3631C116.692 50.0495 118.699 49.8133 120.643 49.3507C125.405 48.217 110.884 50.6903 106.039 51.5264C87.9476 54.6487 70.2361 58.7641 52.5397 63.219" stroke="#FB471F" stroke-width="2" stroke-linecap="round"/>
<path d="M19.6429 44.3822C20.4416 46.2204 18.7889 48.1227 18.7889 48.1227C18.7808 48.4632 18.6816 48.76 18.519 49.0092C18.3046 49.8879 19.6437 54.7321 18.0783 56.4523C17.9792 56.5511 17.5303 58.5659 15.95 58.7894C14.5638 58.9855 13.8914 57.8363 13.6506 56.7393C13.2044 54.7946 12.7429 52.1451 12.4314 50.1531C12.0987 50.2002 11.7938 50.2433 11.465 50.3181C11.6622 51.5062 12.2062 55.1337 11.4094 56.2928C11.2905 56.451 11.1676 56.5815 11.0171 56.7159C10.9574 57.0919 10.8423 57.4758 10.6322 57.7884C8.67397 60.5256 6.22082 57.3943 6.13397 56.9824C5.75889 55.3388 5.40772 53.4655 5.11975 51.8378C3.4328 51.7088 2.36448 50.3611 3.71236 48.3041L4.29538 47.0339C4.29538 47.0339 3.31704 41.5448 3.23047 40.737C3.18331 40.2063 3.544 39.7594 4.0747 39.7126C3.96829 38.9642 4.08775 38.0141 5.13704 38.2333C5.44228 37.7942 5.93751 37.4979 6.49199 37.4195C7.26826 37.3097 8.17092 37.691 8.58624 38.424C9.71028 39.3679 9.53211 39.3083 9.94267 41.2014C10.1242 42.0807 10.3137 43.0154 10.5189 44.0609C10.8714 43.9545 11.2279 43.8758 11.5844 43.7971L11.3437 42.502C11.0276 41.4722 10.5613 39.9828 11.7858 38.8481C11.8535 38.3295 12.0875 37.7874 12.6145 37.3169C13.7439 36.3088 15.4864 36.232 16.4835 37.4766C17.3738 38.5667 17.7123 41.5446 17.8974 43.0455C18.6775 43.1614 19.3068 43.6096 19.6429 44.3822ZM18.6832 46.3843C19.2699 45.5378 18.954 44.112 17.8216 43.9046C17.5642 43.8844 17.3306 43.8326 17.1048 43.8363C17.0772 43.6422 17.0497 43.4482 17.0181 43.2264C16.9513 42.5572 16.8567 41.8919 16.7383 41.2582C16.7265 41.175 16.7424 41.088 16.7028 41.0087C16.5095 40.0463 16.4469 38.8109 15.798 38.026C15.1095 37.1619 13.9412 37.2989 13.1883 37.971C12.3363 38.7419 12.6603 39.8273 12.9646 40.774C13.1816 41.9027 13.4303 43.0552 13.6473 44.184C13.3463 44.2548 13.077 44.3495 12.7759 44.4203C11.8174 44.6408 10.8589 44.8612 9.90827 45.137C9.88055 45.141 9.85283 45.1449 9.85283 45.1449C9.5923 43.9092 9.32784 42.6458 9.06338 41.3824C8.9726 40.9428 8.88182 40.5031 8.79104 40.0635C8.72784 39.8179 8.54207 39.3069 8.24906 39.2353C8.13028 39.1955 8.04317 39.1795 7.93227 39.1952C7.93227 39.1952 7.92833 39.1675 7.92439 39.1398C7.80602 38.5061 7.04986 38.1606 6.47948 38.3261C5.88138 38.4956 5.49283 39.1444 5.66665 39.7702C6.24341 41.8378 6.60627 43.9922 6.93745 46.1229C6.90973 46.1268 6.88201 46.1307 6.88201 46.1307C6.85428 46.1346 6.83444 46.194 6.81066 46.2256C6.58166 45.2117 6.31707 44.1463 6.06035 43.1363C5.72862 41.7975 5.44839 40.4232 4.98198 39.1318C4.9741 39.0764 4.89092 39.0881 4.89881 39.1436C5.02859 40.4543 5.32866 41.7693 5.54161 43.0682C5.75865 44.197 5.94795 45.3296 6.13332 46.4346C5.73717 46.632 5.40828 46.9047 5.23773 47.2965C5.09109 47.4586 4.94839 47.6485 4.86114 47.8305C4.32582 48.8394 5.45774 49.8387 6.34519 49.3173C6.42442 49.2778 6.52743 49.2067 6.60666 49.1672C6.98147 51.2068 7.30478 53.282 7.76276 55.3098C7.79035 55.5039 8.00018 55.5873 8.16653 55.5638C8.24168 55.6945 8.31683 55.8253 8.41971 55.9521C9.08441 56.8479 10.0944 56.5919 10.6851 55.7731C10.9665 55.3656 10.959 54.7163 10.9475 54.2372C10.9437 54.0115 10.9082 53.762 10.9044 53.5363C10.9005 53.5086 10.8965 53.4809 10.8926 53.4532C10.9328 52.5425 10.7711 51.6039 10.641 50.6891C10.5268 49.8852 10.3847 49.0852 10.2427 48.2852C11.2883 48.0808 12.3656 47.9001 13.4192 47.7511C13.6132 47.7236 13.7796 47.7001 13.9736 47.6726C14.0209 48.0053 14.0722 48.3657 14.1195 48.6983C14.2692 49.7517 14.4506 50.8289 14.6559 51.8745C14.8373 52.9517 15.0425 53.9973 15.2794 55.0666C15.3583 55.4231 15.4808 55.8865 15.7697 56.1284C16.1298 56.4734 16.6525 56.5691 17.1082 56.1936C17.235 56.0908 17.3578 55.9603 17.4253 55.8377C17.453 55.8338 17.453 55.8338 17.449 55.806C17.9839 55.391 17.9608 54.4328 17.9573 53.8112C17.9459 53.1341 17.9068 52.461 17.8637 51.7601C17.7537 50.39 17.6399 48.9922 17.5022 47.626C18.1239 47.6229 18.7064 47.1446 18.695 46.4675C18.6911 46.4398 18.6871 46.412 18.6832 46.3843ZM11.1226 47.3124C12.0296 47.1276 12.9484 47.0259 13.8672 46.9242C13.8751 46.9796 13.8791 47.0073 13.8869 47.0628C13.7206 47.0863 13.5265 47.1138 13.3285 47.1135C12.275 47.2625 11.2016 47.4709 10.1362 47.7347C10.1322 47.707 10.1244 47.6516 10.1204 47.6238C10.1719 47.5883 10.1918 47.5289 10.2116 47.4696C10.5166 47.4264 10.8176 47.3556 11.1226 47.3124ZM34.1464 51.2384C34.3755 52.0544 34.5053 53.3651 33.5306 54.0685C33.3671 55.7036 31.9014 56.3351 30.7218 55.597C30.4052 55.359 29.5385 54.4353 29.3605 54.1777C28.6128 53.0957 27.7549 50.8417 27.1461 49.3442C27.0536 51.4782 27.5715 52.734 26.4742 53.172C26.2394 54.902 25.8754 54.3313 25.7009 54.6953C25.6732 54.6993 25.228 57.1377 22.8956 56.8454C21.5691 56.6655 20.7065 55.5715 20.6996 54.1303C20.6886 52.8593 20.7409 51.6359 20.8249 50.4363C19.8631 49.6391 18.8853 49.1271 18.8229 47.6937C18.7803 46.3989 19.5926 45.7467 19.6322 45.6279C19.8107 45.2916 19.7202 44.4561 21.2733 43.4446C21.4208 41.8967 21.5997 40.9664 22.0166 39.3239C22.2191 38.56 22.4693 37.5348 23.0757 36.8269C23.3216 36.3679 23.6475 34.6817 25.4218 34.4307C26.0595 34.3405 26.7444 34.583 27.2273 34.9954C28.146 35.0917 28.9138 35.7183 29.2142 36.6373C29.5903 36.6972 29.8871 36.9946 29.97 37.3787C30.2066 38.844 30.4867 40.4163 30.8817 42.0006C32.6477 42.2881 33.9212 44.6813 32.5656 46.485C33.0281 47.7486 33.783 49.8759 34.1464 51.2384ZM31.1042 52.3191C31.9861 54.1456 33.9506 53.8395 33.3027 51.4709C32.8801 49.8905 32.1053 47.8226 31.548 46.2896C32.8834 45.1392 32.2395 42.7983 30.1801 42.8351C29.7575 41.2547 29.0474 37.2547 29.0591 37.5359C29.0743 38.4386 29.1489 39.3613 29.2513 40.28C29.2235 40.2839 29.2235 40.2839 29.1919 40.2601C28.9312 39.2224 28.6666 38.157 28.4337 37.1153C28.2561 36.2638 27.599 35.8195 26.8148 35.8738C26.5577 35.4577 25.9876 35.2273 25.5202 35.3217C24.1657 35.5416 23.8714 37.2516 23.5499 38.3717C23.0893 40.1053 22.894 41.9145 22.7819 43.7119C19.6646 44.6619 20.0745 47.5449 21.8564 47.7453C21.8959 47.8245 21.88 47.9116 21.8602 47.971C22.082 47.9396 22.3276 47.8766 22.5731 47.8136C22.4057 49.4209 22.3492 51.0125 22.352 52.624C22.374 55.1659 25.7244 55.0596 25.6033 52.6165L25.5725 51.4049C25.5725 51.4049 25.6576 48.6215 25.805 47.2716C25.8882 47.2598 25.9714 47.2481 26.0545 47.2363C25.7762 48.8593 25.7592 50.5301 25.8492 52.1576C25.8648 52.4664 26.3361 52.3998 26.2928 52.0948C26.1711 50.4436 26.2515 48.8203 26.415 47.1853L28.4903 46.8635C28.8461 47.7746 30.5538 52.2273 31.1042 52.3191ZM26.3105 43.6653C26.4298 42.9131 26.6006 42.1254 26.7793 41.3932C26.961 42.0745 27.1705 42.7518 27.3759 43.4014C27.0195 43.4801 26.663 43.5588 26.3105 43.6653ZM47.9473 37.2677C49.4879 37.1629 50.794 38.1942 51.0108 39.7188C51.1369 40.6059 50.8116 41.5003 50.1973 42.1528C50.0383 43.0236 49.4675 43.7831 48.7068 44.2017C48.8763 45.3937 49.1052 46.6056 49.3617 47.8136C49.4328 48.1146 49.3613 48.4075 49.1988 48.6567C49.3449 49.2865 49.4751 50.0033 49.2527 50.8266C49.1376 51.2105 48.9037 51.5546 48.567 51.7719C48.5629 51.9422 48.5311 52.1163 48.4755 52.3222C48.285 52.9712 47.7817 53.41 47.1441 53.5002C47.0055 53.5199 46.8946 53.5355 46.752 53.5274L45.6474 53.1181C44.9706 52.5352 44.69 51.7548 44.4528 51.0813C44.437 50.9705 44.3936 50.8635 44.354 50.7843C44.3105 50.6773 44.267 50.5703 44.2513 50.4594C44.1283 50.7879 43.8509 51.0251 43.53 51.1553C43.5379 51.2108 43.5458 51.2662 43.5537 51.3216C43.6483 51.987 43.1726 52.6198 42.5072 52.7139C42.4241 52.7257 42.337 52.7097 42.2815 52.7176C42.02 52.8677 41.7229 52.9663 41.418 53.0094C40.6417 53.1192 39.9489 52.8213 39.5255 52.2308C39.4543 52.1277 39.4148 52.0485 39.3436 51.9455C39.2643 51.9849 39.1851 52.0244 39.1059 52.0639C39.1138 52.1194 39.1216 52.1748 39.1295 52.2302C39.1768 52.5629 39.1093 52.8835 38.919 53.1367C38.7288 53.3898 38.4396 53.5438 38.1069 53.5909C38.0791 53.5948 38.0237 53.6027 37.996 53.6066C37.8177 53.7449 37.576 53.8356 37.3542 53.867C36.6057 53.9729 35.9248 53.5602 35.6877 52.8868C35.2646 51.9003 34.8653 50.8822 34.5254 49.884C34.3909 49.7333 34.2801 49.551 34.2209 49.3332C33.9007 48.4736 33.6517 47.717 33.4344 46.9842C33.0148 46.8173 32.6863 46.4962 32.5163 46.096C32.5045 46.0129 32.4689 45.9613 32.457 45.8782L32.5687 44.6747C32.6362 44.552 32.7036 44.4294 32.8026 44.3305L32.7155 44.3146L32.7829 44.1919C32.7 43.8077 32.6449 43.4196 32.5897 43.0315C32.3336 41.0317 32.1174 38.7151 32.3645 36.4744C32.3767 35.9637 32.6345 35.3899 33.1417 34.9788C33.1621 34.1276 33.8439 33.1545 35.1192 32.9741C35.3133 32.9467 35.5113 32.9469 35.6856 32.9788C36.4617 33.067 37.0989 33.5707 37.4232 34.2601C37.6766 34.2525 37.9142 34.332 38.1081 34.5026C38.2071 34.6017 38.2783 34.7047 38.3257 34.8394C38.3337 34.6969 38.3457 34.5821 38.3577 34.4673C38.4373 33.8339 38.9089 33.3713 39.5188 33.285C39.6574 33.2654 39.8277 33.2696 39.9742 33.3054C40.1049 33.2303 40.2673 33.1791 40.4337 33.1556C40.5723 33.136 40.7426 33.1402 40.8891 33.176C41.4039 33.2163 41.871 33.5178 42.1281 33.9339C42.3783 32.9088 43.2818 32.1023 44.4185 31.9415C44.6403 31.9101 44.8937 31.9025 45.1234 31.9266C46.2757 32.0747 47.1939 32.9628 47.4544 34.1985C47.482 34.3926 47.5096 34.5866 47.5055 34.7569L47.5371 34.7807C47.7588 34.9473 47.8853 35.2404 47.8693 35.5255C47.8927 36.0878 47.916 36.65 47.9473 37.2677ZM48.5499 42.103C49.5678 41.9025 50.2655 40.8423 50.1236 39.8443C49.9266 38.4583 48.537 37.8347 47.3249 38.2607C47.2734 38.2963 47.1902 38.308 47.1387 38.3436C47.0601 37.3932 47.0132 36.4667 46.9941 35.5362C46.9982 35.3659 46.717 35.3774 46.7406 35.5438C46.7083 36.5098 46.7353 37.4957 46.7901 38.4778C46.7624 38.4817 46.5762 38.5646 46.5485 38.5685C46.5093 37.8953 46.5533 37.2104 46.5419 36.5333C46.546 36.3631 46.5981 35.5356 46.6141 35.2506C46.6301 34.9655 46.6422 34.6528 46.5751 34.3795C46.4014 33.5557 45.8593 32.9254 44.9961 32.8213C44.0457 32.7012 43.0156 33.4125 42.9555 34.3825C42.8995 35.1822 43.1445 35.9111 43.2509 36.6595C43.3257 37.3842 43.4281 38.105 43.5544 38.7941C43.5938 39.0713 43.6332 39.3485 43.6726 39.6257C43.0785 39.8229 42.4843 40.02 41.8901 40.2172C41.7171 38.4035 41.655 36.5742 41.5098 34.7566C41.4862 34.3923 41.1301 34.0751 40.7855 34.039C40.4965 33.995 40.2588 34.1135 40.0844 34.2796C39.7955 34.0376 39.2965 34.1082 39.2486 34.5675C38.9897 36.725 39.1308 38.9108 39.355 41.0848C38.7886 41.278 38.2538 41.4951 37.7151 41.6844C37.5502 39.5303 37.4963 37.3604 37.5295 35.2065C37.5454 35.1195 37.4028 35.1114 37.4146 35.1945C37.1953 37.4313 37.1145 39.6484 37.208 41.8975C37.1526 41.9054 37.0971 41.9132 37.0734 41.9448C37.0379 41.6954 37.0064 41.4736 36.9709 41.2241C36.7465 39.248 36.7796 37.2921 36.765 35.3995C36.7695 34.6354 36.3898 33.9538 35.582 33.8419C34.893 33.7697 34.0333 34.2872 34.0288 35.0513C33.7897 37.1495 33.9862 39.3274 34.258 41.4382C34.3091 41.9965 34.4157 42.547 34.5222 43.0975C34.3716 43.2319 34.225 43.3941 34.114 43.6077C34.1417 43.6038 34.1417 43.6038 34.1417 43.6038C33.9711 43.9956 34.0421 44.4945 34.5766 44.6734C34.6993 44.7409 34.8141 44.753 34.9329 44.7927C35.2055 45.7156 35.5059 46.6346 35.8339 47.5497C35.8853 47.7121 35.9604 47.8429 36.0594 47.942C36.4349 48.9917 36.8381 50.0376 37.2968 51.0756C37.431 51.6221 38.2785 51.6154 38.4966 51.1603C38.6906 51.3309 39.0708 51.2205 39.0196 50.8601C38.6963 48.785 38.2898 46.7216 38.018 44.6108C38.5685 44.5047 39.1429 44.3669 39.7172 44.2291C39.8118 44.8944 39.9301 45.528 40.0208 46.1656C40.1392 46.7993 40.2615 47.4607 40.3798 48.0944C40.5179 48.8666 40.5927 49.5913 41.0239 50.2373C41.4511 50.8555 42.37 50.7538 42.8376 50.2635C42.8693 50.2873 42.9287 50.3072 42.9881 50.3271C43.2256 50.4066 43.4832 50.2287 43.4437 49.9515C43.1442 47.8447 42.6784 45.7614 42.3234 43.6625C43.0086 43.509 43.6978 43.3832 44.383 43.2297C44.6712 44.4615 44.9911 45.7171 45.3309 46.9133C45.5165 47.6223 45.6982 48.3035 45.9631 48.973C46.2319 49.6703 46.4294 50.4624 47.0072 50.9462L47.031 50.9146C47.4783 51.2755 48.2109 51.2567 48.3975 50.5799C48.6079 49.8715 48.4024 49.2218 48.2722 48.505C48.2604 48.4218 48.2486 48.3387 48.2367 48.2555C48.3793 48.2636 48.5378 48.1847 48.5102 47.9906C48.147 46.2321 47.8433 44.4935 47.5911 42.7194C47.7851 42.6919 48.0069 42.6605 48.201 42.6331C48.506 42.59 48.6091 42.3209 48.5499 42.103ZM37.9589 44.195C37.9549 44.1673 37.9392 44.0564 37.9313 44.001C38.5056 43.8632 39.076 43.6976 39.6503 43.5598C39.6543 43.5876 39.6384 43.6746 39.6423 43.7024C39.0719 43.8679 38.5293 44.0295 37.9589 44.195ZM55.2939 33.9097C55.4679 34.3375 55.5824 34.7455 55.697 35.1535C56.1475 36.532 56.7956 38.5046 57.2739 39.8792C57.0839 39.7364 57.0286 39.5463 56.8783 39.2848C56.8704 39.2293 56.8348 39.1778 56.8031 39.154C56.1983 37.4863 55.5737 35.8779 54.9175 34.2457C54.9373 34.1864 54.9334 34.1586 54.9294 34.1309C55.0641 34.0836 55.1949 34.0085 55.2939 33.9097ZM61.621 41.6114C61.7965 39.6636 62.0315 37.7357 62.3813 35.8198C62.4644 36.0061 62.5197 36.1962 62.5988 36.3547C62.2013 38.5318 61.8909 40.7249 61.6914 42.9023L61.6636 42.9062C61.6359 42.9101 61.6082 42.9141 61.5765 42.8903C61.6006 42.4627 61.6246 42.0351 61.621 41.6114ZM70.3033 44.9927C70.5719 46.0859 70.5395 47.0519 70.2023 47.8632C70.0793 48.1916 69.8653 48.4764 69.6156 48.7097C69.564 48.9432 69.5084 49.149 69.4251 49.3588C69.0879 50.17 68.3272 50.7866 67.5232 50.9003C67.0796 50.9631 66.6163 50.8872 66.2402 50.6293C65.2859 50.4815 64.4984 49.7163 64.3605 48.7461C64.2973 48.5005 64.2618 48.251 64.2263 48.0015C63.9027 46.3223 63.4287 44.5795 62.7132 42.7295C62.5458 44.3368 62.4061 45.9401 62.3218 47.5357C62.3098 47.6505 62.2701 47.7692 62.2265 47.8602C62.2303 48.0859 62.2025 48.2878 62.1746 48.4897C62.0633 49.0993 61.8175 49.5582 61.4093 49.8705C61.4133 49.8982 61.3934 49.9576 61.3974 49.9853C61.2582 50.7968 60.8816 51.3308 60.2399 51.5912C60.1052 51.6386 59.9943 51.6542 59.8834 51.6699C59.7448 51.6895 59.6022 51.6814 59.4597 51.6733C59.3488 51.689 59.234 51.677 59.1152 51.6372C58.7508 51.6605 58.4222 51.5373 58.1848 51.2598C57.9118 50.9308 57.7219 50.59 57.5914 50.2691C57.4924 50.368 57.3933 50.4668 57.2665 50.5696C57.1869 51.203 56.933 51.8045 56.2317 52.243C56.0772 52.3497 55.891 52.4326 55.697 52.4601C55.4474 52.4954 55.2416 52.4397 55.0317 52.3562C54.5327 52.4268 54.0655 52.3232 53.6855 52.0376C52.9295 51.4942 52.6846 50.5673 52.5029 49.8861C52.4633 49.8068 52.4554 49.7514 52.4436 49.6682C52.0011 48.1472 51.6379 46.5867 51.3658 44.8719C51.3146 44.5115 51.2633 44.1512 51.1844 43.7947C50.9753 42.5234 50.7624 41.2245 50.5772 39.9216C50.5378 39.6444 50.4983 39.3671 50.455 39.0622C50.2342 37.7078 50.0094 36.3256 50.0658 34.932C50.0859 34.4767 50.399 34.0931 50.8347 33.9749C50.8111 33.8086 50.8112 33.6106 50.843 33.4364C50.8552 32.9257 51.2238 32.5342 51.7506 32.4597C51.7783 32.4558 51.7783 32.4558 51.806 32.4518C51.9329 32.1511 52.1232 31.8979 52.3807 31.7201C52.7611 31.4118 53.185 31.2105 53.6563 31.1438C53.8781 31.1124 54.1316 31.1048 54.3929 31.1527C55.0186 31.1773 55.6283 31.487 56.0358 31.9666L56.6807 32.9217C56.7242 33.0287 56.7716 33.1634 56.819 33.2981C56.9454 33.7892 57.0995 34.2764 57.2615 34.8191C57.3089 34.9538 57.3603 35.1162 57.4117 35.2786C57.7673 36.3877 58.119 37.4691 58.4668 38.5228C58.5986 36.8639 58.7543 35.1735 58.7435 33.5066C58.7479 32.9404 59.1007 32.438 59.5127 32.1535C59.5326 32.0941 59.5286 32.0664 59.5208 32.011C59.5331 31.3022 60.0682 30.6893 60.6307 30.4683C60.8446 30.3815 61.0902 30.3185 61.3397 30.2832C61.5615 30.2518 61.7872 30.2481 62.0169 30.2722C62.2268 30.1577 62.4685 30.0669 62.718 30.0316C63.217 29.9611 63.7159 30.0884 64.0998 30.4018C65.0854 31.1673 65.8331 32.2492 66.4024 33.6674C66.8847 34.8718 67.3116 36.0839 67.7186 37.3554C67.8332 37.7634 67.9794 38.1952 68.1414 38.7379C68.2837 39.1419 68.422 39.5182 68.5643 39.9223C68.754 40.461 68.9398 40.9721 69.1295 41.5108C69.2639 41.8594 69.3706 42.2119 69.505 42.5605C69.5564 42.723 69.6117 42.9131 69.6908 43.0716C69.9201 43.6895 70.1533 44.3352 70.3033 44.9927ZM69.3907 47.5255C69.6803 46.7776 69.6215 45.9658 69.4557 45.1975C69.2582 44.4053 68.9499 43.6288 68.6692 42.8484C68.3451 41.9611 68.0527 41.0975 67.7563 40.2063C67.6179 39.8299 67.4756 39.4259 67.3056 39.0258C67.1832 38.5623 67.029 38.0751 66.8789 37.6156C66.4797 36.3995 66.0806 35.1835 65.5983 33.9791C65.1595 32.8818 64.5305 31.8396 63.5489 31.1018C63.165 30.7885 62.555 30.8748 62.2103 31.2346C61.85 31.0876 61.4262 31.091 60.9746 31.2963C60.6776 31.3949 60.412 31.7152 60.396 32.0003C60.4061 34.4591 60.1352 36.9294 59.9473 39.3879C59.8076 40.9913 59.6956 42.5907 59.5559 44.1941C58.5202 41.4845 57.4492 38.3274 56.5719 35.5387C56.3625 34.8614 56.1254 34.188 55.9753 33.5305C55.9082 33.2572 55.7579 32.9957 55.564 32.8252C55.299 32.3536 54.8319 32.0521 54.2893 32.0157C53.8261 31.9399 53.3349 32.0659 52.9307 32.4058C52.6256 32.647 52.5264 32.9438 52.5658 33.221C52.3912 33.783 52.5056 34.3889 52.6122 34.9394C52.7068 35.6047 52.8251 36.2384 52.9197 36.9037L53.0104 37.5413C52.9549 37.5492 52.8405 36.9432 52.785 36.9511C52.5878 35.763 52.3788 34.4917 52.0548 33.4064C52.0074 33.2717 51.7302 33.3109 51.7222 33.4534C51.6418 35.0767 51.9892 36.7243 52.2416 38.3005C52.4741 39.936 52.7383 41.5954 53.0262 43.2231C53.2826 44.827 53.6141 46.3637 54.0645 47.9402C54.2423 48.5937 54.416 49.4175 54.9859 49.8459C55.2709 50.0601 55.6669 50.0606 55.9839 49.9027C56.0195 49.9542 56.0511 49.978 56.0828 50.0018C56.2134 50.1247 56.4075 50.0973 56.562 49.9906C57.394 49.477 57.165 48.4631 57.023 47.6631C56.6365 45.3423 56.2065 42.9146 55.7645 40.6017C55.8555 40.8434 55.9702 41.0534 56.0849 41.2634C56.4367 42.1468 56.8202 43.054 57.1998 43.9336L58.9949 48.0063C59.1689 48.4341 59.3389 48.8343 59.6436 49.1871C59.7148 49.2901 59.8296 49.3021 59.9049 49.2349C60.0276 49.3024 60.1702 49.3105 60.3088 49.2909C60.3999 49.3346 60.5385 49.315 60.6732 49.2676C61.101 49.094 61.224 48.7656 61.3074 48.3578C61.3512 48.0689 61.3672 47.7838 61.3833 47.4988C61.3673 47.5858 61.4822 47.5979 61.4941 47.4831C61.5504 46.2874 61.6942 44.5138 61.8379 42.9381C62.0053 41.3308 62.3555 38.821 62.745 36.7864C63.1601 37.9154 63.5751 39.0444 64.0179 40.1695C64.9707 42.495 65.5909 44.6695 65.9932 47.1012C66.0878 47.7665 66.6656 48.2503 67.323 48.2987C68.1146 48.8937 69.0773 48.3051 69.3907 47.5255ZM80.1788 41.9556C80.1828 41.9833 80.1867 42.0111 80.1907 42.0388C80.2774 42.6486 80.3957 43.2823 80.4864 43.9199C80.4903 43.9476 80.4982 44.0031 80.5021 44.0308C80.4978 44.597 80.4103 45.1749 80.6277 45.7098C80.422 45.4561 80.2797 45.052 80.2719 44.7986C80.2208 44.2403 80.1737 43.7096 80.1503 43.1474C80.1228 42.7553 80.0914 42.3356 80.064 41.9436C80.0917 41.9397 80.1234 41.9635 80.1788 41.9556ZM82.1917 28.8606L82.2746 29.2448C82.4995 30.429 82.6413 31.6249 82.7791 32.7931L82.8027 32.9594C82.8459 33.4624 82.9208 33.9891 82.968 34.5197C83.1334 35.8819 83.275 37.2758 83.4443 38.6658C83.7236 41.4259 83.9557 43.6554 84.1325 45.6947L84.1442 45.9759L84.0094 46.2212C83.8547 46.5258 83.609 46.7868 83.3277 46.9963C83.3356 47.0517 83.3474 47.1349 83.3553 47.1903L83.3669 47.4715L83.2321 47.7168C82.9863 48.1757 82.6098 48.5118 82.1305 48.721C81.9205 48.8355 81.7027 48.8946 81.4532 48.9299C80.8155 49.0201 80.1939 48.8252 79.711 48.4128C79.0735 48.305 78.5828 47.8371 78.3417 47.136C78.1559 46.625 78.1048 46.0666 78.0656 45.5914C78.0696 45.4212 78.0499 45.2826 78.0302 45.144C77.9594 44.447 77.8926 43.7778 77.8217 43.0808C77.7626 42.665 77.7312 42.2453 77.6682 41.8017C77.6682 41.8017 77.5657 41.081 77.5421 40.9147C77.5421 40.9147 77.4475 40.2494 77.3805 39.7781C77.2575 40.1066 77.1742 40.3163 77.1742 40.3163C77.1742 40.3163 75.5159 44.5664 75.4564 44.7445C75.4364 45.0019 75.4164 45.2592 75.4281 45.5403L75.4083 45.5997C75.3721 46.3401 75.3239 47.3932 74.5432 48.0692C74.4081 48.7104 74.1622 49.3674 73.4609 49.8059C73.3024 49.8849 73.0925 49.9994 72.8152 50.0386C72.6489 50.0622 72.5063 50.054 72.3321 50.0221C71.6588 50.0608 70.966 49.7629 70.4001 49.1643L70.1983 48.9383L70.1827 48.6295C69.9708 45.7467 69.716 41.9651 69.7978 38.1642C69.8067 36.8339 69.8275 35.3887 69.9592 33.9279C70.0074 32.8747 70.0557 31.8216 70.1 30.7407C70.136 30.1983 70.5244 29.7475 71.0472 29.6453L71.0631 29.5582L71.2573 29.3327C71.3326 29.2655 71.4079 29.1983 71.4832 29.1311C71.8358 28.8267 72.2874 28.6215 72.731 28.5587C73.3687 28.4685 73.9903 28.6634 74.3701 29.1469C74.6156 29.2819 74.8412 29.4762 75.0192 29.7338C75.5731 30.4473 75.4538 31.1994 75.3901 31.7457C75.3742 31.8328 75.3583 31.9199 75.3384 31.9792C75.2867 32.4107 75.2587 32.8106 75.2307 33.2105C75.5321 32.5457 75.8375 31.9086 76.1785 31.3231C76.2022 31.2915 76.2221 31.2321 76.2934 31.1372C76.5115 30.6821 76.7059 30.2587 76.9557 29.8275C77.1341 29.4912 78.2046 27.6713 79.6185 27.4713C80.173 27.3929 80.7392 27.5956 81.1666 28.0159C81.3011 28.1665 81.408 28.3211 81.5187 28.5034C81.6098 28.547 81.7286 28.5868 81.8513 28.6543L82.1917 28.8606ZM71.3639 46.9919C71.2619 45.6772 71.1836 44.3309 71.1331 42.9807C71.0199 40.593 70.9938 38.2213 71.0231 35.8417C71.0517 34.65 71.1079 33.4543 71.1682 32.2863C71.1961 31.8865 71.367 31.0988 71.1455 30.7342C71.0386 30.5797 70.6149 30.583 70.5949 30.8404C70.3064 35.7734 70.398 40.7941 71.0955 45.7007C71.1033 45.9541 71.1071 46.1798 71.1109 46.4055C71.1741 46.6511 71.2571 46.8373 71.2967 46.9165C71.3323 46.9681 71.3718 47.0473 71.3639 46.9919ZM81.9116 33.0572C81.7659 31.8336 81.648 30.606 81.3953 29.4257C81.2687 29.3305 81.0905 29.2709 80.9163 29.239C80.8885 29.2429 80.8608 29.2468 80.8331 29.2508C80.8016 29.029 80.7146 28.8151 80.5207 28.6445C79.4996 27.6295 78.1519 29.4886 77.7237 30.2562C76.9584 31.637 76.3713 33.0774 75.8159 34.5416C75.55 35.2579 74.1574 38.9897 74.177 39.3263C74.1655 38.8472 74.1539 38.3681 74.1701 37.8851C74.2024 36.919 74.2308 35.9253 74.2632 34.9592C74.3154 33.9338 74.3398 32.9123 74.4752 31.8751C74.5389 31.3288 74.7136 30.7668 74.3298 30.2555C74.1913 30.0771 73.9974 29.9066 73.7875 29.8232C73.7836 29.7955 73.7559 29.7994 73.7519 29.7717C73.3325 29.2089 72.5087 29.382 72.0847 29.7813C72.0332 29.8168 71.9579 29.8841 71.9103 29.9473C71.8743 30.4897 71.7828 31.04 71.7191 31.5863C71.5041 33.2569 71.4673 34.9871 71.4542 36.6856C71.3805 40.1461 71.5643 43.6266 71.8272 47.0677C72.1913 47.4404 72.6822 47.7103 73.209 47.6358C73.3911 47.7232 73.6089 47.6641 73.7634 47.5574C74.4647 47.1188 74.5089 46.2359 74.545 45.4956C74.5532 45.1551 74.5653 44.8423 74.6051 44.5256C74.7241 44.1694 74.8709 43.8093 75.0177 43.4492C75.8429 41.2964 77.8901 35.8035 78.1757 35.2258C78.3144 35.0083 78.4215 34.7669 78.5325 34.5532C78.7925 36.5808 79.1357 38.5966 79.3719 40.6558C79.4821 41.63 79.5883 42.5764 79.6986 43.5506C79.7536 44.1367 79.7333 44.79 79.9508 45.3248C80.0891 45.7011 80.3067 46.0379 80.7344 46.0623C80.7938 46.0822 80.8215 46.0782 80.877 46.0704C81.2885 46.5778 81.9576 46.7093 82.54 46.429C82.8608 46.2988 83.0828 46.0694 83.2414 45.7925C83.0489 43.4443 82.8011 41.104 82.5532 38.7636C82.3684 36.8668 82.1242 34.9501 81.9116 33.0572ZM100.498 25.1399C100.74 25.4451 100.906 25.8176 100.933 26.2096C100.98 26.7402 100.798 27.2468 100.481 27.6027C100.516 28.0501 100.464 28.8776 99.7864 29.4824C99.7626 29.5141 99.7388 29.5457 99.6873 29.5813C99.6355 30.0128 99.4847 30.5432 99.0092 30.978C98.8863 31.1085 98.7318 31.2152 98.5179 31.3021C98.4188 31.4009 98.2603 31.4799 98.1257 31.5272C97.3453 31.8073 96.5056 32.0674 95.6421 32.3593C95.7209 32.9137 95.8036 33.4958 95.8825 34.0503C95.9534 34.5492 96.0243 35.0482 96.0953 35.5472C96.2608 36.7115 96.4619 37.9273 96.6037 39.1232C96.7695 39.8916 96.947 40.9411 97.1522 41.9866L97.1601 42.0421L97.1402 42.1015C97.1874 42.6321 97.2341 43.7566 96.497 44.5396L96.3226 44.7056C96.2471 45.1688 96.0883 45.6437 95.7198 46.0352L94.5114 46.6868C94.2975 46.7736 94.0559 46.8644 93.8341 46.8958C93.6123 46.9271 93.4143 46.9269 93.2401 46.895C91.2166 46.5873 90.7944 44.413 90.6365 43.7001C90.3247 42.1041 90.1595 40.5438 90.0455 39.344C89.9825 38.7025 89.9196 38.0609 89.8567 37.4194C89.8018 36.6354 89.7152 35.8276 89.6564 35.0158L89.5146 33.8199C89.5146 33.8199 89.376 33.8395 89.3206 33.8473C88.5681 33.9255 87.7918 34.0353 86.976 34.0658C86.3265 34.0729 85.5345 34.0718 84.8377 33.7462C84.327 33.5356 83.8758 33.147 83.5553 32.6833C82.728 32.2348 82.2296 31.3155 82.3491 30.3654C82.4089 29.7914 82.7023 29.2691 83.1302 28.8975L83.1263 28.8698C83.2179 28.1216 83.6896 27.461 84.2918 27.1213C84.3792 26.7414 84.7041 26.4409 85.0923 26.386L85.12 26.3821L85.1477 26.3781C86.6289 26.2535 88.1339 26.0971 89.631 25.8854C91.8766 25.5677 94.2174 25.1235 96.5741 24.5922C96.8989 24.4897 97.2237 24.3872 97.5009 24.3479L97.5564 24.3401C97.6633 24.2967 97.7742 24.281 97.9406 24.2575C97.9406 24.2575 97.9406 24.2575 97.9683 24.2535C98.404 24.1354 98.7605 24.0567 99.117 23.978C99.1407 23.9463 99.1962 23.9385 99.2516 23.9306C99.8061 23.8522 100.34 24.2291 100.479 24.8034C100.494 24.9142 100.51 25.0251 100.498 25.1399ZM99.6533 27.1541C100.279 26.7828 100.157 25.7255 99.4684 25.4553C99.4051 25.4077 99.3457 25.3878 99.2863 25.3679C99.3378 25.3324 99.421 25.3206 99.4764 25.3128C99.7458 25.2181 99.5956 24.7586 99.35 24.8216C98.942 24.9359 98.5301 25.0224 98.1221 25.1367C97.9519 25.1325 97.7895 25.1838 97.6508 25.2034C97.3775 25.2703 97.1042 25.3373 96.8072 25.4358C93.0008 26.3136 89.1313 26.9458 85.2184 27.2731C85.1313 27.2571 85.1272 27.4274 85.2104 27.4156C86.7429 27.4533 88.2637 27.4079 89.7726 27.2793C89.7765 27.307 89.7528 27.3386 89.7567 27.3663C88.2319 27.582 86.719 27.6829 85.1745 27.76C84.5567 27.7908 84.0771 28.396 83.9896 28.9739C83.9178 29.6628 84.3451 30.281 84.9429 30.5075C85.1723 30.9275 85.5879 31.2647 85.9838 31.4632C86.5262 31.6975 87.1479 31.6944 87.7419 31.6952C88.4706 31.6487 89.2231 31.5705 89.9717 31.4646C90.3321 31.4136 90.6925 31.3627 91.0529 31.3117C91.0923 31.5889 91.1357 31.8938 91.179 32.1988L91.297 33.4263C91.4465 34.8757 91.5682 36.329 91.6861 37.7545C91.8316 39.1761 92.0088 40.6216 92.293 42.0236C92.5021 43.0969 92.933 44.3368 94.1486 44.5324C94.7544 44.6164 95.4003 44.1857 95.5076 43.5484C95.6229 42.9665 95.5402 42.1864 95.5802 41.6717C95.6117 41.8935 95.7024 42.5311 95.73 42.7251C95.7574 43.1171 95.8126 43.5052 95.84 43.8973C95.84 43.8973 95.844 43.925 95.8479 43.9527C96.2918 43.494 96.3081 42.813 96.2689 42.1399C96.1033 41.1735 95.9099 40.2111 95.7442 39.2448C95.5038 37.5538 95.2357 35.8667 94.9953 34.1757C94.8219 32.956 94.6762 31.7324 94.5028 30.5126C95.8891 30.1186 97.2399 29.673 98.6144 29.1958C98.6975 29.184 98.7451 29.1207 98.7927 29.0574C98.9274 29.0101 99.0858 28.9311 99.1849 28.8323C99.5851 28.4646 99.6251 27.9499 99.5819 27.447C99.6255 27.356 99.6414 27.2689 99.6533 27.1541ZM87.6474 31.0299C86.978 31.0963 86.2296 31.0042 85.7269 30.6511C86.8555 30.8308 87.992 30.868 89.1167 30.822C88.6216 30.9204 88.1226 30.9909 87.6474 31.0299ZM106.008 42.4307C106.543 42.2137 107.038 41.9174 107.537 41.6488C108.04 41.408 108.511 41.1434 108.983 40.8787L108.991 40.9342C108.606 41.2147 108.222 41.4953 107.81 41.7799C107.632 41.9182 107.426 42.0605 107.22 42.2027C107.196 42.2344 107.168 42.2383 107.141 42.2422C107.061 42.2817 106.432 42.4273 106.008 42.4307ZM110.771 31.9725L110.811 32.0517C110.652 32.1307 110.522 32.2057 110.367 32.3124C109.06 33.0629 107.693 33.7936 106.433 34.6788C106.627 34.4533 106.754 34.1526 106.766 33.8398C107.273 33.6267 107.776 33.3859 108.307 33.1411C109.127 32.7423 109.951 32.3713 110.771 31.9725ZM119.533 35.5122C119.679 36.142 119.516 36.7871 119.112 37.3251C119.052 37.5032 118.937 37.6891 118.783 37.7958C118.723 38.1719 118.572 38.5042 118.334 38.8207C118.211 39.1491 117.938 39.414 117.589 39.5482C115.541 40.2621 113.62 41.0711 111.853 41.9715C111.037 42.398 110.17 42.86 109.306 43.3498C109.254 43.3854 109.203 43.421 109.148 43.4288L109.044 43.4999C108.811 43.6461 108.577 43.7923 108.288 43.9463C107.963 44.2468 107.575 44.4997 107.044 44.7444C106.834 44.859 106.572 45.0091 106.247 45.1116L106.168 45.151L106.085 45.1628C106.002 45.1746 105.946 45.1824 105.859 45.1665C105.725 45.2138 105.586 45.2334 105.447 45.253C104.699 45.3589 104.065 45.0809 103.674 44.5141C103.638 44.4626 103.599 44.3834 103.559 44.3041C103.223 44.1255 102.93 43.8559 102.716 43.5467C102.396 43.0831 102.238 42.5681 102.25 42.0574C102.076 41.4315 101.93 40.8018 101.784 40.1721C101.717 39.8988 101.646 39.5978 101.575 39.2967L100.078 33.1457C99.6465 32.6977 99.3618 32.0876 99.3266 31.4422C99.3072 30.9076 99.4382 30.4366 99.6563 29.9816C99.5495 29.827 99.4704 29.6685 99.4705 29.4706C99.4509 29.134 99.6017 28.8016 99.8592 28.6238C100.01 28.4894 100.164 28.3827 100.319 28.276C100.279 28.1967 100.264 28.0859 100.248 27.975C100.228 27.6384 100.379 27.306 100.636 27.1282C102.455 25.7963 104.475 24.8884 106.397 24.0794C106.607 23.9648 106.821 23.878 107.011 23.8228L107.038 23.8189L107.308 23.7243C108.357 23.3495 109.407 22.9748 110.532 22.7309C110.805 22.6639 111.083 22.6247 111.36 22.5855L111.478 23.0212C111.771 22.8949 112.065 22.7686 112.358 22.6423L112.702 22.4804L112.904 22.5084C113.13 22.5048 113.36 22.5288 113.562 22.5568C113.764 22.5848 113.938 22.6167 114.116 22.6764L114.235 22.7161L114.354 22.7559C114.54 22.871 114.726 22.986 114.884 23.105L115.074 23.2478L115.185 23.4301C115.541 24.1433 115.726 24.8523 115.682 25.5372L115.674 26.0757L115.199 26.3126C115.092 26.356 114.985 26.3994 114.878 26.4428C114.901 26.6091 114.925 26.7755 114.921 26.9457C115.25 27.0689 115.618 27.2713 115.93 27.6796C115.998 27.7549 116.037 27.8341 116.108 27.9372C116.112 27.9649 116.148 28.0164 116.18 28.0402C116.552 28.2704 116.829 28.6271 117.006 29.0827C117.291 29.8908 117.005 30.8644 116.324 31.4415C116.328 31.4693 116.328 31.4693 116.304 31.5009C117.385 31.5459 118.846 32.2725 119.533 35.5122ZM101.159 27.8178C101.111 27.8811 101.123 27.9643 101.182 27.9842C101.753 27.6207 102.327 27.2849 102.937 27.0007C104.677 26.1042 106.503 25.4217 108.329 24.7393C109.375 24.3368 110.444 23.9027 111.486 23.4726C111.236 23.5079 110.987 23.5432 110.741 23.6062C109.561 23.858 108.456 24.2405 107.351 24.6231C107.137 24.7099 106.951 24.7928 106.737 24.8796C104.815 25.6887 102.851 26.5888 101.159 27.8178ZM118.316 36.9003C118.613 36.6038 118.78 36.1843 118.681 35.6892C118.346 34.1248 117.472 31.7599 115.4 32.5054C115.107 32.6317 114.85 32.8095 114.556 32.9358C114.212 33.0977 113.867 33.2595 113.522 33.4214C112.889 33.7373 112.259 34.0809 111.629 34.4245C111.233 34.6219 110.84 34.8471 110.448 35.0722C109.688 35.4909 108.955 35.9057 108.222 36.3204C107.647 36.6562 107.073 36.9919 106.502 37.3554C106.479 37.3871 106.451 37.391 106.427 37.4226C106.419 37.3672 106.415 37.3395 106.411 37.3117C106.269 36.7097 106.131 36.1354 105.989 35.5334C106.71 35.0355 107.403 34.5415 108.16 34.0951C109.384 33.3564 110.628 32.7562 111.908 32.2076C112.549 31.9472 113.223 31.7105 113.872 31.5055C114.49 31.2767 115.104 31.2182 115.647 30.8586C116.11 30.5385 116.356 29.8816 116.171 29.3706C116.076 29.1012 115.87 28.8475 115.601 28.7442C115.573 28.7481 115.573 28.7481 115.541 28.7243C115.498 28.6174 115.427 28.5143 115.356 28.4113C115.32 28.3598 115.28 28.2805 115.213 28.2052C114.73 27.5948 114.061 27.6612 113.372 27.787C113.043 27.8617 112.742 27.9326 112.417 28.0351C112.31 28.0785 112.176 28.1258 112.069 28.1692C111.217 28.5442 110.338 28.9231 109.482 29.2704C107.984 30.0761 106.554 30.9571 105.096 31.842C105.077 31.7034 104.768 30.729 104.701 30.4557C104.701 30.4557 104.725 30.424 104.749 30.3924C105.557 29.9104 106.397 29.4523 107.241 29.0219C107.526 28.8401 110.152 27.6202 111.511 27.0321C111.567 27.0243 111.618 26.9887 111.67 26.9532C112.284 26.6966 112.894 26.4124 113.476 26.1321C113.928 25.9268 114.379 25.7215 114.803 25.5202C114.835 24.95 114.669 24.3797 114.392 23.825C114.238 23.7337 114.052 23.6186 113.898 23.5273C113.751 23.4915 113.605 23.4557 113.43 23.4238C113.256 23.3918 113.058 23.3916 112.86 23.3913C111.474 23.9833 110.087 24.5754 108.665 25.1159C106.835 25.7706 105.009 26.4531 103.27 27.3495C102.715 27.6259 102.137 27.934 101.59 28.2658C101.574 28.3529 101.531 28.4439 101.511 28.5033C101.17 28.8909 100.979 29.342 101.003 29.9042C101.014 30.3833 101.256 30.8865 101.64 31.1998L102.421 34.313C102.69 35.4062 102.959 36.4993 103.227 37.5925C103.448 38.551 103.646 39.5411 103.946 40.4601C103.799 41.2161 104.388 41.9811 105.121 42.1603C105.113 42.3028 105.129 42.4137 105.204 42.5444C105.493 42.9843 105.996 42.9415 106.427 42.7955C106.538 42.7799 106.701 42.7286 106.701 42.7286C106.677 42.7603 108.19 42.0655 108.491 41.7966L108.515 41.765C108.8 41.5832 109.089 41.4292 109.375 41.2475C109.426 41.2119 109.505 41.1724 109.557 41.1369C109.557 41.1369 109.557 41.1369 109.585 41.1329C110.444 40.6154 111.34 40.1494 112.235 39.6834C114.105 38.712 116.082 37.8951 118.078 37.2168C118.24 37.1655 118.308 37.0429 118.316 36.9003Z" fill="white"/>
<path d="M20.1374 37.4114C20.1374 37.4114 19.0716 36.5247 18.6046 35.9257C15.3638 31.7694 11.4 25.8782 12.5086 20.307C12.7427 19.1301 10.5254 21.7136 9.75339 22.6333C8.19385 24.491 6.59058 26.318 5.09483 28.2278C4.91693 28.455 3.68945 30.0537 4.94085 28.7954C5.78921 27.9424 10.5977 21.0162 11.4741 21.0865C14.9858 21.3682 16.7517 27.6238 20.1375 28.8839" stroke="#FB471F" stroke-width="2" stroke-linecap="round"/>
<path d="M102.181 22.5991C103.213 21.9741 106.244 18.7554 106.775 17.5991C106.775 17.5991 107.588 16.5398 108.207 11.2325C108.495 8.76291 108.244 6.7879 107.838 4.33285C107.474 2.13787 108.51 3.75113 109.325 4.63896C110.402 5.81304 111.833 9.59644 113.151 10.3392C113.154 10.341 111.345 4.52945 110.937 3.86485C109.921 2.21201 110.734 0.494542 108.765 1.5079C105.932 2.96598 106.31 7.14578 104.152 9.43966" stroke="#FB471F" stroke-width="2" stroke-linecap="round"/>
<path d="M74.125 26.375C74.3336 24.6738 73.1834 22.0986 72.1613 20.2361C70.4531 17.1231 67.0976 14.4269 63.8635 11.8828C62.3585 10.699 60.9873 9.92743 59.2497 9.00267C57.6963 8.17587 59.106 8.50385 59.9672 8.59522C61.106 8.71605 61.6082 8.59725 62.5506 8.44198C62.553 8.44158 60.6005 7.81192 60.0261 7.67023C58.5974 7.31787 58.0549 7.13032 58.0269 8.28985C57.9867 9.95827 59.2162 12.0518 59.9551 13.8393" stroke="#FB471F" stroke-width="2" stroke-linecap="round"/>
</svg>
