<svg width="129" height="72" viewBox="0 0 129 72" fill="none" xmlns="http://www.w3.org/2000/svg">
<path d="M23.6173 60.2311C23.0745 60.6327 22.0236 60.3837 23.262 60.1891C24.4995 59.9947 27.2163 59.8599 28.1185 59.7988C38.0571 59.1258 47.9699 58.3431 57.8735 57.2995C70.5244 55.9665 79.5833 54.8434 92.1956 53.047C96.9625 52.368 101.723 51.6513 106.469 50.8675C109.194 50.4175 111.911 49.9241 114.603 49.3463C115.614 49.1294 116.726 49.012 117.565 48.4864C118.685 47.7838 114.793 48.1512 113.409 48.2727C105.919 48.9298 98.4944 50.6321 91.2267 52.2477C87.6093 53.0519 81.0163 54.5637 77.0732 55.6901C76.4374 55.8717 74.572 56.2358 75.2213 56.3592C76.3881 56.5809 77.6175 56.1686 78.8084 56.0199C81.8794 55.6363 84.9416 55.1989 88.0036 54.7626C94.9153 53.7777 107.798 51.8676 114.778 50.7639C116.761 50.4504 118.767 50.2142 120.711 49.7516C125.474 48.6179 110.952 51.0912 106.108 51.9272C88.016 55.0495 70.3046 59.165 52.6082 63.6198" stroke="#FB471F" stroke-width="2" stroke-linecap="round"/>
<path d="M19.7115 44.783C20.5102 46.6213 18.8575 48.5235 18.8575 48.5235C18.8494 48.864 18.7502 49.1609 18.5876 49.4101C18.3732 50.2888 19.7123 55.133 18.1469 56.8532C18.0478 56.952 17.5989 58.9667 16.0186 59.1903C14.6324 59.3864 13.96 58.2372 13.7192 57.1401C13.273 55.1955 12.8115 52.546 12.5 50.554C12.1673 50.601 11.8624 50.6442 11.5336 50.719C11.7308 51.907 12.2748 55.5346 11.478 56.6936C11.3591 56.8518 11.2363 56.9823 11.0857 57.1168C11.026 57.4928 10.9109 57.8767 10.7008 58.1892C8.74258 60.9265 6.28942 57.7952 6.20258 57.3833C5.82749 55.7396 5.47633 53.8664 5.18835 52.2386C3.5014 52.1097 2.43308 50.762 3.78096 48.7049L4.36399 47.4348C4.36399 47.4348 3.38564 41.9457 3.29907 41.1378C3.25192 40.6072 3.6126 40.1603 4.1433 40.1135C4.03689 39.365 4.15635 38.4149 5.20565 38.6341C5.51088 38.1951 6.00611 37.8988 6.56059 37.8203C7.33686 37.7105 8.23952 38.0919 8.65484 38.8249C9.77888 39.7688 9.60071 39.7092 10.0113 41.6023C10.1928 42.4816 10.3823 43.4162 10.5875 44.4618C10.94 44.3554 11.2965 44.2767 11.653 44.198L11.4123 42.9029C11.0962 41.873 10.6299 40.3837 11.8544 39.249C11.9221 38.7304 12.1561 38.1883 12.6831 37.7178C13.8125 36.7097 15.555 36.6329 16.5521 37.8775C17.4424 38.9675 17.7809 41.9455 17.966 43.4464C18.7461 43.5622 19.3755 44.0105 19.7115 44.783ZM18.7518 46.7852C19.3385 45.9387 19.0226 44.5129 17.8902 44.3054C17.6328 44.2853 17.3992 44.2335 17.1734 44.2372C17.1458 44.0431 17.1183 43.8491 17.0867 43.6273C17.0199 42.9581 16.9253 42.2927 16.8069 41.6591C16.7951 41.5759 16.811 41.4888 16.7714 41.4096C16.5781 40.4472 16.5155 39.2118 15.8666 38.4269C15.1781 37.5628 14.0098 37.6998 13.2569 38.3719C12.4049 39.1428 12.7289 40.2281 13.0332 41.1749C13.2502 42.3036 13.4989 43.4561 13.7159 44.5848C13.4149 44.6557 13.1456 44.7504 12.8445 44.8212C11.886 45.0416 10.9275 45.2621 9.97688 45.5379C9.94915 45.5418 9.92143 45.5458 9.92143 45.5458C9.66091 44.3101 9.39645 43.0467 9.13198 41.7832C9.0412 41.3436 8.95042 40.904 8.85964 40.4644C8.79645 40.2188 8.61067 39.7078 8.31766 39.6361C8.19889 39.5964 8.11177 39.5804 8.00088 39.5961C8.00088 39.5961 7.99694 39.5684 7.99299 39.5407C7.87463 38.907 7.11847 38.5615 6.54809 38.727C5.94998 38.8965 5.56144 39.5453 5.73525 40.1711C6.31202 42.2387 6.67487 44.3931 7.00606 46.5237C6.97833 46.5277 6.95061 46.5316 6.95061 46.5316C6.92289 46.5355 6.90304 46.5949 6.87926 46.6265C6.65027 45.6126 6.38567 44.5471 6.12895 43.5371C5.79722 42.1984 5.51699 40.8241 5.05058 39.5327C5.0427 39.4773 4.95953 39.489 4.96741 39.5445C5.09719 40.8552 5.39726 42.1701 5.61022 43.4691C5.82725 44.5979 6.01656 45.7305 6.20192 46.8354C5.80577 47.0329 5.47689 47.3056 5.30633 47.6974C5.15969 47.8595 5.01699 48.0494 4.92974 48.2314C4.39442 49.2403 5.52635 50.2396 6.41379 49.7182C6.49302 49.6787 6.59603 49.6076 6.67526 49.5681C7.05008 51.6077 7.37338 53.6828 7.83137 55.7107C7.85895 55.9047 8.06879 55.9882 8.23513 55.9646C8.31028 56.0954 8.38544 56.2262 8.48832 56.353C9.15301 57.2487 10.163 56.9928 10.7537 56.174C11.0351 55.7665 11.0276 55.1172 11.0161 54.6381C11.0123 54.4124 10.9768 54.1629 10.973 53.9372C10.9691 53.9095 10.9651 53.8818 10.9612 53.854C11.0014 52.9434 10.8397 52.0048 10.7096 51.09C10.5954 50.2861 10.4533 49.4861 10.3113 48.6861C11.357 48.4816 12.4342 48.301 13.4878 48.152C13.6818 48.1245 13.8482 48.101 14.0422 48.0735C14.0895 48.4062 14.1408 48.7666 14.1881 49.0992C14.3378 50.1526 14.5192 51.2298 14.7245 52.2754C14.9059 53.3526 15.1111 54.3982 15.348 55.4675C15.4269 55.824 15.5494 56.2874 15.8383 56.5293C16.1984 56.8743 16.7211 56.97 17.1768 56.5945C17.3036 56.4917 17.4265 56.3612 17.4939 56.2386C17.5216 56.2346 17.5216 56.2346 17.5176 56.2069C18.0526 55.7919 18.0295 54.8337 18.0259 54.2121C18.0145 53.535 17.9754 52.8618 17.9323 52.161C17.8223 50.7909 17.7085 49.393 17.5708 48.0269C18.1926 48.0237 18.775 47.5454 18.7636 46.8684C18.7597 46.8406 18.7557 46.8129 18.7518 46.7852ZM11.1912 47.7133C12.0982 47.5284 13.017 47.4267 13.9358 47.325C13.9437 47.3805 13.9477 47.4082 13.9555 47.4637C13.7892 47.4872 13.5951 47.5146 13.3971 47.5144C12.3436 47.6634 11.2702 47.8718 10.2048 48.1356C10.2008 48.1079 10.193 48.0524 10.189 48.0247C10.2405 47.9892 10.2604 47.9298 10.2802 47.8704C10.5852 47.8273 10.8862 47.7564 11.1912 47.7133ZM34.215 51.6393C34.4441 52.4552 34.5739 53.766 33.5992 54.4694C33.4357 56.1044 31.97 56.7359 30.7904 55.9979C30.4738 55.7599 29.6071 54.8362 29.4291 54.5786C28.6814 53.4966 27.8235 51.2426 27.2147 49.7451C27.1222 51.8791 27.6401 53.1349 26.5428 53.5729C26.308 55.3028 25.944 54.7322 25.7695 55.0962C25.7418 55.1001 25.2966 57.5385 22.9642 57.2463C21.6377 57.0663 20.7751 55.9724 20.7682 54.5311C20.7572 53.2602 20.8095 52.0368 20.8935 50.8372C19.9317 50.04 18.9539 49.5279 18.8915 48.0945C18.8489 46.7998 19.6612 46.1476 19.7008 46.0288C19.8793 45.6925 19.7888 44.857 21.3419 43.8455C21.4895 42.2975 21.6683 41.3673 22.0853 39.7247C22.2877 38.9608 22.5379 37.9357 23.1443 37.2278C23.3902 36.7688 23.7161 35.0826 25.4904 34.8316C26.1281 34.7414 26.813 34.9838 27.2959 35.3963C28.2146 35.4925 28.9824 36.1192 29.2828 37.0382C29.6589 37.0981 29.9557 37.3954 30.0386 37.7796C30.2752 39.2449 30.5553 40.8172 30.9503 42.4015C32.7163 42.689 33.9898 45.0822 32.6342 46.8858C33.0967 48.1495 33.8516 50.2767 34.215 51.6393ZM31.1728 52.72C32.0547 54.5465 34.0192 54.2403 33.3713 51.8717C32.9487 50.2914 32.1739 48.2235 31.6166 46.6904C32.952 45.5401 32.3081 43.1992 30.2487 43.236C29.8261 41.6556 29.116 37.6556 29.1277 37.9367C29.1429 38.8395 29.2175 39.7622 29.3199 40.6809C29.2921 40.6848 29.2921 40.6848 29.2605 40.661C28.9998 39.6233 28.7352 38.5578 28.5023 37.5162C28.3247 36.6647 27.6676 36.2203 26.8834 36.2747C26.6263 35.8586 26.0562 35.6282 25.5888 35.7226C24.2343 35.9425 23.94 37.6525 23.6185 38.7726C23.1579 40.5062 22.9626 42.3154 22.8505 44.1128C19.7332 45.0628 20.1431 47.9458 21.925 48.1462C21.9646 48.2254 21.9486 48.3125 21.9288 48.3719C22.1506 48.3405 22.3962 48.2775 22.6417 48.2145C22.4743 49.8218 22.4178 51.4134 22.4206 53.0249C22.4426 55.5668 25.793 55.4605 25.6719 53.0174L25.6411 51.8058C25.6411 51.8058 25.7262 49.0224 25.8736 47.6725C25.9568 47.6607 26.04 47.6489 26.1232 47.6372C25.8448 49.2602 25.8278 50.931 25.9178 52.5584C25.9334 52.8673 26.4047 52.8006 26.3614 52.4957C26.2397 50.8445 26.3201 49.2212 26.4836 47.5862L28.5589 47.2643C28.9147 48.1755 30.6224 52.6282 31.1728 52.72ZM26.3791 44.0661C26.4984 43.314 26.6692 42.5263 26.8479 41.7941C27.0296 42.4753 27.2391 43.1527 27.4445 43.8023C27.0881 43.881 26.7316 43.9597 26.3791 44.0661ZM48.0159 37.6686C49.5565 37.5638 50.8626 38.595 51.0794 40.1197C51.2055 41.0068 50.8802 41.9012 50.2659 42.5536C50.1069 43.4245 49.5361 44.1839 48.7754 44.6026C48.9449 45.7946 49.1738 47.0065 49.4303 48.2145C49.5014 48.5155 49.4299 48.8084 49.2674 49.0576C49.4135 49.6873 49.5437 50.4042 49.3213 51.2274C49.2062 51.6113 48.9723 51.9555 48.6356 52.1728C48.6315 52.343 48.5997 52.5172 48.5441 52.723C48.3536 53.3721 47.8503 53.8109 47.2127 53.9011C47.0741 53.9207 46.9632 53.9364 46.8206 53.9283L45.716 53.519C45.0392 52.936 44.7586 52.1556 44.5214 51.4822C44.5057 51.3713 44.4622 51.2644 44.4226 51.1851C44.3791 51.0782 44.3356 50.9712 44.3199 50.8603C44.1969 51.1888 43.9195 51.426 43.5986 51.5562C43.6065 51.6116 43.6144 51.6671 43.6223 51.7225C43.7169 52.3878 43.2412 53.0207 42.5758 53.1148C42.4927 53.1266 42.4056 53.1106 42.3501 53.1185C42.0886 53.2686 41.7915 53.3671 41.4866 53.4103C40.7103 53.5201 40.0175 53.2222 39.5942 52.6317C39.5229 52.5286 39.4834 52.4494 39.4122 52.3463C39.3329 52.3858 39.2537 52.4253 39.1745 52.4648C39.1824 52.5202 39.1903 52.5757 39.1981 52.6311C39.2454 52.9638 39.1779 53.2844 38.9876 53.5375C38.7974 53.7907 38.5082 53.9447 38.1755 53.9918C38.1477 53.9957 38.0923 54.0035 38.0646 54.0075C37.8863 54.1458 37.6446 54.2365 37.4228 54.2679C36.6743 54.3738 35.9934 53.9611 35.7563 53.2877C35.3332 52.3012 34.9339 51.2831 34.5941 50.2848C34.4595 50.1342 34.3488 49.9519 34.2895 49.7341C33.9693 48.8744 33.7203 48.1179 33.503 47.3851C33.0834 47.2182 32.7549 46.897 32.5849 46.4969C32.5731 46.4137 32.5375 46.3622 32.5256 46.2791L32.6373 45.0755C32.7048 44.9529 32.7722 44.8302 32.8712 44.7314L32.7841 44.7154L32.8515 44.5928C32.7686 44.2086 32.7135 43.8205 32.6583 43.4324C32.4022 41.4326 32.186 39.116 32.4331 36.8753C32.4453 36.3646 32.7031 35.7908 33.2103 35.3797C33.2307 34.5285 33.9125 33.5554 35.1879 33.375C35.3819 33.3475 35.5799 33.3478 35.7542 33.3797C36.5303 33.4679 37.1675 33.9716 37.4918 34.661C37.7452 34.6534 37.9828 34.7329 38.1767 34.9034C38.2757 35.0026 38.3469 35.1056 38.3943 35.2403C38.4023 35.0978 38.4143 34.983 38.4263 34.8681C38.5059 34.2347 38.9775 33.7721 39.5874 33.6859C39.726 33.6663 39.8963 33.6704 40.0428 33.7063C40.1735 33.6312 40.336 33.58 40.5023 33.5564C40.6409 33.5368 40.8112 33.541 40.9577 33.5769C41.4725 33.6172 41.9396 33.9187 42.1967 34.3348C42.4469 33.3097 43.3504 32.5032 44.4871 32.3424C44.7089 32.311 44.9623 32.3034 45.192 32.3275C46.3443 32.4756 47.2625 33.3637 47.523 34.5994C47.5506 34.7935 47.5782 34.9875 47.5741 35.1578L47.6057 35.1816C47.8274 35.3482 47.9539 35.6413 47.9379 35.9264C47.9613 36.4886 47.9846 37.0509 48.0159 37.6686ZM48.6185 42.5039C49.6364 42.3033 50.3341 41.2432 50.1922 40.2452C49.9952 38.8591 48.6056 38.2356 47.3935 38.6616C47.342 38.6972 47.2588 38.7089 47.2073 38.7445C47.1287 37.7941 47.0818 36.8676 47.0627 35.9371C47.0668 35.7668 46.7856 35.7783 46.8092 35.9446C46.7769 36.9107 46.8039 37.8966 46.8587 38.8786C46.831 38.8826 46.6448 38.9654 46.6171 38.9694C46.5779 38.2962 46.622 37.6113 46.6105 36.9342C46.6146 36.764 46.6667 35.9365 46.6827 35.6515C46.6987 35.3664 46.7108 35.0536 46.6437 34.7803C46.47 33.9566 45.9279 33.3263 45.0647 33.2221C44.1143 33.1021 43.0842 33.8134 43.0241 34.7833C42.9681 35.5831 43.2131 36.3119 43.3195 37.0604C43.3943 37.7851 43.4967 38.5058 43.623 39.1949C43.6624 39.4722 43.7018 39.7494 43.7412 40.0266C43.1471 40.2237 42.5529 40.4209 41.9587 40.6181C41.7857 38.8044 41.7236 36.9751 41.5784 35.1575C41.5549 34.7932 41.1987 34.476 40.8541 34.4399C40.5651 34.3959 40.3274 34.5144 40.153 34.6804C39.8641 34.4385 39.3651 34.5091 39.3172 34.9683C39.0583 37.1259 39.1994 39.3117 39.4236 41.4857C38.8572 41.6789 38.3224 41.896 37.7837 42.0853C37.6188 39.9311 37.5649 37.7613 37.5981 35.6074C37.614 35.5203 37.4714 35.5122 37.4832 35.5954C37.2639 37.8322 37.1831 40.0493 37.2766 42.2984C37.2212 42.3062 37.1657 42.3141 37.142 42.3457C37.1065 42.0962 37.075 41.8745 37.0395 41.625C36.8151 39.6489 36.8482 37.693 36.8336 35.8004C36.8381 35.0362 36.4584 34.3547 35.6506 34.2427C34.9616 34.1705 34.1019 34.688 34.0974 35.4522C33.8583 37.5504 34.0548 39.7283 34.3266 41.839C34.3777 42.3974 34.4843 42.9479 34.5908 43.4984C34.4402 43.6328 34.2936 43.795 34.1826 44.0086C34.2103 44.0047 34.2103 44.0047 34.2103 44.0047C34.0397 44.3964 34.1107 44.8954 34.6452 45.0743C34.7679 45.1418 34.8827 45.1538 35.0015 45.1936C35.2741 46.1165 35.5745 47.0355 35.9025 47.9506C35.9539 48.113 36.029 48.2437 36.128 48.3429C36.5035 49.3926 36.9067 50.4384 37.3654 51.4764C37.4996 52.023 38.3471 52.0163 38.5652 51.5612C38.7592 51.7317 39.1394 51.6214 39.0882 51.261C38.7649 49.1858 38.3584 47.1224 38.0866 45.0117C38.6371 44.9055 39.2115 44.7677 39.7858 44.6299C39.8804 45.2953 39.9987 45.9289 40.0894 46.5665C40.2078 47.2002 40.3301 47.8616 40.4484 48.4952C40.5865 49.2675 40.6613 49.9922 41.0925 50.6382C41.5197 51.2564 42.4386 51.1547 42.9062 50.6644C42.9379 50.6882 42.9973 50.7081 43.0567 50.7279C43.2942 50.8074 43.5518 50.6296 43.5123 50.3524C43.2128 48.2456 42.747 46.1623 42.392 44.0633C43.0772 43.9099 43.7664 43.7841 44.4516 43.6306C44.7398 44.8624 45.0597 46.1179 45.3995 47.3142C45.5851 48.0231 45.7668 48.7044 46.0317 49.3739C46.3005 50.0711 46.498 50.8633 47.0758 51.3471L47.0996 51.3155C47.5469 51.6764 48.2795 51.6576 48.4661 50.9808C48.6765 50.2723 48.471 49.6227 48.3408 48.9059C48.329 48.8227 48.3172 48.7396 48.3053 48.6564C48.4479 48.6645 48.6064 48.5855 48.5788 48.3915C48.2157 46.633 47.9119 44.8944 47.6597 43.1203C47.8538 43.0928 48.0755 43.0614 48.2696 43.034C48.5746 42.9908 48.6777 42.7217 48.6185 42.5039ZM38.0275 44.5959C38.0236 44.5682 38.0078 44.4573 37.9999 44.4018C38.5742 44.264 39.1446 44.0985 39.7189 43.9607C39.7229 43.9884 39.707 44.0755 39.7109 44.1032C39.1405 44.2688 38.5979 44.4304 38.0275 44.5959ZM55.3625 34.3106C55.5365 34.7384 55.651 35.1464 55.7656 35.5544C56.2161 36.9329 56.8642 38.9055 57.3425 40.2801C57.1525 40.1373 57.0972 39.9472 56.9469 39.6856C56.939 39.6302 56.9034 39.5787 56.8717 39.5549C56.2669 37.8871 55.6423 36.2788 54.9861 34.6466C55.0059 34.5872 55.002 34.5595 54.998 34.5318C55.1327 34.4845 55.2635 34.4094 55.3625 34.3106ZM61.6896 42.0123C61.8652 40.0645 62.1001 38.1366 62.4499 36.2207C62.533 36.4069 62.5883 36.5971 62.6674 36.7555C62.2699 38.9327 61.9595 41.1258 61.76 43.3032L61.7322 43.3071C61.7045 43.311 61.6768 43.3149 61.6451 43.2911C61.6692 42.8636 61.6932 42.436 61.6896 42.0123ZM70.3719 45.3936C70.6405 46.4868 70.6081 47.4528 70.2709 48.264C70.1479 48.5925 69.9339 48.8773 69.6842 49.1105C69.6326 49.3441 69.577 49.5499 69.4937 49.7596C69.1565 50.5709 68.3958 51.1875 67.5918 51.3012C67.1482 51.364 66.6849 51.2881 66.3088 51.0302C65.3545 50.8824 64.567 50.1172 64.4291 49.1469C64.3659 48.9014 64.3304 48.6519 64.2949 48.4024C63.9713 46.7232 63.4973 44.9804 62.7818 43.1304C62.6144 44.7376 62.4747 46.341 62.3904 47.9365C62.3784 48.0514 62.3388 48.1701 62.2951 48.2611C62.2989 48.4868 62.2711 48.6887 62.2432 48.8906C62.1319 49.5002 61.8861 49.9591 61.4779 50.2714C61.4819 50.2991 61.462 50.3584 61.466 50.3862C61.3268 51.1977 60.9502 51.7317 60.3085 51.9921C60.1738 52.0394 60.0629 52.0551 59.952 52.0708C59.8134 52.0904 59.6708 52.0823 59.5283 52.0742C59.4174 52.0899 59.3026 52.0779 59.1838 52.0381C58.8194 52.0614 58.4908 51.9382 58.2534 51.6607C57.9804 51.3317 57.7905 50.9909 57.66 50.67C57.561 50.7689 57.4619 50.8677 57.3351 50.9705C57.2555 51.6039 57.0016 52.2054 56.3003 52.6439C56.1458 52.7506 55.9596 52.8335 55.7656 52.861C55.5161 52.8963 55.3102 52.8405 55.1003 52.7571C54.6013 52.8277 54.1341 52.7241 53.7541 52.4385C52.9981 51.8951 52.7532 50.9682 52.5715 50.287C52.5319 50.2077 52.524 50.1523 52.5122 50.0691C52.0697 48.5481 51.7065 46.9876 51.4344 45.2728C51.3832 44.9124 51.3319 44.552 51.253 44.1956C51.044 42.9243 50.831 41.6253 50.6458 40.3224C50.6064 40.0452 50.5669 39.768 50.5236 39.4631C50.3028 38.1087 50.078 36.7265 50.1344 35.3329C50.1545 34.8776 50.4676 34.4939 50.9033 34.3758C50.8797 34.2094 50.8798 34.0115 50.9116 33.8373C50.9238 33.3265 51.2924 32.9351 51.8192 32.8606C51.8469 32.8566 51.8469 32.8566 51.8746 32.8527C52.0015 32.552 52.1918 32.2988 52.4493 32.121C52.8297 31.8127 53.2536 31.6113 53.7249 31.5447C53.9467 31.5133 54.2002 31.5057 54.4615 31.5536C55.0872 31.5782 55.6969 31.8879 56.1044 32.3675L56.7493 33.3226C56.7928 33.4296 56.8402 33.5642 56.8876 33.6989C57.014 34.1901 57.1681 34.6773 57.3301 35.2199C57.3775 35.3546 57.4289 35.517 57.4803 35.6794C57.8359 36.7886 58.1877 37.87 58.5354 38.9236C58.6672 37.2648 58.8229 35.5744 58.8121 33.9074C58.8165 33.3412 59.1693 32.8389 59.5813 32.5544C59.6012 32.495 59.5972 32.4673 59.5894 32.4118C59.6017 31.7031 60.1368 31.0901 60.6993 30.8692C60.9132 30.7824 61.1588 30.7193 61.4083 30.6841C61.6301 30.6527 61.8558 30.649 62.0855 30.6731C62.2954 30.5586 62.5371 30.4678 62.7866 30.4325C63.2856 30.3619 63.7845 30.4893 64.1684 30.8026C65.154 31.5681 65.9017 32.6501 66.471 34.0683C66.9533 35.2726 67.3802 36.4848 67.7872 37.7563C67.9018 38.1643 68.048 38.5961 68.21 39.1387C68.3523 39.5428 68.4906 39.9191 68.6329 40.3232C68.8226 40.8619 69.0084 41.3729 69.1981 41.9117C69.3326 42.2603 69.4392 42.6128 69.5736 42.9614C69.625 43.1238 69.6803 43.314 69.7594 43.4724C69.9887 44.0904 70.2219 44.7361 70.3719 45.3936ZM69.4593 47.9264C69.7489 47.1784 69.6901 46.3667 69.5243 45.5983C69.3268 44.8062 69.0185 44.0297 68.7378 43.2493C68.4137 42.362 68.1213 41.4984 67.8249 40.6072C67.6865 40.2308 67.5442 39.8268 67.3742 39.4266C67.2518 38.9632 67.0977 38.476 66.9475 38.0165C66.5483 36.8004 66.1492 35.5843 65.6669 34.38C65.2281 33.2827 64.5991 32.2405 63.6175 31.5027C63.2336 31.1894 62.6236 31.2757 62.2789 31.6355C61.9186 31.4885 61.4948 31.4919 61.0432 31.6972C60.7462 31.7957 60.4806 32.1161 60.4646 32.4012C60.4748 34.86 60.2038 37.3303 60.0159 39.7888C59.8762 41.3922 59.7642 42.9916 59.6245 44.595C58.5888 41.8854 57.5178 38.7282 56.6405 35.9396C56.4311 35.2623 56.194 34.5889 56.0439 33.9314C55.9768 33.6581 55.8265 33.3966 55.6326 33.2261C55.3676 32.7545 54.9005 32.453 54.3579 32.4166C53.8947 32.3407 53.4035 32.4668 52.9993 32.8067C52.6942 33.0478 52.595 33.3447 52.6344 33.6219C52.4598 34.1839 52.5742 34.7898 52.6808 35.3403C52.7754 36.0056 52.8937 36.6393 52.9883 37.3046L53.079 37.9422C53.0235 37.95 52.9091 37.3441 52.8536 37.3519C52.6564 36.1638 52.4474 34.8926 52.1234 33.8073C52.076 33.6726 51.7988 33.7118 51.7908 33.8543C51.7104 35.4776 52.0578 37.1252 52.3102 38.7014C52.5427 40.3369 52.8069 41.9963 53.0948 43.624C53.3512 45.2279 53.6828 46.7646 54.1331 48.341C54.3109 48.9946 54.4846 49.8184 55.0545 50.2468C55.3395 50.461 55.7355 50.4615 56.0525 50.3036C56.0881 50.3551 56.1197 50.3789 56.1514 50.4027C56.282 50.5256 56.4761 50.4982 56.6306 50.3915C57.4626 49.8779 57.2336 48.8639 57.0916 48.064C56.7051 45.7432 56.2751 43.3155 55.8331 41.0026C55.9241 41.2443 56.0388 41.4543 56.1535 41.6643C56.5053 42.5477 56.8888 43.4549 57.2684 44.3344L59.0635 48.4071C59.2375 48.835 59.4075 49.2351 59.7122 49.5879C59.7834 49.691 59.8982 49.703 59.9735 49.6358C60.0962 49.7033 60.2388 49.7114 60.3774 49.6918C60.4685 49.7355 60.6071 49.7159 60.7418 49.6685C61.1696 49.4949 61.2926 49.1664 61.376 48.7587C61.4198 48.4697 61.4358 48.1847 61.4519 47.8996C61.436 47.9867 61.5508 47.9988 61.5628 47.8839C61.619 46.6883 61.7628 44.9147 61.9065 43.339C62.0739 41.7317 62.4241 39.2219 62.8136 37.1873C63.2287 38.3163 63.6437 39.4453 64.0865 40.5704C65.0393 42.8959 65.6595 45.0704 66.0618 47.5021C66.1564 48.1674 66.7342 48.6512 67.3916 48.6996C68.1832 49.2946 69.1459 48.706 69.4593 47.9264ZM80.2474 42.3565C80.2514 42.3842 80.2553 42.4119 80.2593 42.4397C80.346 43.0495 80.4643 43.6832 80.555 44.3208C80.5589 44.3485 80.5668 44.4039 80.5707 44.4317C80.5664 44.9979 80.4789 45.5758 80.6963 46.1106C80.4906 45.8569 80.3483 45.4529 80.3405 45.1995C80.2894 44.6411 80.2423 44.1105 80.2189 43.5482C80.1914 43.1562 80.1601 42.7365 80.1326 42.3445C80.1603 42.3405 80.192 42.3643 80.2474 42.3565ZM82.2603 29.2615L82.3432 29.6457C82.5681 30.8298 82.7099 32.0258 82.8477 33.194L82.8713 33.3603C82.9145 33.8632 82.9894 34.3899 83.0366 34.9206C83.202 36.2828 83.3436 37.6767 83.5129 39.0667C83.7922 41.8268 84.0243 44.0563 84.2011 46.0956L84.2128 46.3767L84.078 46.622C83.9233 46.9267 83.6776 47.1877 83.3963 47.3972C83.4042 47.4526 83.416 47.5358 83.4239 47.5912L83.4355 47.8723L83.3007 48.1176C83.0549 48.5766 82.6784 48.9126 82.1991 49.1218C81.9891 49.2364 81.7713 49.2955 81.5218 49.3308C80.8841 49.421 80.2625 49.2261 79.7796 48.8137C79.1421 48.7059 78.6514 48.238 78.4103 47.5369C78.2245 47.0259 78.1734 46.4675 78.1342 45.9923C78.1382 45.8221 78.1185 45.6835 78.0988 45.5449C78.028 44.8479 77.9612 44.1787 77.8904 43.4817C77.8312 43.0659 77.7998 42.6462 77.7368 42.2026C77.7368 42.2026 77.6343 41.4819 77.6107 41.3155C77.6107 41.3155 77.5161 40.6502 77.4491 40.179C77.3261 40.5074 77.2428 40.7172 77.2428 40.7172C77.2428 40.7172 75.5845 44.9673 75.525 45.1454C75.505 45.4027 75.485 45.6601 75.4967 45.9412L75.4769 46.0006C75.4407 46.7409 75.3925 47.7941 74.6118 48.4701C74.4768 49.1113 74.2308 49.7682 73.5295 50.2068C73.3711 50.2858 73.1611 50.4003 72.8838 50.4395C72.7175 50.463 72.5749 50.4549 72.4007 50.423C71.7275 50.4617 71.0346 50.1638 70.4687 49.5652L70.2669 49.3392L70.2513 49.0303C70.0394 46.1476 69.7846 42.366 69.8664 38.5651C69.8753 37.2347 69.8961 35.7896 70.0278 34.3287C70.076 33.2756 70.1243 32.2225 70.1686 31.1416C70.2046 30.5992 70.593 30.1484 71.1158 30.0461L71.1317 29.959L71.3259 29.7336C71.4012 29.6664 71.4765 29.5992 71.5518 29.532C71.9044 29.2276 72.3561 29.0223 72.7996 28.9596C73.4373 28.8694 74.0589 29.0642 74.4387 29.5478C74.6842 29.6828 74.9098 29.8771 75.0878 30.1347C75.6417 30.8481 75.5224 31.6003 75.4587 32.1466C75.4428 32.2337 75.4269 32.3207 75.407 32.3801C75.3553 32.8116 75.3273 33.2115 75.2993 33.6113C75.6007 32.9466 75.9061 32.3095 76.2471 31.724C76.2708 31.6923 76.2907 31.633 76.362 31.5381C76.5802 31.083 76.7745 30.6596 77.0243 30.2284C77.2027 29.8921 78.2732 28.0722 79.6871 27.8722C80.2416 27.7938 80.8078 27.9965 81.2352 28.4168C81.3697 28.5674 81.4766 28.722 81.5873 28.9042C81.6784 28.9479 81.7972 28.9877 81.9199 29.0551L82.2603 29.2615ZM71.4326 47.3927C71.3305 46.0781 71.2522 44.7318 71.2017 43.3815C71.0885 40.9939 71.0624 38.6221 71.0917 36.2426C71.1203 35.0508 71.1765 33.8552 71.2368 32.6872C71.2648 32.2874 71.4356 31.4997 71.2141 31.1351C71.1072 30.9805 70.6835 30.9839 70.6635 31.2413C70.375 36.1743 70.4666 41.195 71.1642 46.1016C71.1719 46.355 71.1757 46.5807 71.1795 46.8064C71.2427 47.052 71.3257 47.2382 71.3653 47.3174C71.4009 47.3689 71.4404 47.4482 71.4326 47.3927ZM81.9802 33.4581C81.8345 32.2344 81.7166 31.0069 81.4639 29.8266C81.3373 29.7314 81.1591 29.6718 80.9849 29.6399C80.9571 29.6438 80.9294 29.6477 80.9017 29.6516C80.8702 29.4299 80.7832 29.2159 80.5893 29.0454C79.5682 28.0304 78.2205 29.8895 77.7923 30.657C77.027 32.0378 76.4399 33.4783 75.8845 34.9425C75.6186 35.6588 74.226 39.3906 74.2456 39.7272C74.2341 39.2481 74.2225 38.769 74.2387 38.286C74.271 37.3199 74.2994 36.3261 74.3318 35.3601C74.384 34.3347 74.4084 33.3132 74.5438 32.276C74.6075 31.7297 74.7822 31.1677 74.3984 30.6564C74.2599 30.478 74.066 30.3075 73.8561 30.2241C73.8522 30.1964 73.8245 30.2003 73.8205 30.1726C73.4011 29.6097 72.5773 29.7828 72.1533 30.1822C72.1018 30.2177 72.0265 30.2849 71.9789 30.3482C71.9429 30.8906 71.8514 31.4408 71.7877 31.9872C71.5727 33.6577 71.5359 35.3879 71.5228 37.0865C71.4492 40.5469 71.6329 44.0275 71.8958 47.4686C72.2599 47.8413 72.7508 48.1112 73.2776 48.0367C73.4597 48.124 73.6775 48.0649 73.832 47.9583C74.5333 47.5197 74.5775 46.6368 74.6136 45.8965C74.6218 45.556 74.6339 45.2432 74.6737 44.9265C74.7927 44.5703 74.9395 44.2102 75.0863 43.8501C75.9115 41.6973 77.9587 36.2044 78.2443 35.6267C78.383 35.4091 78.4901 35.1678 78.6011 34.9541C78.8611 36.9817 79.2043 38.9975 79.4405 41.0567C79.5507 42.0309 79.6569 42.9773 79.7672 43.9515C79.8222 44.5376 79.8019 45.1908 80.0194 45.7256C80.1577 46.102 80.3753 46.4388 80.803 46.4632C80.8624 46.483 80.8901 46.4791 80.9456 46.4713C81.3571 46.9786 82.0262 47.1102 82.6086 46.8299C82.9295 46.6997 83.1514 46.4703 83.31 46.1934C83.1175 43.8452 82.8697 41.5048 82.6218 39.1645C82.437 37.2677 82.1928 35.351 81.9802 33.4581ZM100.567 25.5408C100.808 25.846 100.974 26.2184 101.002 26.6105C101.049 27.1411 100.866 27.6476 100.549 28.0036C100.585 28.451 100.533 29.2785 99.855 29.8833C99.8312 29.915 99.8074 29.9466 99.7559 29.9822C99.7041 30.4137 99.5533 30.944 99.0778 31.3789C98.9549 31.5094 98.8004 31.6161 98.5865 31.7029C98.4874 31.8018 98.3289 31.8808 98.1943 31.9281C97.4139 32.2081 96.5742 32.4683 95.7107 32.7601C95.7895 33.3146 95.8722 33.8967 95.9511 34.4511C96.022 34.9501 96.0929 35.4491 96.1639 35.9481C96.3294 37.1124 96.5305 38.3282 96.6723 39.5241C96.8381 40.2925 97.0156 41.342 97.2208 42.3875L97.2287 42.443L97.2088 42.5023C97.256 43.033 97.3027 44.1575 96.5656 44.9405L96.3912 45.1065C96.3157 45.5697 96.1569 46.0446 95.7884 46.4361L94.5801 47.0877C94.3661 47.1745 94.1245 47.2653 93.9027 47.2966C93.6809 47.328 93.4829 47.3277 93.3087 47.2958C91.2852 46.9882 90.863 44.8139 90.7051 44.101C90.3933 42.5049 90.2281 40.9447 90.1141 39.7448C90.0511 39.1033 89.9882 38.4618 89.9253 37.8203C89.8704 37.0363 89.7838 36.2284 89.725 35.4167L89.5832 34.2207C89.5832 34.2207 89.4446 34.2403 89.3892 34.2482C88.6367 34.3264 87.8604 34.4362 87.0446 34.4667C86.3951 34.4738 85.6031 34.4727 84.9063 34.1471C84.3956 33.9365 83.9444 33.5479 83.6239 33.0842C82.7966 32.6357 82.2982 31.7164 82.4177 30.7663C82.4775 30.1923 82.7709 29.67 83.1989 29.2984L83.1949 29.2707C83.2865 28.5225 83.7582 27.8619 84.3604 27.5222C84.4478 27.1422 84.7727 26.8418 85.1609 26.7869L85.1886 26.7829L85.2163 26.779C86.6975 26.6543 88.2025 26.498 89.6996 26.2862C91.9452 25.9686 94.286 25.5244 96.6427 24.993C96.9675 24.8905 97.2923 24.788 97.5695 24.7488L97.625 24.741C97.7319 24.6976 97.8428 24.6819 98.0092 24.6583C98.0092 24.6583 98.0092 24.6583 98.0369 24.6544C98.4726 24.5362 98.8291 24.4575 99.1856 24.3788C99.2093 24.3472 99.2648 24.3393 99.3202 24.3315C99.8747 24.2531 100.409 24.6299 100.547 25.2042C100.563 25.3151 100.579 25.426 100.567 25.5408ZM99.722 27.555C100.348 27.1837 100.226 26.1263 99.537 25.8562C99.4737 25.8086 99.4143 25.7887 99.3549 25.7688C99.4064 25.7333 99.4896 25.7215 99.545 25.7136C99.8144 25.619 99.6642 25.1595 99.4186 25.2225C99.0106 25.3368 98.5987 25.4233 98.1907 25.5376C98.0205 25.5334 97.8581 25.5846 97.7194 25.6043C97.4461 25.6712 97.1728 25.7381 96.8758 25.8367C93.0694 26.7145 89.1999 27.3467 85.287 27.6739C85.1999 27.658 85.1958 27.8282 85.279 27.8165C86.8115 27.8542 88.3323 27.8087 89.8412 27.6801C89.8451 27.7079 89.8214 27.7395 89.8253 27.7672C88.3005 27.9829 86.7876 28.0838 85.2431 28.1609C84.6253 28.1917 84.1457 28.7969 84.0582 29.3748C83.9864 30.0637 84.4137 30.6819 85.0115 30.9084C85.2409 31.3284 85.6565 31.6655 86.0524 31.864C86.5948 32.0984 87.2165 32.0953 87.8105 32.0961C88.5392 32.0496 89.2917 31.9714 90.0403 31.8655C90.4007 31.8145 90.7611 31.7635 91.1215 31.7126C91.1609 31.9898 91.2043 32.2947 91.2476 32.5996L91.3656 33.8272C91.5151 35.2766 91.6368 36.7298 91.7547 38.1554C91.9002 39.577 92.0774 41.0224 92.3616 42.4245C92.5708 43.4977 93.0016 44.7376 94.2172 44.9333C94.8231 45.0173 95.4689 44.5866 95.5762 43.9493C95.6915 43.3674 95.6088 42.5873 95.6488 42.0726C95.6803 42.2944 95.771 42.9319 95.7986 43.126C95.826 43.518 95.8812 43.9061 95.9086 44.2981C95.9086 44.2981 95.9126 44.3259 95.9165 44.3536C96.3604 43.8949 96.3767 43.2139 96.3375 42.5407C96.1719 41.5744 95.9785 40.612 95.8128 39.6457C95.5724 37.9547 95.3043 36.2676 95.0639 34.5766C94.8905 33.3569 94.7448 32.1332 94.5714 30.9135C95.9577 30.5194 97.3085 30.0739 98.683 29.5967C98.7661 29.5849 98.8137 29.5216 98.8613 29.4583C98.996 29.411 99.1544 29.332 99.2535 29.2332C99.6537 28.8655 99.6937 28.3508 99.6505 27.8479C99.6941 27.7569 99.71 27.6698 99.722 27.555ZM87.716 31.4308C87.0466 31.4972 86.2982 31.4051 85.7955 31.052C86.9241 31.2317 88.0606 31.2689 89.1853 31.2229C88.6902 31.3212 88.1912 31.3918 87.716 31.4308ZM106.076 42.8316C106.611 42.6146 107.106 42.3183 107.606 42.0497C108.109 41.8089 108.58 41.5442 109.052 41.2796L109.059 41.335C108.675 41.6156 108.291 41.8962 107.879 42.1807C107.7 42.3191 107.494 42.4613 107.288 42.6036C107.265 42.6352 107.237 42.6392 107.209 42.6431C107.13 42.6826 106.5 42.8282 106.076 42.8316ZM110.84 32.3733L110.879 32.4526C110.721 32.5316 110.59 32.6066 110.436 32.7133C109.128 33.4638 107.761 34.1944 106.501 35.0796C106.696 34.8542 106.823 34.5535 106.835 34.2407C107.342 34.0276 107.845 33.7867 108.376 33.542C109.196 33.1432 110.02 32.7721 110.84 32.3733ZM119.601 35.9131C119.747 36.5429 119.584 37.188 119.18 37.726C119.121 37.904 119.006 38.09 118.851 38.1967C118.792 38.5727 118.641 38.9051 118.403 39.2215C118.28 39.55 118.007 39.8149 117.658 39.9491C115.61 40.6629 113.689 41.472 111.922 42.3723C111.106 42.7988 110.238 43.2609 109.375 43.7507C109.323 43.7863 109.272 43.8218 109.216 43.8297L109.113 43.9008C108.879 44.047 108.646 44.1932 108.356 44.3472C108.031 44.6477 107.643 44.9005 107.112 45.1453C106.902 45.2598 106.641 45.4099 106.316 45.5124L106.237 45.5519L106.154 45.5637C106.071 45.5755 106.015 45.5833 105.928 45.5673C105.793 45.6147 105.655 45.6343 105.516 45.6539C104.767 45.7598 104.134 45.4818 103.742 44.915C103.707 44.8635 103.667 44.7843 103.628 44.705C103.291 44.5264 102.998 44.2567 102.785 43.9476C102.464 43.4839 102.306 42.969 102.318 42.4582C102.145 41.8324 101.999 41.2027 101.852 40.5729C101.785 40.2996 101.714 39.9986 101.643 39.6976L100.146 33.5466C99.7151 33.0986 99.4304 32.4885 99.3952 31.843C99.3758 31.3085 99.5068 30.8375 99.7249 30.3825C99.6181 30.2279 99.539 30.0694 99.5391 29.8715C99.5195 29.5349 99.6703 29.2025 99.9278 29.0247C100.078 28.8903 100.233 28.7836 100.387 28.6769C100.348 28.5976 100.332 28.4867 100.316 28.3759C100.297 28.0393 100.447 27.7069 100.705 27.5291C102.524 26.1972 104.544 25.2893 106.465 24.4802C106.675 24.3657 106.889 24.2789 107.079 24.2237L107.107 24.2198L107.376 24.1251C108.426 23.7504 109.476 23.3757 110.601 23.1318C110.874 23.0648 111.151 23.0256 111.428 22.9864L111.547 23.4221C111.84 23.2958 112.133 23.1695 112.426 23.0432L112.771 22.8813L112.973 22.9093C113.199 22.9056 113.428 22.9297 113.63 22.9577C113.832 22.9857 114.006 23.0176 114.185 23.0772L114.303 23.117L114.422 23.1568C114.608 23.2718 114.794 23.3869 114.953 23.5059L115.143 23.6487L115.253 23.831C115.609 24.5442 115.795 25.2532 115.751 25.9381L115.743 26.4765L115.267 26.7135C115.16 26.7569 115.053 26.8003 114.946 26.8437C114.97 27.01 114.994 27.1763 114.99 27.3466C115.318 27.4698 115.686 27.6722 115.999 28.0804C116.066 28.1558 116.106 28.235 116.177 28.3381C116.181 28.3658 116.216 28.4173 116.248 28.4411C116.62 28.6712 116.897 29.028 117.075 29.4835C117.36 30.2917 117.074 31.2653 116.392 31.8424C116.396 31.8701 116.396 31.8701 116.372 31.9018C117.454 31.9468 118.914 32.6734 119.601 35.9131ZM101.227 28.2187C101.18 28.282 101.192 28.3652 101.251 28.385C101.821 28.0216 102.396 27.6858 103.006 27.4015C104.745 26.5051 106.571 25.8226 108.397 25.1401C109.443 24.7377 110.513 24.3036 111.554 23.8735C111.305 23.9088 111.055 23.9441 110.81 24.0071C109.63 24.2589 108.524 24.6414 107.419 25.024C107.205 25.1108 107.019 25.1937 106.805 25.2805C104.884 26.0896 102.919 26.9896 101.227 28.2187ZM118.384 37.3012C118.682 37.0047 118.848 36.5852 118.75 36.0901C118.414 34.5257 117.541 32.1607 115.469 32.9063C115.176 33.0326 114.918 33.2104 114.625 33.3367C114.28 33.4985 113.936 33.6604 113.591 33.8223C112.957 34.1382 112.327 34.4818 111.697 34.8254C111.301 35.0228 110.909 35.248 110.517 35.4731C109.756 35.8918 109.023 36.3065 108.29 36.7213C107.716 37.057 107.141 37.3928 106.571 37.7563C106.547 37.7879 106.519 37.7919 106.496 37.8235C106.488 37.7681 106.484 37.7403 106.48 37.7126C106.338 37.1106 106.2 36.5363 106.057 35.9343C106.778 35.4364 107.472 34.9424 108.229 34.496C109.453 33.7573 110.697 33.1571 111.976 32.6085C112.618 32.3481 113.291 32.1114 113.941 31.9064C114.559 31.6776 115.173 31.619 115.716 31.2595C116.179 30.9394 116.425 30.2825 116.239 29.7714C116.144 29.5021 115.939 29.2484 115.669 29.1451C115.642 29.149 115.642 29.149 115.61 29.1252C115.567 29.0182 115.495 28.9152 115.424 28.8122C115.389 28.7606 115.349 28.6814 115.282 28.6061C114.799 27.9957 114.13 28.0621 113.441 28.1878C113.112 28.2626 112.811 28.3335 112.486 28.436C112.379 28.4794 112.244 28.5267 112.137 28.5701C111.286 28.9451 110.406 29.324 109.551 29.6713C108.053 30.477 106.623 31.358 105.165 32.2429C105.145 32.1043 104.837 31.1298 104.77 30.8565C104.77 30.8565 104.794 30.8249 104.817 30.7933C105.626 30.3113 106.465 29.8532 107.309 29.4227C107.595 29.241 110.221 28.0211 111.58 27.433C111.635 27.4252 111.687 27.3896 111.738 27.354C112.352 27.0975 112.962 26.8133 113.545 26.5329C113.996 26.3277 114.448 26.1224 114.872 25.921C114.904 25.3509 114.738 24.7805 114.461 24.2258C114.307 24.1346 114.121 24.0195 113.966 23.9282C113.82 23.8924 113.673 23.8565 113.499 23.8246C113.325 23.7927 113.127 23.7925 112.929 23.7922C111.542 24.3842 110.156 24.9762 108.734 25.5167C106.904 26.1715 105.078 26.854 103.338 27.7504C102.784 28.0268 102.205 28.3349 101.659 28.6667C101.643 28.7538 101.599 28.8448 101.579 28.9042C101.238 29.2917 101.048 29.7428 101.071 30.3051C101.083 30.7842 101.324 31.2874 101.708 31.6007L102.49 34.7139C102.759 35.807 103.027 36.9002 103.296 37.9934C103.517 38.9518 103.714 39.942 104.014 40.861C103.867 41.617 104.457 42.382 105.189 42.5611C105.181 42.7037 105.197 42.8146 105.272 42.9453C105.561 43.3852 106.064 43.3423 106.496 43.1964C106.607 43.1807 106.769 43.1295 106.769 43.1295C106.745 43.1611 108.259 42.4663 108.56 42.1975L108.584 42.1659C108.869 41.9841 109.158 41.8301 109.443 41.6483C109.495 41.6128 109.574 41.5733 109.626 41.5377C109.626 41.5377 109.626 41.5377 109.653 41.5338C110.513 41.0163 111.408 40.5503 112.304 40.0843C114.174 39.1128 116.15 38.2959 118.147 37.6176C118.309 37.5664 118.376 37.4437 118.384 37.3012Z" fill="white"/>
<path d="M20.206 37.8123C20.206 37.8123 19.1402 36.9256 18.6732 36.3266C15.4324 32.1703 11.4686 26.279 12.5772 20.7078C12.8113 19.5309 10.594 22.1145 9.82199 23.0342C8.26246 24.8919 6.65918 26.7189 5.16344 28.6287C4.98553 28.8558 3.75806 30.4546 5.00945 29.1963C5.85781 28.3433 10.6663 21.4171 11.5427 21.4874C15.0544 21.7691 16.8203 28.0247 20.2061 29.2848" stroke="#FB471F" stroke-width="2" stroke-linecap="round"/>
<path d="M102.25 23C103.281 22.375 106.312 19.1562 106.844 18C106.844 18 107.657 16.9407 108.276 11.6334C108.563 9.16379 108.313 7.18878 107.906 4.73373C107.543 2.53875 108.578 4.15201 109.393 5.03984C110.47 6.21392 111.901 9.99732 113.219 10.74C113.223 10.7419 111.414 4.93033 111.005 4.26573C109.989 2.61289 110.803 0.895421 108.834 1.90878C106 3.36686 106.378 7.54666 104.221 9.84054" stroke="#FB471F" stroke-width="2" stroke-linecap="round"/>
<path d="M67.3981 26.168C64.8636 25.3043 62.2513 22.7784 60.5207 20.7935C57.6283 17.476 56.6895 13.0434 55.8605 8.8045C55.4748 6.83202 55.5494 5.22191 55.7173 3.21404C55.8674 1.41887 55.1453 2.79047 54.5529 3.56193C53.7696 4.58212 53.1854 4.92709 52.183 5.61569C52.1805 5.61743 52.9373 3.61081 53.2204 3.04699C53.9245 1.6448 54.1174 1.0795 55.7495 1.76316C58.0978 2.74686 59.9757 5.04504 61.8386 6.74883" stroke="#FB471F" stroke-width="2" stroke-linecap="round"/>
</svg>
