<svg width="238" height="155" viewBox="0 0 238 155" fill="none" xmlns="http://www.w3.org/2000/svg">
<path d="M75.6533 138.703C75.0126 139.351 73.5608 139.235 75.1711 138.721C76.7803 138.207 80.3734 137.467 81.5632 137.199C94.6706 134.253 107.721 131.167 120.705 127.734C137.291 123.35 149.133 119.985 165.572 114.991C171.785 113.103 177.982 111.167 184.146 109.144C187.685 107.982 191.204 106.764 194.674 105.439C195.977 104.942 197.434 104.556 198.443 103.683C199.792 102.515 194.681 103.807 192.861 104.254C183.014 106.674 173.469 110.474 164.116 114.125C159.461 115.943 150.985 119.317 145.962 121.631C145.152 122.004 142.741 122.874 143.632 122.905C145.233 122.96 146.786 122.157 148.343 121.713C152.357 120.569 156.348 119.354 160.339 118.142C169.348 115.404 186.124 110.202 195.198 107.293C197.777 106.466 200.403 105.738 202.898 104.72C209.012 102.227 190.167 108.517 183.883 110.63C160.414 118.522 137.657 127.658 114.99 137.243" stroke="#FB471F" stroke-width="2" stroke-linecap="round"/>
<path d="M57.2763 110.53C59.1111 113.435 56.8096 117.09 56.8096 117.09C56.8851 117.669 56.7948 118.198 56.5847 118.663C56.4517 120.208 59.9898 128.064 57.7885 131.388C57.6465 131.582 57.414 135.112 54.7954 135.905C52.4984 136.601 51.058 134.83 50.3626 133.035C49.0971 129.857 47.6209 125.489 46.5712 122.196C46.02 122.363 45.5146 122.516 44.9773 122.729C45.6227 124.69 47.4949 130.693 46.4487 132.865C46.2887 133.165 46.1148 133.418 45.8949 133.685C45.8924 134.338 45.798 135.018 45.5239 135.603C42.9237 140.753 37.9472 136.091 37.6921 135.416C36.626 132.73 35.5401 129.648 34.6257 126.966C31.734 127.19 29.571 125.187 31.3154 121.349L31.9703 119.044C31.9703 119.044 28.8744 110.001 28.5161 108.655C28.2971 107.769 28.7911 106.917 29.6779 106.698C29.3015 105.458 29.2549 103.817 31.09 103.914C31.492 103.09 32.2534 102.458 33.1722 102.18C34.4585 101.791 36.0877 102.2 36.9834 103.333C39.135 104.638 38.8175 104.583 40.0092 107.683C40.5472 109.125 41.1131 110.659 41.7347 112.376C42.304 112.104 42.8873 111.877 43.4706 111.65L42.7235 109.519C41.9181 107.857 40.7379 105.456 42.515 103.213C42.4937 102.317 42.7481 101.337 43.5177 100.402C45.1668 98.3982 48.0988 97.8114 50.1142 99.6587C51.9081 101.272 53.262 106.228 53.9688 108.723C55.3208 108.714 56.5045 109.309 57.2763 110.53ZM56.175 114.173C56.9471 112.585 56.0384 110.253 54.0655 110.198C53.6241 110.231 53.2148 110.205 52.8333 110.27C52.7357 109.948 52.6382 109.627 52.5266 109.26C52.238 108.143 51.9034 107.041 51.5368 105.998C51.495 105.861 51.4991 105.709 51.4113 105.585C50.8315 104.005 50.4019 101.929 49.0968 100.769C47.704 99.4856 45.7606 100.024 44.6612 101.36C43.4198 102.889 44.2531 104.643 45.0167 106.167C45.6802 108.022 46.4035 109.91 47.067 111.765C46.5756 111.964 46.1441 112.195 45.6526 112.394C44.0865 113.018 42.5205 113.643 40.9822 114.36C40.9363 114.373 40.8904 114.387 40.8904 114.387C40.1252 112.362 39.3461 110.291 38.567 108.22C38.298 107.499 38.029 106.778 37.76 106.057C37.5886 105.658 37.1399 104.841 36.6247 104.796C36.4131 104.76 36.2613 104.755 36.0776 104.811C36.0776 104.811 36.0636 104.765 36.0497 104.719C35.6831 103.677 34.3115 103.29 33.3886 103.719C32.4197 104.163 31.9315 105.364 32.39 106.379C33.9089 109.731 35.0882 113.285 36.2076 116.808C36.1616 116.822 36.1157 116.836 36.1157 116.836C36.0698 116.85 36.0517 116.956 36.0197 117.015C35.3661 115.358 34.6386 113.622 33.939 111.978C33.0262 109.797 32.1913 107.542 31.0627 105.477C31.0349 105.385 30.897 105.427 30.9249 105.519C31.4883 107.705 32.3412 109.854 33.0424 111.999C33.7058 113.854 34.3234 115.724 34.927 117.547C34.3075 117.985 33.8218 118.533 33.6356 119.242C33.4296 119.555 33.2376 119.914 33.1375 120.245C32.495 122.095 34.6745 123.491 36.0413 122.375C36.1652 122.287 36.3211 122.14 36.4449 122.052C37.6144 125.409 38.7059 128.84 40.0132 132.156C40.1108 132.477 40.4881 132.564 40.7638 132.48C40.9254 132.682 41.087 132.884 41.2945 133.072C42.6553 134.415 44.2993 133.717 45.0854 132.175C45.4554 131.411 45.2726 130.313 45.1275 129.504C45.0619 129.123 44.9364 128.709 44.8709 128.328C44.8569 128.282 44.843 128.236 44.829 128.19C44.6586 126.637 44.1386 125.089 43.6786 123.574C43.2743 122.242 42.824 120.923 42.3738 119.605C44.0917 118.985 45.8694 118.397 47.6152 117.868C47.9367 117.771 48.2124 117.687 48.534 117.59C48.7013 118.141 48.8825 118.738 49.0498 119.289C49.5796 121.035 50.1692 122.812 50.7908 124.53C51.3805 126.307 52.0021 128.025 52.6837 129.774C52.9108 130.357 53.2397 131.11 53.7926 131.444C54.4931 131.935 55.4037 131.96 56.0773 131.204C56.2651 130.997 56.4391 130.744 56.5211 130.518C56.5671 130.504 56.5671 130.504 56.5531 130.458C57.3506 129.615 57.0604 127.998 56.8915 126.945C56.6947 125.801 56.452 124.671 56.1954 123.495C55.6501 121.203 55.0908 118.865 54.4996 116.586C55.5521 116.418 56.4136 115.455 56.2168 114.311C56.2029 114.265 56.1889 114.219 56.175 114.173ZM43.6094 117.727C45.0976 117.176 46.6276 116.763 48.1576 116.35C48.1854 116.442 48.1994 116.488 48.2273 116.579C47.9516 116.663 47.63 116.76 47.2945 116.812C45.5488 117.34 43.785 117.974 42.0491 118.701C42.0351 118.655 42.0072 118.563 41.9933 118.517C42.0712 118.443 42.0893 118.337 42.1073 118.232C42.6127 118.079 43.1041 117.88 43.6094 117.727ZM83.6439 118.344C84.2459 119.667 84.8092 121.853 83.3423 123.3C83.4938 126.113 81.1761 127.567 78.9843 126.626C78.3855 126.306 76.6752 124.968 76.3061 124.578C74.7558 122.941 72.7119 119.347 71.288 116.97C71.6904 120.609 72.8969 122.601 71.1528 123.631C71.2082 126.623 70.4421 125.752 70.2419 126.414C70.196 126.428 70.0807 130.676 66.0528 130.792C63.7583 130.835 62.0103 129.207 61.6209 126.767C61.2692 124.617 61.0372 122.531 60.8652 120.477C59.0269 119.378 57.2362 118.767 56.7549 116.355C56.3433 114.172 57.5485 112.855 57.5846 112.643C57.7988 112.027 57.4265 110.635 59.7926 108.514C59.637 105.853 59.6962 104.23 59.9722 101.338C60.115 99.991 60.2703 98.1887 61.1121 96.8305C61.4083 95.9885 61.5185 93.0463 64.4587 92.1562C65.5154 91.8363 66.7393 92.0675 67.6654 92.6397C69.247 92.5621 70.7121 93.4225 71.4617 94.9007C72.1147 94.9036 72.6955 95.3296 72.9366 95.9587C73.7214 98.3791 74.6079 100.969 75.6922 103.55C78.7594 103.574 81.5441 107.295 79.7201 110.706C80.8348 112.725 82.6712 116.131 83.6439 118.344ZM78.7732 120.973C80.7458 123.836 83.9937 122.802 82.2755 118.959C81.1453 116.393 79.2908 113.093 77.9449 110.641C79.9058 108.343 78.2015 104.545 74.7223 105.147C73.5922 102.581 71.341 95.9904 71.4345 96.4636C71.6968 97.989 72.065 99.5326 72.4791 101.062C72.4332 101.076 72.4332 101.076 72.3733 101.044C71.6598 99.3544 70.9323 97.6187 70.2647 95.915C69.7407 94.519 68.5111 93.9384 67.1968 94.236C66.6522 93.5985 65.626 93.3575 64.8589 93.6399C62.6218 94.3673 62.5714 97.3415 62.3202 99.3234C61.9942 102.381 62.1374 105.497 62.4185 108.572C57.3863 110.998 58.8361 115.775 61.9075 115.647C61.9953 115.771 61.9912 115.923 61.9731 116.029C62.3406 115.917 62.7401 115.746 63.1397 115.575C63.2772 118.342 63.5985 121.053 64.0256 123.783C64.729 128.083 70.3772 127.025 69.5318 122.918L69.1621 120.873C69.1621 120.873 68.5768 116.136 68.4729 113.81C68.6107 113.768 68.7485 113.727 68.8864 113.685C68.8401 116.507 69.2492 119.342 69.8281 122.076C69.9355 122.595 70.7165 122.359 70.5631 121.853C69.9244 119.088 69.6351 116.317 69.4836 113.504L72.9152 112.415C73.7567 113.865 77.8167 120.961 78.7732 120.973ZM68.3841 107.568C68.3892 106.262 68.4722 104.883 68.5831 103.596C69.0694 104.702 69.6017 105.795 70.1201 106.842C69.5368 107.069 68.9535 107.295 68.3841 107.568ZM103.363 91.0598C105.946 90.4785 108.429 91.8832 109.196 94.4094C109.642 95.8792 109.325 97.4797 108.455 98.746C108.414 100.263 107.646 101.699 106.467 102.608C107.067 104.583 107.772 106.576 108.523 108.555C108.723 109.047 108.678 109.561 108.468 110.026C108.881 111.055 109.289 112.235 109.128 113.688C109.034 114.369 108.728 115.013 108.214 115.469C108.252 115.759 108.244 116.062 108.203 116.426C108.051 117.575 107.313 118.45 106.256 118.77C106.027 118.84 105.843 118.896 105.599 118.919L103.621 118.515C102.321 117.705 101.641 116.456 101.063 115.378C101.007 115.194 100.906 115.024 100.818 114.9C100.716 114.73 100.615 114.561 100.559 114.377C100.436 114.966 100.029 115.44 99.5192 115.745C99.5471 115.837 99.575 115.928 99.6029 116.02C99.9375 117.123 99.2975 118.319 98.1949 118.653C98.0571 118.695 97.9053 118.691 97.8134 118.719C97.4098 119.041 96.9323 119.286 96.427 119.439C95.1407 119.829 93.8888 119.506 93.0169 118.616C92.8693 118.46 92.7815 118.336 92.6339 118.18C92.51 118.268 92.3861 118.356 92.2622 118.443C92.2901 118.535 92.318 118.627 92.3459 118.719C92.5132 119.27 92.4827 119.831 92.2267 120.31C91.9707 120.788 91.5212 121.125 90.9699 121.292C90.9239 121.306 90.8321 121.334 90.7861 121.348C90.5203 121.629 90.1347 121.846 89.7672 121.957C88.5268 122.333 87.2652 121.812 86.6869 120.733C85.7117 119.173 84.7685 117.553 83.9311 115.951C83.6637 115.731 83.4282 115.451 83.2708 115.097C82.5031 113.725 81.883 112.508 81.3229 111.324C80.5682 111.151 79.9275 110.693 79.5346 110.06C79.4928 109.922 79.419 109.844 79.3772 109.706L79.2511 107.638C79.3331 107.413 79.4152 107.187 79.5571 106.994L79.4053 106.99L79.4874 106.764C79.2463 106.135 79.0511 105.492 78.8559 104.849C77.8981 101.528 76.9248 97.66 76.7562 93.7993C76.6431 92.9308 76.9295 91.8912 77.681 91.0618C77.4925 89.6144 78.3926 87.7871 80.5058 87.1473C80.8274 87.05 81.1629 86.9985 81.4665 87.0069C82.8045 86.9529 84.016 87.6393 84.746 88.7222C85.1734 88.643 85.5967 88.7154 85.9699 88.9535C86.1635 89.0955 86.3112 89.2514 86.4268 89.4671C86.4031 89.2236 86.3932 89.0259 86.3834 88.8283C86.3524 87.7344 87.0301 86.8271 88.0407 86.5211C88.2704 86.4515 88.56 86.414 88.8176 86.4363C89.0194 86.2749 89.2811 86.1455 89.5568 86.0621C89.7865 85.9925 90.0761 85.955 90.3337 85.9773C91.2164 85.9107 92.0867 86.2992 92.6313 86.9367C92.7866 85.1344 94.1058 83.5313 95.9894 82.9611C96.3569 82.8498 96.7843 82.7705 97.1798 82.7511C99.1707 82.7 100.959 83.9641 101.724 85.9892C101.822 86.3108 101.919 86.6323 101.957 86.9218L102.017 86.9538C102.436 87.1779 102.727 87.6415 102.775 88.1286C102.962 89.075 103.149 90.0215 103.363 91.0598ZM105.651 99.0935C107.323 98.487 108.228 96.508 107.726 94.8545C107.029 92.558 104.511 91.8658 102.569 92.9051C102.491 92.9788 102.353 93.0206 102.275 93.0943C101.893 91.5048 101.571 89.9474 101.295 88.376C101.257 88.0865 100.784 88.1797 100.867 88.4553C101.066 90.1004 101.37 91.7636 101.72 93.4129C101.674 93.4268 101.38 93.616 101.334 93.63C101.092 92.4998 100.987 91.3279 100.79 90.1838C100.752 89.8943 100.624 88.4789 100.576 87.9918C100.529 87.5046 100.467 86.9716 100.282 86.5262C99.7718 85.1761 98.6882 84.2503 97.1985 84.3002C95.557 84.3458 93.9981 85.8208 94.1506 87.4798C94.2653 88.8493 94.8714 90.0199 95.2478 91.26C95.5643 92.4681 95.9268 93.6623 96.3213 94.7967C96.4607 95.256 96.6001 95.7153 96.7395 96.1746C95.7846 96.6643 94.8296 97.1541 93.8747 97.6438C93.1063 94.6165 92.5218 91.5337 91.7994 88.4925C91.6641 87.8815 90.9775 87.4374 90.3844 87.4665C89.8831 87.4678 89.5115 87.7308 89.2596 88.0578C88.7067 87.7237 87.8798 87.974 87.9191 88.7646C88.0459 92.4876 88.8576 96.1536 89.8072 99.778C88.8982 100.254 88.0491 100.762 87.1861 101.224C86.3423 97.6173 85.6823 93.9554 85.1741 90.2978C85.1782 90.1461 84.9346 90.1697 84.9764 90.3075C85.1909 94.1544 85.6351 97.9317 86.3829 101.717C86.291 101.745 86.1991 101.773 86.1671 101.833C86.0417 101.42 85.9301 101.052 85.8047 100.639C84.9067 97.3498 84.4502 94.0276 83.9296 90.825C83.7369 89.5293 82.915 88.4741 81.5172 88.4961C80.331 88.5544 79.0101 89.6564 79.2027 90.9522C79.3476 94.5694 80.2512 98.2076 81.2648 101.712C81.4977 102.645 81.8224 103.55 82.1472 104.454C81.9273 104.721 81.7214 105.035 81.5893 105.426C81.6352 105.412 81.6352 105.412 81.6352 105.412C81.4489 106.12 81.6998 106.947 82.6522 107.11C82.8778 107.192 83.0755 107.182 83.2872 107.218C83.9909 108.711 84.7405 110.189 85.5361 111.653C85.6657 111.915 85.8273 112.117 86.0209 112.259C86.9321 113.939 87.8893 115.605 88.9383 117.243C89.309 118.134 90.743 117.9 90.9933 117.072C91.3665 117.31 91.9818 117.024 91.8006 116.427C90.709 112.996 89.4797 109.607 88.4661 106.102C89.371 105.778 90.3079 105.394 91.2447 105.01C91.5793 106.112 91.9459 107.155 92.2666 108.211C92.6331 109.254 93.0137 110.342 93.3802 111.385C93.8165 112.657 94.1331 113.865 95.0329 114.846C95.9188 115.782 97.4487 115.369 98.1125 114.415C98.1724 114.447 98.2782 114.465 98.384 114.484C98.8073 114.556 99.197 114.187 99.0576 113.728C97.9981 110.237 96.6629 106.83 95.5115 103.367C96.6321 102.927 97.7667 102.534 98.8874 102.094C99.6985 104.105 100.569 106.149 101.459 108.086C101.959 109.239 102.445 110.345 103.069 111.41C103.707 112.521 104.25 113.811 105.355 114.479L105.387 114.42C106.24 114.914 107.476 114.69 107.615 113.494C107.785 112.239 107.267 111.192 106.859 110.012C106.817 109.874 106.775 109.736 106.733 109.599C106.977 109.575 107.225 109.4 107.127 109.078C106.051 106.194 105.081 103.328 104.189 100.389C104.51 100.292 104.878 100.18 105.199 100.083C105.705 99.9299 105.809 99.447 105.651 99.0935ZM88.257 105.413C88.2431 105.367 88.1873 105.183 88.1594 105.091C89.0963 104.707 90.0192 104.278 90.9561 103.894C90.97 103.94 90.9659 104.091 90.9799 104.137C90.0569 104.567 89.1799 104.983 88.257 105.413ZM114.93 83.4455C115.337 84.1248 115.638 84.7859 115.939 85.4471C117.063 87.6644 118.678 90.8365 119.848 93.0399C119.489 92.8478 119.345 92.5402 119.022 92.1365C118.994 92.0446 118.921 91.9667 118.861 91.9347C117.399 89.2678 115.92 86.7066 114.38 84.1135C114.398 84.0077 114.384 83.9618 114.37 83.9159C114.586 83.8004 114.788 83.639 114.93 83.4455ZM127.667 94.8354C127.454 91.4895 127.347 88.1618 127.437 84.8244C127.627 85.1181 127.77 85.4257 127.946 85.6735C127.843 89.466 127.892 93.2627 128.124 97.0038L128.078 97.0178C128.032 97.0317 127.987 97.0456 127.927 97.0135C127.855 96.2829 127.784 95.5522 127.667 94.8354ZM143.262 98.2885C144.003 100.07 144.202 101.715 143.843 103.178C143.721 103.767 143.433 104.305 143.071 104.766C143.045 105.175 143.004 105.538 142.918 105.915C142.56 107.378 141.432 108.622 140.1 109.025C139.365 109.248 138.56 109.241 137.856 108.902C136.2 108.902 134.665 107.812 134.178 106.205C134.006 105.805 133.881 105.392 133.755 104.978C132.767 102.218 131.507 99.39 129.81 96.4433C129.948 99.2101 130.131 101.963 130.407 104.688C130.416 104.886 130.38 105.097 130.33 105.263C130.396 105.644 130.401 105.994 130.407 106.343C130.378 107.405 130.082 108.247 129.473 108.883C129.487 108.929 129.468 109.035 129.482 109.08C129.459 110.492 128.961 111.495 127.942 112.104C127.727 112.22 127.543 112.276 127.359 112.331C127.129 112.401 126.886 112.424 126.642 112.448C126.458 112.504 126.261 112.513 126.049 112.477C125.438 112.612 124.849 112.489 124.374 112.082C123.825 111.596 123.414 111.068 123.109 110.559C122.967 110.752 122.825 110.946 122.637 111.153C122.668 112.247 122.396 113.332 121.323 114.259C121.089 114.48 120.795 114.67 120.474 114.767C120.06 114.892 119.697 114.852 119.319 114.765C118.492 115.016 117.674 114.963 116.955 114.578C115.532 113.856 114.874 112.35 114.388 111.243C114.3 111.119 114.272 111.027 114.23 110.89C113.082 108.429 112.058 105.88 111.148 103.046C110.966 102.449 110.785 101.852 110.558 101.269C109.871 99.1701 109.169 97.0253 108.514 94.8665C108.375 94.4072 108.235 93.9479 108.082 93.4427C107.353 91.206 106.61 88.9233 106.34 86.5475C106.255 85.7709 106.685 85.0389 107.392 84.7245C107.309 84.4489 107.257 84.1135 107.265 83.8101C107.152 82.9416 107.674 82.1818 108.547 81.9176C108.593 81.9037 108.593 81.9037 108.639 81.8897C108.775 81.347 109.031 80.8683 109.421 80.4995C109.984 79.8775 110.65 79.4253 111.431 79.1889C111.798 79.0776 112.225 78.9983 112.681 79.011C113.747 78.8887 114.861 79.2535 115.677 79.9593L117.02 81.4084C117.122 81.5782 117.237 81.794 117.353 82.0097C117.696 82.8086 118.085 83.5937 118.501 84.4706C118.617 84.6863 118.747 84.948 118.876 85.2097C119.769 86.9955 120.649 88.7353 121.514 90.4293C121.303 87.5845 121.123 84.6798 120.668 81.8586C120.527 80.8983 120.993 79.9548 121.617 79.3648C121.635 79.259 121.621 79.2131 121.593 79.1212C121.428 77.9173 122.174 76.7386 123.069 76.2169C123.409 76.0137 123.808 75.8426 124.222 75.7175C124.589 75.6062 124.971 75.5408 125.366 75.5214C125.692 75.2724 126.077 75.0553 126.491 74.9301C127.318 74.6798 128.196 74.7648 128.929 75.195C130.799 76.2337 132.349 77.8707 133.686 80.1242C134.818 82.0381 135.859 83.9798 136.882 86.0273C137.183 86.6884 137.544 87.3816 137.96 88.2585C138.307 88.9057 138.64 89.507 138.987 90.1543C139.45 91.0172 139.898 91.8343 140.361 92.6973C140.68 93.2526 140.953 93.8219 141.272 94.3773C141.402 94.639 141.545 94.9466 141.721 95.1944C142.271 96.1812 142.836 97.214 143.262 98.2885ZM142.38 102.819C142.674 101.476 142.362 100.116 141.88 98.8575C141.338 97.5672 140.612 96.3326 139.932 95.0841C139.15 93.6657 138.428 92.2794 137.693 90.8471C137.36 90.2458 137.013 89.5986 136.62 88.9652C136.291 88.2122 135.902 87.4272 135.527 86.6881C134.532 84.7325 133.538 82.7769 132.405 80.863C131.374 79.1189 130.035 77.5181 128.179 76.5254C127.446 76.0952 126.436 76.4012 125.946 77.1012C125.297 76.9466 124.58 77.0634 123.869 77.5295C123.391 77.7743 123.025 78.3866 123.073 78.8738C123.734 83.0366 123.923 87.2927 124.249 91.507C124.432 94.26 124.662 96.999 124.845 99.752C122.38 95.4328 119.739 90.3649 117.522 85.8705C116.989 84.7779 116.411 83.6991 115.985 82.6246C115.799 82.1792 115.476 81.7755 115.103 81.5375C114.53 80.8081 113.66 80.4196 112.731 80.5002C111.927 80.493 111.128 80.8353 110.532 81.5171C110.078 82.0055 109.988 82.5344 110.127 82.9937C109.979 83.9916 110.332 84.9881 110.656 85.8928C110.991 86.9952 111.357 88.0377 111.692 89.14L112.013 90.1964C111.921 90.2243 111.568 89.2277 111.476 89.2555C110.831 87.2944 110.144 85.1955 109.31 83.4417C109.195 83.2259 108.735 83.365 108.759 83.6086C109.048 86.3797 110.069 89.0799 110.909 91.684C111.732 94.3939 112.614 97.1359 113.529 99.818C114.383 102.468 115.347 104.985 116.524 107.537C116.996 108.598 117.506 109.948 118.584 110.524C119.123 110.813 119.794 110.71 120.289 110.359C120.363 110.437 120.423 110.469 120.483 110.501C120.737 110.675 121.058 110.578 121.292 110.357C122.567 109.268 121.913 107.611 121.463 106.293C120.2 102.462 118.835 98.462 117.481 94.6595C117.698 95.045 117.947 95.3708 118.197 95.6965C119.024 97.1009 119.912 98.5374 120.785 99.9279L124.894 106.357C125.3 107.037 125.693 107.67 126.302 108.188C126.45 108.344 126.647 108.334 126.757 108.2C126.983 108.282 127.227 108.259 127.456 108.189C127.622 108.239 127.852 108.17 128.067 108.054C128.747 107.648 128.869 107.059 128.904 106.347C128.902 105.846 128.854 105.359 128.807 104.872C128.803 105.023 129 105.014 128.991 104.816C128.773 102.776 128.551 99.7332 128.382 97.0262C128.244 94.2593 128.18 89.9156 128.307 86.3666C129.306 88.1705 130.305 89.9745 131.35 91.7645C133.573 95.4545 135.194 98.9759 136.513 102.99C136.847 104.092 137.953 104.761 139.079 104.67C140.576 105.471 142.053 104.221 142.38 102.819ZM159.197 90.5554C159.211 90.6013 159.224 90.6473 159.238 90.6932C159.545 91.7037 159.912 92.7462 160.232 93.8026C160.246 93.8485 160.274 93.9404 160.288 93.9863C160.429 94.9467 160.432 95.9487 160.941 96.7978C160.526 96.4219 160.179 95.7747 160.099 95.3474C159.866 94.4149 159.647 93.5283 159.461 92.5819C159.311 91.9249 159.148 91.222 158.999 90.5651C159.045 90.5512 159.105 90.5832 159.197 90.5554ZM159.175 67.8432L159.416 68.4723C160.108 70.4195 160.661 72.4085 161.201 74.3515L161.284 74.6271C161.489 75.4677 161.754 76.3404 161.973 77.227C162.61 79.4915 163.216 81.8159 163.867 84.1263C165.063 88.7291 166.041 92.4453 166.874 95.8539L166.968 96.3271L166.804 96.778C166.622 97.3347 166.274 97.8412 165.852 98.2698C165.88 98.3617 165.922 98.4995 165.95 98.5913L166.043 99.0646L165.879 99.5155C165.583 100.357 165.033 101.025 164.276 101.505C163.95 101.754 163.597 101.912 163.183 102.037C162.126 102.357 161.022 102.19 160.096 101.617C158.988 101.602 158.034 100.938 157.442 99.8131C156.993 98.996 156.76 98.0635 156.569 97.2688C156.531 96.9793 156.462 96.7496 156.392 96.52C156.089 95.3578 155.801 94.2415 155.498 93.0794C155.289 92.3904 155.126 91.6875 154.903 90.9526C154.903 90.9526 154.54 89.7584 154.457 89.4828C154.457 89.4828 154.122 88.3805 153.885 87.5997C153.763 88.1884 153.677 88.5655 153.677 88.5655C153.677 88.5655 151.981 96.2004 151.927 96.5177C151.961 96.9589 151.994 97.4001 152.088 97.8733L152.07 97.9791C152.202 99.2429 152.397 101.04 151.251 102.389C151.19 103.511 150.946 104.689 149.873 105.615C149.625 105.791 149.299 106.04 148.84 106.179C148.564 106.262 148.321 106.286 148.017 106.277C146.887 106.519 145.635 106.196 144.519 105.33L144.118 105L144.011 104.481C142.896 99.653 141.474 93.3133 140.616 86.8526C140.283 84.5964 139.939 82.1427 139.779 79.6333C139.585 77.8365 139.391 76.0397 139.183 74.197C139.102 73.2686 139.642 72.4031 140.5 72.0929L140.505 71.9412L140.775 71.5084C140.884 71.3748 140.994 71.2412 141.104 71.1076C141.622 70.4995 142.333 70.0334 143.068 69.8109C144.125 69.491 145.229 69.6582 145.999 70.3779C146.451 70.5422 146.884 70.8123 147.253 71.202C148.378 72.2656 148.373 73.571 148.408 74.5133C148.404 74.665 148.4 74.8167 148.382 74.9224C148.407 75.667 148.465 76.3518 148.522 77.0366C148.859 75.8313 149.209 74.6721 149.633 73.5908C149.665 73.5309 149.683 73.4251 149.779 73.2456C150.03 72.4176 150.248 71.6494 150.558 70.8533C150.772 70.2368 152.109 66.8732 154.452 66.1638C155.371 65.8856 156.383 66.0807 157.217 66.6807C157.485 66.9006 157.706 67.1345 157.941 67.4143C158.107 67.4644 158.319 67.5007 158.544 67.5828L159.175 67.8432ZM145.583 101.397C145.065 99.197 144.58 96.9366 144.14 94.6624C143.323 90.647 142.657 86.6358 142.083 82.5968C141.82 80.5704 141.602 78.53 141.397 76.5356C141.34 75.8508 141.423 74.4716 140.952 73.912C140.731 73.6781 140.014 73.7949 140.047 74.2361C140.851 82.669 142.322 91.1506 144.79 99.2804C144.869 99.7077 144.935 100.089 145 100.47C145.172 100.87 145.361 101.164 145.449 101.287C145.523 101.365 145.611 101.489 145.583 101.397ZM159.8 75.0262C159.233 72.9913 158.711 70.9426 157.974 69.0093C157.735 68.8812 157.417 68.8268 157.114 68.8184C157.068 68.8323 157.022 68.8462 156.976 68.8602C156.864 68.4927 156.661 68.1531 156.288 67.915C154.292 66.463 152.496 69.9658 151.971 71.3783C151.037 73.9181 150.42 76.5122 149.862 79.1384C149.6 80.4215 148.218 87.1087 148.34 87.6738C148.195 86.8651 148.049 86.0565 147.95 85.2339C147.752 83.5888 147.54 81.8978 147.341 80.2527C147.161 78.5018 146.935 76.7649 146.892 74.9723C146.857 74.03 147.006 73.0322 146.222 72.2665C145.94 72.0007 145.567 71.7626 145.19 71.6762C145.176 71.6303 145.13 71.6442 145.116 71.5983C144.258 70.7547 142.907 71.2638 142.294 72.0515C142.216 72.1252 142.106 72.2588 142.042 72.3785C142.123 73.3068 142.112 74.2629 142.147 75.2052C142.221 78.0917 142.612 81.0326 143.035 83.9136C143.817 89.7954 145.04 95.6438 146.387 101.405C147.102 101.941 148.004 102.269 148.877 102.005C149.209 102.105 149.562 101.948 149.796 101.727C150.869 100.8 150.713 99.2927 150.58 98.0289C150.504 97.4499 150.443 96.9169 150.427 96.3699C150.536 95.7353 150.69 95.0868 150.844 94.4382C151.678 90.5748 153.707 80.7327 154.039 79.6792C154.217 79.2742 154.336 78.8372 154.468 78.4462C155.44 81.813 156.549 85.1382 157.489 88.5649C157.931 90.1863 158.359 91.7619 158.801 93.3834C159.048 94.3618 159.185 95.4739 159.693 96.323C160.026 96.9243 160.483 97.4379 161.214 97.3671C161.32 97.3852 161.366 97.3713 161.458 97.3435C162.288 98.0952 163.456 98.1427 164.369 97.5152C164.878 97.2105 165.194 96.7638 165.39 96.2531C164.449 92.3253 163.416 88.4254 162.383 84.5255C161.572 81.3605 160.656 78.1773 159.8 75.0262ZM189.214 56.7426C189.703 57.1964 190.082 57.7838 190.231 58.4408C190.45 59.3274 190.274 60.2334 189.83 60.9194C190.007 61.6682 190.135 63.0837 189.146 64.286C189.114 64.3458 189.082 64.4057 189.004 64.4794C189.029 65.224 188.913 66.162 188.221 67.0234C188.047 67.2767 187.813 67.4979 187.474 67.701C187.332 67.8945 187.084 68.0698 186.868 68.1853C185.62 68.8642 184.265 69.525 182.879 70.2457C183.158 71.1643 183.45 72.1289 183.729 73.0475C183.98 73.8743 184.231 74.701 184.482 75.5278C185.067 77.4569 185.727 79.4639 186.28 81.4528C186.763 82.7111 187.338 84.4426 187.96 86.1601L187.988 86.252L187.97 86.3577C188.189 87.2443 188.563 89.1372 187.519 90.6568L187.267 90.9838C187.26 91.7883 187.116 92.6344 186.594 93.3942L184.718 94.8149C184.378 95.018 183.993 95.2351 183.625 95.3463C183.258 95.4576 182.922 95.509 182.619 95.5006C179.11 95.5097 177.825 91.9368 177.37 90.7704C176.424 88.1481 175.735 85.5482 175.228 83.5454C174.953 82.475 174.678 81.4047 174.404 80.3344C174.105 79.0205 173.747 77.6746 173.434 76.3148L172.881 74.3259C172.881 74.3259 172.651 74.3954 172.559 74.4232C171.305 74.7528 170.019 75.1423 168.644 75.4078C167.546 75.59 166.204 75.7957 164.938 75.4266C164.018 75.2038 163.151 74.6636 162.487 73.962C160.968 73.4189 159.883 71.9922 159.836 70.3513C159.787 69.3631 160.147 68.4015 160.775 67.6598L160.761 67.6139C160.72 66.3223 161.346 65.0796 162.277 64.3463C162.326 63.6796 162.797 63.0854 163.441 62.8907L163.487 62.8768L163.533 62.8629C166.009 62.2635 168.518 61.6043 170.999 60.8532C174.72 59.7266 178.569 58.3606 182.422 56.8429C182.946 56.5842 183.469 56.3254 183.929 56.1863L184.02 56.1585C184.19 56.0569 184.374 56.0013 184.65 55.9178C184.65 55.9178 184.65 55.9178 184.696 55.9039C185.403 55.5895 185.986 55.3628 186.569 55.136C186.601 55.0762 186.693 55.0484 186.785 55.0206C187.704 54.7424 188.708 55.2408 189.093 56.1775C189.148 56.3613 189.204 56.545 189.214 56.7426ZM188.31 60.3763C189.274 59.5832 188.79 57.8239 187.552 57.5467C187.432 57.4827 187.326 57.4646 187.22 57.4465C187.298 57.3727 187.436 57.331 187.528 57.3032C187.96 57.0722 187.585 56.3331 187.185 56.5042C186.524 56.8047 185.849 57.0593 185.188 57.3598C184.898 57.3973 184.636 57.5267 184.407 57.5963C183.961 57.7813 183.516 57.9663 183.038 58.2112C176.82 60.6957 170.43 62.7807 163.887 64.3605C163.735 64.3563 163.773 64.6458 163.911 64.6041C166.517 64.2664 169.081 63.7909 171.604 63.1776C171.618 63.2235 171.586 63.2833 171.6 63.3293C169.073 64.0943 166.536 64.6616 163.94 65.197C162.901 65.4111 162.247 66.562 162.251 67.564C162.31 68.7498 163.195 69.6853 164.268 69.9123C164.766 70.5638 165.559 71.026 166.281 71.2585C167.262 71.5134 168.314 71.3452 169.321 71.1909C170.543 70.9212 171.798 70.5915 173.038 70.216C173.635 70.0352 174.232 69.8544 174.83 69.6736C174.969 70.1329 175.122 70.6381 175.276 71.1433L175.797 73.1921C176.43 75.6083 177.017 78.0385 177.591 80.4227C178.21 82.793 178.889 85.1953 179.737 87.496C180.373 89.2595 181.428 91.2472 183.539 91.2601C184.587 91.2436 185.568 90.3447 185.583 89.2369C185.626 88.2209 185.281 86.9209 185.214 86.0385C185.326 86.406 185.646 87.4624 185.744 87.7839C185.893 88.4408 186.088 89.0839 186.238 89.7408C186.238 89.7408 186.252 89.7867 186.266 89.8327C186.897 88.9393 186.746 87.7813 186.504 86.6511C185.97 85.0575 185.39 83.4777 184.856 81.884C184.006 79.0822 183.109 76.2944 182.259 73.4926C181.646 71.4716 181.078 69.4368 180.465 67.4158C182.71 66.3849 184.882 65.2761 187.085 64.1074C187.223 64.0657 187.287 63.946 187.351 63.8264C187.567 63.7109 187.815 63.5356 187.957 63.3421C188.538 62.6144 188.471 61.732 188.266 60.8913C188.316 60.7257 188.32 60.574 188.31 60.3763ZM168.986 70.0886C167.87 70.3765 166.578 70.4166 165.634 69.9502C167.592 69.9589 169.528 69.724 171.421 69.3514C170.608 69.6477 169.781 69.8981 168.986 70.0886ZM203.079 84.5918C203.928 84.084 204.689 83.4523 205.465 82.8665C206.254 82.3266 206.983 81.7548 207.713 81.1829L207.74 81.2747C207.163 81.8508 206.585 82.4269 205.962 83.0169C205.696 83.298 205.384 83.593 205.072 83.888C205.04 83.9478 204.994 83.9617 204.949 83.9756C204.825 84.0633 203.796 84.475 203.079 84.5918ZM208.408 65.6259L208.496 65.7498C208.248 65.9251 208.046 66.0865 207.813 66.3077C205.794 67.9218 203.67 69.5177 201.768 71.3475C202.038 70.9148 202.174 70.372 202.112 69.8389C202.916 69.345 203.705 68.8052 204.54 68.2514C205.825 67.3609 207.123 66.5164 208.408 65.6259ZM224.179 69.3268C224.591 70.3554 224.485 71.491 223.941 72.5083C223.886 72.8256 223.74 73.1708 223.507 73.392C223.504 74.0447 223.336 74.6473 223.016 75.2457C222.894 75.8344 222.5 76.3549 221.944 76.6735C218.662 78.4195 215.619 80.2937 212.862 82.282C211.591 83.2184 210.242 84.2285 208.907 85.2846C208.829 85.3584 208.751 85.4321 208.66 85.46L208.504 85.6074C208.146 85.9164 207.788 86.2253 207.339 86.562C206.867 87.1562 206.275 87.6863 205.44 88.2401C205.115 88.4891 204.711 88.812 204.188 89.0707L204.064 89.1584L203.926 89.2001C203.788 89.2418 203.696 89.2697 203.544 89.2655C203.329 89.3809 203.099 89.4505 202.869 89.52C201.629 89.8956 200.483 89.5905 199.671 88.7331C199.597 88.6551 199.509 88.5312 199.421 88.4073C198.805 88.1929 198.238 87.8128 197.795 87.3451C197.13 86.6435 196.728 85.8126 196.615 84.9441C196.156 83.9294 195.744 82.9008 195.331 81.8722C195.146 81.4268 194.946 80.9355 194.747 80.4442L190.6 70.4157C189.752 69.7698 189.109 68.8107 188.881 67.7265C188.708 66.826 188.806 65.9937 189.056 65.1657C188.835 64.9318 188.659 64.6841 188.608 64.3486C188.486 63.7836 188.655 63.181 189.044 62.8122C189.264 62.545 189.498 62.3238 189.732 62.1025C189.644 61.9787 189.588 61.7949 189.533 61.6112C189.411 61.0461 189.579 60.4435 189.969 60.0748C192.701 57.3419 195.886 55.2743 198.929 53.4002C199.254 53.1511 199.594 52.948 199.902 52.8047L199.948 52.7908L200.379 52.5598C202.059 51.65 203.74 50.7401 205.581 50.032C206.027 49.847 206.486 49.7079 206.946 49.5688L207.26 50.2759C207.724 49.9851 208.188 49.6943 208.651 49.4035L209.192 49.039L209.542 49.0335C209.923 48.9681 210.319 48.9487 210.668 48.9432C211.018 48.9377 211.321 48.9461 211.639 49.0005L211.85 49.0367L212.062 49.0729C212.407 49.2191 212.753 49.3653 213.052 49.5254L213.411 49.7176L213.647 49.9973C214.437 51.1123 214.937 52.2648 215.042 53.4367L215.169 54.3511L214.426 54.877C214.256 54.9786 214.086 55.0802 213.916 55.1817C214 55.4573 214.084 55.7329 214.121 56.0224C214.71 56.145 215.387 56.3914 216.023 57.0012C216.157 57.1111 216.245 57.235 216.393 57.3909C216.407 57.4369 216.48 57.5148 216.54 57.5468C217.231 57.8392 217.794 58.371 218.214 59.0962C218.908 60.3907 218.679 62.115 217.676 63.2714C217.69 63.3173 217.69 63.3173 217.658 63.3771C219.501 63.1701 222.166 64.0182 224.179 69.3268ZM191.035 61.1063C190.971 61.226 191.012 61.3638 191.118 61.3819C191.99 60.6166 192.875 59.8972 193.834 59.2558C196.545 57.2814 199.46 55.6466 202.375 54.0118C204.041 53.056 205.739 52.0403 207.392 51.0386C206.978 51.1638 206.565 51.2889 206.165 51.4601C204.232 52.1959 202.46 53.1336 200.687 54.0714C200.348 54.2745 200.054 54.4637 199.714 54.6669C196.672 56.541 193.579 58.5807 191.035 61.1063ZM222.481 71.9973C222.907 71.417 223.079 70.6627 222.783 69.8498C221.804 67.2874 219.705 63.5098 216.39 65.3156C215.927 65.6064 215.537 65.9752 215.073 66.266C214.532 66.6305 213.99 66.995 213.449 67.3596C212.458 68.0608 211.481 68.808 210.504 69.5552C209.884 69.9935 209.279 70.4777 208.673 70.9619C207.494 71.8705 206.362 72.7652 205.229 73.6599C204.343 74.3793 203.458 75.0987 202.587 75.864C202.555 75.9238 202.509 75.9377 202.477 75.9976C202.449 75.9057 202.435 75.8598 202.421 75.8138C202.022 74.8312 201.638 73.8944 201.239 72.9118C202.33 71.8793 203.376 70.8607 204.541 69.9062C206.421 68.3339 208.371 66.9912 210.395 65.7265C211.414 65.1171 212.493 64.5397 213.54 64.0221C214.527 63.4726 215.551 63.2125 216.376 62.4611C217.078 61.7974 217.323 60.62 216.874 59.8029C216.643 59.3715 216.228 58.9956 215.744 58.8911C215.698 58.905 215.698 58.905 215.639 58.873C215.537 58.7032 215.389 58.5473 215.242 58.3914C215.168 58.3134 215.08 58.1895 214.946 58.0796C213.969 57.172 212.852 57.4598 211.717 57.8535C211.18 58.0663 210.689 58.2653 210.165 58.524C209.995 58.6256 209.78 58.7411 209.61 58.8426C208.265 59.7011 206.875 60.5735 205.516 61.386C203.19 63.1434 200.998 65.0107 198.76 66.8919C198.69 66.6623 197.913 65.0922 197.727 64.6468C197.727 64.6468 197.759 64.587 197.791 64.5271C199.034 63.4989 200.337 62.5026 201.654 61.5523C202.09 61.1696 206.219 58.4147 208.367 57.0623C208.459 57.0345 208.537 56.9608 208.615 56.887C209.588 56.2915 210.547 55.6501 211.46 55.0226C212.171 54.5565 212.883 54.0904 213.548 53.6382C213.453 52.6639 213.022 51.7411 212.408 50.8739C212.123 50.7597 211.777 50.6135 211.492 50.4994C211.234 50.477 210.977 50.4547 210.673 50.4463C210.37 50.4379 210.034 50.4893 209.698 50.5408C207.505 51.9071 205.311 53.2734 203.043 54.5617C200.115 56.1505 197.2 57.7853 194.488 59.7597C193.621 60.3733 192.722 61.0468 191.883 61.7522C191.879 61.9039 191.829 62.0695 191.811 62.1753C191.335 62.9212 191.13 63.7353 191.317 64.6818C191.462 65.4904 192.003 66.2797 192.735 66.7099L194.876 71.7791C195.617 73.5607 196.359 75.3423 197.1 77.1239C197.726 78.6897 198.32 80.3154 199.069 81.7936C199.018 83.113 200.218 84.2545 201.506 84.3661C201.529 84.6096 201.585 84.7933 201.747 84.9952C202.351 85.6647 203.192 85.4603 203.885 85.1C204.069 85.0443 204.331 84.9149 204.331 84.9149C204.299 84.9748 206.68 83.4012 207.12 82.8668L207.152 82.807C207.588 82.4243 208.037 82.0876 208.473 81.7049C208.551 81.6312 208.675 81.5435 208.753 81.4698C208.753 81.4698 208.753 81.4698 208.799 81.4559C210.12 80.3538 211.514 79.3298 212.909 78.3057C215.822 76.1699 218.957 74.2679 222.161 72.5957C222.423 72.4663 222.505 72.2408 222.481 71.9973Z" fill="white"/>
<path d="M51.3319 94.2938C41.3597 90.7455 38.1862 89.0146 30.5518 81.8295C25.3758 76.9581 18.8784 69.9235 19.2073 62.2698C19.2768 60.653 16.8542 64.5534 16.0149 65.9383C14.3193 68.7358 12.5592 71.5013 10.9594 74.355C10.7691 74.6944 9.46271 77.0782 10.8712 75.1432C11.826 73.8314 16.8067 63.6091 17.9894 63.5221C22.7277 63.1736 26.3708 71.1468 31.1432 72.1283" stroke="#FB471F" stroke-width="2" stroke-linecap="round"/>
<path d="M126.759 68.3939C123.796 68.1597 120.294 66.1589 117.888 64.4983C113.868 61.7228 111.643 57.2124 109.589 52.8801C108.633 50.8642 108.272 49.1118 107.902 46.9061C107.572 44.934 107.171 46.6073 106.745 47.5995C106.182 48.9116 105.648 49.4428 104.759 50.4583C104.757 50.4608 105.021 48.095 105.171 47.4109C105.544 45.7096 105.596 45.0487 107.539 45.3366C110.335 45.7509 112.985 47.7081 115.456 49.0301" stroke="#FB471F" stroke-width="2" stroke-linecap="round"/>
<path d="M208.5 44.5C208.179 39.9901 211.134 36.0779 206.071 28.544C201.947 22.4082 195.202 18.9933 188.723 15.8403C185.708 14.3731 183.082 13.8122 179.776 13.2351C176.82 12.7191 179.335 12.1202 180.828 11.479C182.803 10.631 188.256 10.496 189.789 9.14934C189.793 9.14593 181.589 8.85842 180.561 9.08214C178.005 9.63852 176.181 7.83752 176.593 10.7957C177.186 15.0521 182.675 16.4338 184.634 20.202" stroke="#FB471F" stroke-width="2" stroke-linecap="round"/>
</svg>
