<svg width="129" height="74" viewBox="0 0 129 74" fill="none" xmlns="http://www.w3.org/2000/svg">
<path d="M23.1173 62.7315C22.5745 63.1332 21.5236 62.8842 22.762 62.6896C23.9995 62.4951 26.7163 62.3604 27.6185 62.2993C37.5571 61.6262 47.4699 60.8436 57.3735 59.8C70.0244 58.4669 79.0833 57.3439 91.6956 55.5475C96.4625 54.8685 101.223 54.1517 105.969 53.3679C108.694 52.918 111.411 52.4246 114.103 51.8468C115.114 51.6298 116.226 51.5125 117.065 50.9868C118.185 50.2843 114.293 50.6517 112.909 50.7731C105.419 51.4303 97.9944 53.1326 90.7267 54.7482C87.1093 55.5523 80.5163 57.0642 76.5732 58.1906C75.9374 58.3722 74.072 58.7362 74.7213 58.8596C75.8881 59.0814 77.1175 58.6691 78.3084 58.5204C81.3794 58.1368 84.4416 57.6993 87.5036 57.263C94.4153 56.2781 107.298 54.3681 114.278 53.2644C116.261 52.9508 118.267 52.7147 120.211 52.252C124.974 51.1183 110.452 53.5916 105.608 54.4277C87.516 57.55 69.8046 61.6655 52.1082 66.1203" stroke="#FB471F" stroke-width="2" stroke-linecap="round"/>
<path d="M19.2115 47.2835C20.0102 49.1218 18.3575 51.024 18.3575 51.024C18.3494 51.3645 18.2502 51.6613 18.0876 51.9105C17.8732 52.7892 19.2123 57.6334 17.6469 59.3536C17.5478 59.4525 17.0989 61.4672 15.5186 61.6907C14.1324 61.8868 13.46 60.7377 13.2192 59.6406C12.773 57.6959 12.3115 55.0464 12 53.0544C11.6673 53.1015 11.3624 53.1446 11.0336 53.2194C11.2308 54.4075 11.7748 58.0351 10.978 59.1941C10.8591 59.3523 10.7363 59.4828 10.5857 59.6172C10.526 59.9933 10.4109 60.3772 10.2008 60.6897C8.24258 63.4269 5.78942 60.2957 5.70258 59.8838C5.32749 58.2401 4.97633 56.3668 4.68835 54.7391C3.0014 54.6101 1.93308 53.2625 3.28096 51.2054L3.86399 49.9352C3.86399 49.9352 2.88564 44.4461 2.79907 43.6383C2.75192 43.1077 3.1126 42.6608 3.6433 42.614C3.53689 41.8655 3.65635 40.9154 4.70565 41.1346C5.01088 40.6955 5.50611 40.3992 6.06059 40.3208C6.83686 40.211 7.73952 40.5923 8.15484 41.3254C9.27888 42.2692 9.10071 42.2096 9.51127 44.1028C9.69283 44.982 9.88228 45.9167 10.0875 46.9623C10.44 46.8558 10.7965 46.7771 11.153 46.6984L10.9123 45.4034C10.5962 44.3735 10.1299 42.8841 11.3544 41.7494C11.4221 41.2308 11.6561 40.6887 12.1831 40.2183C13.3125 39.2102 15.055 39.1333 16.0521 40.378C16.9424 41.468 17.2809 44.4459 17.466 45.9468C18.2461 46.0627 18.8755 46.511 19.2115 47.2835ZM18.2518 49.2857C18.8385 48.4391 18.5226 47.0133 17.3902 46.8059C17.1328 46.7858 16.8992 46.734 16.6734 46.7376C16.6458 46.5436 16.6183 46.3495 16.5867 46.1277C16.5199 45.4585 16.4253 44.7932 16.3069 44.1595C16.2951 44.0764 16.311 43.9893 16.2714 43.91C16.0781 42.9476 16.0155 41.7122 15.3666 40.9274C14.6781 40.0633 13.5098 40.2003 12.7569 40.8723C11.9049 41.6433 12.2289 42.7286 12.5332 43.6753C12.7502 44.804 12.9989 45.9566 13.2159 47.0853C12.9149 47.1562 12.6456 47.2508 12.3445 47.3217C11.386 47.5421 10.4275 47.7625 9.47688 48.0384C9.44915 48.0423 9.42143 48.0462 9.42143 48.0462C9.16091 46.8105 8.89645 45.5471 8.63198 44.2837C8.5412 43.8441 8.45042 43.4045 8.35964 42.9649C8.29645 42.7193 8.11067 42.2083 7.81766 42.1366C7.69889 42.0968 7.61177 42.0809 7.50088 42.0966C7.50088 42.0966 7.49694 42.0689 7.49299 42.0411C7.37463 41.4075 6.61847 41.062 6.04809 41.2275C5.44998 41.3969 5.06144 42.0457 5.23525 42.6716C5.81202 44.7392 6.17487 46.8936 6.50606 49.0242C6.47833 49.0281 6.45061 49.032 6.45061 49.032C6.42289 49.036 6.40304 49.0953 6.37926 49.127C6.15027 48.113 5.88567 47.0476 5.62895 46.0376C5.29722 44.6989 5.01699 43.3246 4.55058 42.0332C4.5427 41.9777 4.45953 41.9895 4.46741 42.0449C4.59719 43.3557 4.89726 44.6706 5.11022 45.9696C5.32725 47.0983 5.51656 48.231 5.70192 49.3359C5.30577 49.5333 4.97689 49.8061 4.80633 50.1978C4.65969 50.36 4.51699 50.5498 4.42974 50.7318C3.89442 51.7408 5.02635 52.7401 5.91379 52.2186C5.99302 52.1791 6.09603 52.108 6.17526 52.0685C6.55008 54.1081 6.87338 56.1833 7.33137 58.2112C7.35895 58.4052 7.56879 58.4886 7.73513 58.4651C7.81028 58.5959 7.88544 58.7266 7.98832 58.8535C8.65301 59.7492 9.66303 59.4932 10.2537 58.6744C10.5351 58.267 10.5276 57.6176 10.5161 57.1385C10.5123 56.9128 10.4768 56.6633 10.473 56.4377C10.4691 56.4099 10.4651 56.3822 10.4612 56.3545C10.5014 55.4439 10.3397 54.5053 10.2096 53.5905C10.0954 52.7866 9.95334 51.9866 9.81132 51.1866C10.857 50.9821 11.9342 50.8014 12.9878 50.6524C13.1818 50.625 13.3482 50.6014 13.5422 50.574C13.5895 50.9066 13.6408 51.267 13.6881 51.5997C13.8378 52.6531 14.0192 53.7303 14.2245 54.7758C14.4059 55.8531 14.6111 56.8986 14.848 57.968C14.9269 58.3244 15.0494 58.7879 15.3383 59.0298C15.6984 59.3747 16.2211 59.4705 16.6768 59.0949C16.8036 58.9922 16.9265 58.8617 16.9939 58.739C17.0216 58.7351 17.0216 58.7351 17.0176 58.7074C17.5526 58.2924 17.5295 57.3342 17.5259 56.7125C17.5145 56.0355 17.4754 55.3623 17.4323 54.6614C17.3223 53.2913 17.2085 51.8935 17.0708 50.5273C17.6926 50.5242 18.275 50.0459 18.2636 49.3688C18.2597 49.3411 18.2557 49.3134 18.2518 49.2857ZM10.6912 50.2138C11.5982 50.0289 12.517 49.9272 13.4358 49.8255C13.4437 49.8809 13.4477 49.9087 13.4555 49.9641C13.2892 49.9876 13.0951 50.0151 12.8971 50.0148C11.8436 50.1638 10.7702 50.3722 9.70478 50.6361C9.70084 50.6083 9.69295 50.5529 9.68901 50.5252C9.74052 50.4896 9.76036 50.4303 9.7802 50.3709C10.0852 50.3277 10.3862 50.2569 10.6912 50.2138ZM33.715 54.1397C33.9441 54.9557 34.0739 56.2664 33.0992 56.9699C32.9357 58.6049 31.47 59.2364 30.2904 58.4983C29.9738 58.2604 29.1071 57.3366 28.9291 57.079C28.1814 55.9971 27.3235 53.743 26.7147 52.2455C26.6222 54.3795 27.1401 55.6354 26.0428 56.0734C25.808 57.8033 25.444 57.2327 25.2695 57.5967C25.2418 57.6006 24.7966 60.039 22.4642 59.7468C21.1377 59.5668 20.2751 58.4728 20.2682 57.0316C20.2572 55.7606 20.3095 54.5372 20.3935 53.3376C19.4317 52.5405 18.4539 52.0284 18.3915 50.595C18.3489 49.3002 19.1612 48.648 19.2008 48.5293C19.3793 48.193 19.2888 47.3574 20.8419 46.3459C20.9895 44.798 21.1683 43.8678 21.5853 42.2252C21.7877 41.4613 22.0379 40.4361 22.6443 39.7282C22.8902 39.2693 23.2161 37.583 24.9904 37.332C25.6281 37.2418 26.313 37.4843 26.7959 37.8967C27.7146 37.993 28.4824 38.6196 28.7828 39.5386C29.1589 39.5985 29.4557 39.8959 29.5386 40.2801C29.7752 41.7454 30.0553 43.3176 30.4503 44.9019C32.2163 45.1894 33.4898 47.5826 32.1342 49.3863C32.5967 50.65 33.3516 52.7772 33.715 54.1397ZM30.6728 55.2205C31.5547 57.047 33.5192 56.7408 32.8713 54.3722C32.4487 52.7918 31.6739 50.7239 31.1166 49.1909C32.452 48.0405 31.8081 45.6996 29.7487 45.7364C29.3261 44.156 28.616 40.1561 28.6277 40.4372C28.6429 41.34 28.7175 42.2626 28.8199 43.1813C28.7921 43.1853 28.7921 43.1853 28.7605 43.1615C28.4998 42.1237 28.2352 41.0583 28.0023 40.0167C27.8247 39.1651 27.1676 38.7208 26.3834 38.7752C26.1263 38.3591 25.5562 38.1286 25.0888 38.223C23.7343 38.4429 23.44 40.153 23.1185 41.2731C22.6579 43.0067 22.4626 44.8158 22.3505 46.6133C19.2332 47.5632 19.6431 50.4462 21.425 50.6466C21.4646 50.7259 21.4486 50.813 21.4288 50.8723C21.6506 50.841 21.8962 50.7779 22.1417 50.7149C21.9743 52.3222 21.9178 53.9138 21.9206 55.5253C21.9426 58.0673 25.293 57.961 25.1719 55.5179L25.1411 54.3062C25.1411 54.3062 25.2262 51.5229 25.3736 50.1729C25.4568 50.1612 25.54 50.1494 25.6232 50.1376C25.3448 51.7606 25.3278 53.4315 25.4178 55.0589C25.4334 55.3678 25.9047 55.3011 25.8614 54.9962C25.7397 53.3449 25.8201 51.7217 25.9836 50.0867L28.0589 49.7648C28.4147 50.676 30.1224 55.1287 30.6728 55.2205ZM25.8791 46.5666C25.9984 45.8145 26.1692 45.0268 26.3479 44.2945C26.5296 44.9758 26.7391 45.6531 26.9445 46.3028C26.5881 46.3815 26.2316 46.4602 25.8791 46.5666ZM47.5159 40.1691C49.0565 40.0643 50.3626 41.0955 50.5794 42.6202C50.7055 43.5073 50.3802 44.4016 49.7659 45.0541C49.6069 45.925 49.0361 46.6844 48.2754 47.1031C48.4449 48.2951 48.6738 49.507 48.9303 50.7149C49.0014 51.0159 48.9299 51.3088 48.7674 51.5581C48.9135 52.1878 49.0437 52.9046 48.8213 53.7279C48.7062 54.1118 48.4723 54.4559 48.1356 54.6733C48.1315 54.8435 48.0997 55.0177 48.0441 55.2235C47.8536 55.8726 47.3503 56.3114 46.7127 56.4016C46.5741 56.4212 46.4632 56.4369 46.3206 56.4288L45.216 56.0194C44.5392 55.4365 44.2586 54.6561 44.0214 53.9827C44.0057 53.8718 43.9622 53.7648 43.9226 53.6856C43.8791 53.5786 43.8356 53.4717 43.8199 53.3608C43.6969 53.6892 43.4195 53.9264 43.0986 54.0567C43.1065 54.1121 43.1144 54.1675 43.1223 54.223C43.2169 54.8883 42.7412 55.5211 42.0758 55.6153C41.9927 55.627 41.9056 55.6111 41.8501 55.6189C41.5886 55.769 41.2915 55.8676 40.9866 55.9107C40.2103 56.0205 39.5175 55.7226 39.0942 55.1321C39.0229 55.0291 38.9834 54.9498 38.9122 54.8468C38.8329 54.8863 38.7537 54.9258 38.6745 54.9653C38.6824 55.0207 38.6903 55.0761 38.6981 55.1316C38.7454 55.4642 38.6779 55.7849 38.4876 56.038C38.2974 56.2911 38.0082 56.4452 37.6755 56.4922C37.6477 56.4961 37.5923 56.504 37.5646 56.5079C37.3863 56.6462 37.1446 56.737 36.9228 56.7684C36.1743 56.8742 35.4934 56.4615 35.2563 55.7881C34.8332 54.8016 34.4339 53.7835 34.0941 52.7853C33.9595 52.6347 33.8488 52.4524 33.7895 52.2345C33.4693 51.3749 33.2203 50.6183 33.003 49.8855C32.5834 49.7187 32.2549 49.3975 32.0849 48.9974C32.0731 48.9142 32.0375 48.8627 32.0256 48.7795L32.1373 47.576C32.2048 47.4534 32.2722 47.3307 32.3712 47.2319L32.2841 47.2159L32.3515 47.0932C32.2686 46.7091 32.2135 46.321 32.1583 45.9329C31.9022 43.933 31.686 41.6165 31.9331 39.3758C31.9453 38.865 32.2031 38.2913 32.7103 37.8802C32.7307 37.0289 33.4125 36.0559 34.6879 35.8755C34.8819 35.848 35.0799 35.8483 35.2542 35.8802C36.0303 35.9683 36.6675 36.4721 36.9918 37.1614C37.2452 37.1539 37.4828 37.2334 37.6767 37.4039C37.7757 37.503 37.8469 37.6061 37.8943 37.7407C37.9023 37.5982 37.9143 37.4834 37.9263 37.3686C38.0059 36.7352 38.4775 36.2726 39.0874 36.1863C39.226 36.1667 39.3963 36.1709 39.5428 36.2067C39.6735 36.1317 39.836 36.0804 40.0023 36.0569C40.1409 36.0373 40.3112 36.0415 40.4577 36.0773C40.9725 36.1176 41.4396 36.4192 41.6967 36.8353C41.9469 35.8101 42.8504 35.0036 43.9871 34.8428C44.2089 34.8115 44.4623 34.8039 44.692 34.828C45.8443 34.976 46.7625 35.8642 47.023 37.0999C47.0506 37.2939 47.0782 37.488 47.0741 37.6582L47.1057 37.682C47.3274 37.8486 47.4539 38.1418 47.4379 38.4268C47.4613 38.9891 47.4846 39.5514 47.5159 40.1691ZM48.1185 45.0043C49.1364 44.8038 49.8341 43.7436 49.6922 42.7457C49.4952 41.3596 48.1056 40.7361 46.8935 41.1621C46.842 41.1976 46.7588 41.2094 46.7073 41.2449C46.6287 40.2946 46.5818 39.368 46.5627 38.4375C46.5668 38.2673 46.2856 38.2788 46.3092 38.4451C46.2769 39.4112 46.3039 40.3971 46.3587 41.3791C46.331 41.383 46.1448 41.4659 46.1171 41.4698C46.0779 40.7967 46.122 40.1118 46.1105 39.4347C46.1146 39.2644 46.1667 38.437 46.1827 38.1519C46.1987 37.8669 46.2108 37.5541 46.1437 37.2808C45.97 36.457 45.4279 35.8267 44.5647 35.7226C43.6143 35.6025 42.5842 36.3138 42.5241 37.2838C42.4681 38.0835 42.7131 38.8124 42.8195 39.5609C42.8943 40.2855 42.9967 41.0063 43.123 41.6954C43.1624 41.9726 43.2018 42.2498 43.2412 42.527C42.6471 42.7242 42.0529 42.9214 41.4587 43.1185C41.2857 41.3049 41.2236 39.4755 41.0784 37.658C41.0549 37.2937 40.6987 36.9764 40.3541 36.9403C40.0651 36.8964 39.8274 37.0148 39.653 37.1809C39.3641 36.939 38.8651 37.0096 38.8172 37.4688C38.5583 39.6263 38.6994 41.8121 38.9236 43.9861C38.3572 44.1794 37.8224 44.3964 37.2837 44.5857C37.1188 42.4316 37.0649 40.2618 37.0981 38.1079C37.114 38.0208 36.9714 38.0127 36.9832 38.0959C36.7639 40.3326 36.6831 42.5498 36.7766 44.7989C36.7212 44.8067 36.6657 44.8145 36.642 44.8462C36.6065 44.5967 36.575 44.3749 36.5395 44.1254C36.3151 42.1494 36.3482 40.1935 36.3336 38.3009C36.3381 37.5367 35.9584 36.8552 35.1506 36.7432C34.4616 36.671 33.6019 37.1885 33.5974 37.9527C33.3583 40.0508 33.5548 42.2288 33.8266 44.3395C33.8777 44.8979 33.9843 45.4484 34.0908 45.9989C33.9402 46.1333 33.7936 46.2954 33.6826 46.5091C33.7103 46.5051 33.7103 46.5051 33.7103 46.5051C33.5397 46.8969 33.6107 47.3959 34.1452 47.5748C34.2679 47.6423 34.3827 47.6543 34.5015 47.694C34.7741 48.617 35.0745 49.536 35.4025 50.451C35.4539 50.6134 35.529 50.7442 35.628 50.8433C36.0035 51.8931 36.4067 52.9389 36.8654 53.9769C36.9996 54.5235 37.8471 54.5167 38.0652 54.0617C38.2592 54.2322 38.6394 54.1218 38.5882 53.7615C38.2649 51.6863 37.8584 49.6229 37.5866 47.5122C38.1371 47.406 38.7115 47.2682 39.2858 47.1304C39.3804 47.7957 39.4987 48.4294 39.5894 49.067C39.7078 49.7006 39.8301 50.362 39.9484 50.9957C40.0865 51.768 40.1613 52.4926 40.5925 53.1386C41.0197 53.7569 41.9386 53.6552 42.4062 53.1648C42.4379 53.1886 42.4973 53.2085 42.5567 53.2284C42.7942 53.3079 43.0518 53.1301 43.0123 52.8529C42.7128 50.7461 42.247 48.6628 41.892 46.5638C42.5772 46.4103 43.2664 46.2846 43.9516 46.1311C44.2398 47.3628 44.5597 48.6184 44.8995 49.8146C45.0851 50.5236 45.2668 51.2049 45.5317 51.8744C45.8005 52.5716 45.998 53.3637 46.5758 53.8476L46.5996 53.8159C47.0469 54.1768 47.7795 54.158 47.9661 53.4812C48.1765 52.7728 47.971 52.1232 47.8408 51.4063C47.829 51.3232 47.8172 51.24 47.8053 51.1568C47.9479 51.165 48.1064 51.086 48.0788 50.8919C47.7157 49.1335 47.4119 47.3949 47.1597 45.6207C47.3538 45.5933 47.5755 45.5619 47.7696 45.5344C48.0746 45.4913 48.1777 45.2222 48.1185 45.0043ZM37.5275 47.0963C37.5236 47.0686 37.5078 46.9577 37.4999 46.9023C38.0742 46.7645 38.6446 46.599 39.2189 46.4612C39.2229 46.4889 39.207 46.576 39.2109 46.6037C38.6405 46.7692 38.0979 46.9308 37.5275 47.0963ZM54.8625 36.811C55.0365 37.2389 55.151 37.6468 55.2656 38.0548C55.7161 39.4333 56.3642 41.406 56.8425 42.7805C56.6525 42.6378 56.5972 42.4476 56.4469 42.1861C56.439 42.1307 56.4034 42.0791 56.3717 42.0553C55.7669 40.3876 55.1423 38.7792 54.4861 37.1471C54.5059 37.0877 54.502 37.06 54.498 37.0322C54.6327 36.9849 54.7635 36.9099 54.8625 36.811ZM61.1896 44.5128C61.3652 42.565 61.6001 40.6371 61.9499 38.7212C62.033 38.9074 62.0883 39.0975 62.1674 39.256C61.7699 41.4331 61.4595 43.6262 61.26 45.8036L61.2322 45.8076C61.2045 45.8115 61.1768 45.8154 61.1451 45.7916C61.1692 45.364 61.1932 44.9364 61.1896 44.5128ZM69.8719 47.8941C70.1405 48.9872 70.1081 49.9533 69.7709 50.7645C69.6479 51.093 69.4339 51.3777 69.1842 51.611C69.1326 51.8445 69.077 52.0504 68.9937 52.2601C68.6565 53.0713 67.8958 53.6879 67.0918 53.8017C66.6482 53.8644 66.1849 53.7886 65.8088 53.5307C64.8545 53.3829 64.067 52.6176 63.9291 51.6474C63.8659 51.4018 63.8304 51.1523 63.7949 50.9029C63.4713 49.2236 62.9973 47.4808 62.2818 45.6308C62.1144 47.2381 61.9747 48.8415 61.8904 50.437C61.8784 50.5518 61.8388 50.6705 61.7951 50.7615C61.7989 50.9872 61.7711 51.1891 61.7432 51.391C61.6319 52.0006 61.3861 52.4596 60.9779 52.7718C60.9819 52.7995 60.962 52.8589 60.966 52.8866C60.8268 53.6981 60.4502 54.2321 59.8085 54.4926C59.6738 54.5399 59.5629 54.5556 59.452 54.5713C59.3134 54.5909 59.1708 54.5828 59.0283 54.5747C58.9174 54.5903 58.8026 54.5783 58.6838 54.5386C58.3194 54.5618 57.9908 54.4386 57.7534 54.1611C57.4804 53.8321 57.2905 53.4914 57.16 53.1705C57.061 53.2693 56.9619 53.3682 56.8351 53.471C56.7555 54.1044 56.5016 54.7058 55.8003 55.1444C55.6458 55.2511 55.4596 55.334 55.2656 55.3614C55.0161 55.3967 54.8102 55.341 54.6003 55.2576C54.1013 55.3282 53.6341 55.2246 53.2541 54.939C52.4981 54.3955 52.2532 53.4687 52.0715 52.7874C52.0319 52.7082 52.024 52.6527 52.0122 52.5696C51.5697 51.0485 51.2065 49.488 50.9344 47.7732C50.8832 47.4129 50.8319 47.0525 50.753 46.696C50.544 45.4248 50.331 44.1258 50.1458 42.8229C50.1064 42.5457 50.0669 42.2685 50.0236 41.9635C49.8028 40.6091 49.578 39.227 49.6344 37.8333C49.6545 37.378 49.9676 36.9944 50.4033 36.8762C50.3797 36.7099 50.3798 36.5119 50.4116 36.3377C50.4238 35.827 50.7924 35.4355 51.3192 35.361C51.3469 35.3571 51.3469 35.3571 51.3746 35.3532C51.5015 35.0524 51.6918 34.7993 51.9493 34.6215C52.3297 34.3131 52.7536 34.1118 53.2249 34.0451C53.4467 34.0137 53.7002 34.0062 53.9615 34.054C54.5872 34.0787 55.1969 34.3883 55.6044 34.868L56.2493 35.8231C56.2928 35.93 56.3402 36.0647 56.3876 36.1994C56.514 36.6905 56.6681 37.1777 56.8301 37.7204C56.8775 37.8551 56.9289 38.0175 56.9803 38.1799C57.3359 39.289 57.6877 40.3704 58.0354 41.4241C58.1672 39.7653 58.3229 38.0748 58.3121 36.4079C58.3165 35.8417 58.6693 35.3393 59.0813 35.0548C59.1012 34.9955 59.0972 34.9677 59.0894 34.9123C59.1017 34.2036 59.6368 33.5906 60.1993 33.3696C60.4132 33.2828 60.6588 33.2198 60.9083 33.1845C61.1301 33.1531 61.3558 33.1495 61.5855 33.1736C61.7954 33.059 62.0371 32.9683 62.2866 32.933C62.7856 32.8624 63.2845 32.9898 63.6684 33.3031C64.654 34.0686 65.4017 35.1505 65.971 36.5688C66.4533 37.7731 66.8802 38.9853 67.2872 40.2568C67.4018 40.6648 67.548 41.0965 67.71 41.6392C67.8523 42.0432 67.9906 42.4196 68.1329 42.8236C68.3226 43.3624 68.5084 43.8734 68.6981 44.4121C68.8326 44.7607 68.9392 45.1133 69.0736 45.4619C69.125 45.6243 69.1803 45.8144 69.2594 45.9729C69.4887 46.5909 69.7219 47.2366 69.8719 47.8941ZM68.9593 50.4268C69.2489 49.6789 69.1901 48.8671 69.0243 48.0988C68.8268 47.3066 68.5185 46.5302 68.2378 45.7498C67.9137 44.8624 67.6213 43.9989 67.3249 43.1076C67.1865 42.7313 67.0442 42.3272 66.8742 41.9271C66.7518 41.4637 66.5977 40.9765 66.4475 40.517C66.0483 39.3009 65.6492 38.0848 65.1669 36.8805C64.7281 35.7831 64.0991 34.7409 63.1175 34.0032C62.7336 33.6898 62.1236 33.7761 61.7789 34.136C61.4186 33.989 60.9948 33.9923 60.5432 34.1976C60.2462 34.2962 59.9806 34.6166 59.9646 34.9016C59.9748 37.3604 59.7038 39.8307 59.5159 42.2893C59.3762 43.8926 59.2642 45.4921 59.1245 47.0955C58.0888 44.3858 57.0178 41.2287 56.1405 38.4401C55.9311 37.7627 55.694 37.0893 55.5439 36.4318C55.4768 36.1586 55.3265 35.897 55.1326 35.7265C54.8676 35.255 54.4005 34.9534 53.8579 34.9171C53.3947 34.8412 52.9035 34.9672 52.4993 35.3072C52.1942 35.5483 52.095 35.8451 52.1344 36.1223C51.9598 36.6843 52.0742 37.2903 52.1808 37.8408C52.2754 38.5061 52.3937 39.1398 52.4883 39.8051L52.579 40.4427C52.5235 40.4505 52.4091 39.8445 52.3536 39.8524C52.1564 38.6643 51.9474 37.393 51.6234 36.3077C51.576 36.173 51.2988 36.2123 51.2908 36.3548C51.2104 37.978 51.5578 39.6256 51.8102 41.2018C52.0427 42.8374 52.3069 44.4967 52.5948 46.1244C52.8512 47.7283 53.1828 49.265 53.6331 50.8415C53.8109 51.495 53.9846 52.3188 54.5545 52.7472C54.8395 52.9614 55.2355 52.962 55.5525 52.804C55.5881 52.8555 55.6197 52.8793 55.6514 52.9031C55.782 53.0261 55.9761 52.9986 56.1306 52.8919C56.9626 52.3783 56.7336 51.3644 56.5916 50.5644C56.2051 48.2437 55.7751 45.816 55.3331 43.5031C55.4241 43.7447 55.5388 43.9547 55.6535 44.1647C56.0053 45.0482 56.3888 45.9554 56.7684 46.8349L58.5635 50.9076C58.7375 51.3355 58.9075 51.7356 59.2122 52.0884C59.2834 52.1914 59.3982 52.2035 59.4735 52.1363C59.5962 52.2037 59.7388 52.2119 59.8774 52.1922C59.9685 52.2359 60.1071 52.2163 60.2418 52.169C60.6696 51.9954 60.7926 51.6669 60.876 51.2592C60.9198 50.9702 60.9358 50.6852 60.9519 50.4001C60.936 50.4872 61.0508 50.4992 61.0628 50.3844C61.119 49.1887 61.2628 47.4151 61.4065 45.8395C61.5739 44.2322 61.9241 41.7224 62.3136 39.6878C62.7287 40.8168 63.1437 41.9458 63.5865 43.0708C64.5393 45.3963 65.1595 47.5709 65.5618 50.0025C65.6564 50.6678 66.2342 51.1517 66.8916 51.2001C67.6832 51.7951 68.6459 51.2064 68.9593 50.4268ZM79.7474 44.857C79.7514 44.8847 79.7553 44.9124 79.7593 44.9401C79.846 45.55 79.9643 46.1837 80.055 46.8212C80.0589 46.849 80.0668 46.9044 80.0707 46.9321C80.0664 47.4983 79.9789 48.0763 80.1963 48.6111C79.9906 48.3574 79.8483 47.9534 79.8405 47.6999C79.7894 47.1416 79.7423 46.611 79.7189 46.0487C79.6914 45.6567 79.6601 45.2369 79.6326 44.8449C79.6603 44.841 79.692 44.8648 79.7474 44.857ZM81.7603 31.762L81.8432 32.1461C82.0681 33.3303 82.2099 34.5262 82.3477 35.6945L82.3713 35.8608C82.4145 36.3637 82.4894 36.8904 82.5366 37.421C82.702 38.7833 82.8436 40.1772 83.0129 41.5672C83.2922 44.3273 83.5243 46.5567 83.7011 48.5961L83.7128 48.8772L83.578 49.1225C83.4233 49.4272 83.1776 49.6881 82.8963 49.8976C82.9042 49.9531 82.916 50.0362 82.9239 50.0917L82.9355 50.3728L82.8007 50.6181C82.5549 51.0771 82.1784 51.4131 81.6991 51.6223C81.4891 51.7368 81.2713 51.7959 81.0218 51.8312C80.3841 51.9214 79.7625 51.7266 79.2796 51.3141C78.6421 51.2063 78.1514 50.7385 77.9103 50.0373C77.7245 49.5263 77.6734 48.968 77.6342 48.4928C77.6382 48.3225 77.6185 48.1839 77.5988 48.0453C77.528 47.3484 77.4612 46.6791 77.3904 45.9822C77.3312 45.5664 77.2998 45.1466 77.2368 44.7031C77.2368 44.7031 77.1343 43.9823 77.1107 43.816C77.1107 43.816 77.0161 43.1507 76.9491 42.6794C76.8261 43.0079 76.7428 43.2176 76.7428 43.2176C76.7428 43.2176 75.0845 47.4678 75.025 47.6459C75.005 47.9032 74.985 48.1605 74.9967 48.4417L74.9769 48.501C74.9407 49.2414 74.8925 50.2945 74.1118 50.9705C73.9768 51.6118 73.7308 52.2687 73.0295 52.7072C72.8711 52.7862 72.6611 52.9008 72.3838 52.94C72.2175 52.9635 72.0749 52.9554 71.9007 52.9235C71.2275 52.9622 70.5346 52.6643 69.9687 52.0656L69.7669 51.8396L69.7513 51.5308C69.5394 48.6481 69.2846 44.8665 69.3664 41.0655C69.3753 39.7352 69.3961 38.29 69.5278 36.8292C69.576 35.7761 69.6243 34.7229 69.6686 33.6421C69.7046 33.0997 70.093 32.6488 70.6158 32.5466L70.6317 32.4595L70.8259 32.2341C70.9012 32.1669 70.9765 32.0997 71.0518 32.0325C71.4044 31.7281 71.8561 31.5228 72.2996 31.46C72.9373 31.3698 73.5589 31.5647 73.9387 32.0483C74.1842 32.1832 74.4098 32.3775 74.5878 32.6351C75.1417 33.3486 75.0224 34.1007 74.9587 34.647C74.9428 34.7341 74.9269 34.8212 74.907 34.8806C74.8553 35.3121 74.8273 35.7119 74.7993 36.1118C75.1007 35.447 75.4061 34.81 75.7471 34.2244C75.7708 34.1928 75.7907 34.1334 75.862 34.0385C76.0802 33.5835 76.2745 33.1601 76.5243 32.7288C76.7027 32.3925 77.7732 30.5727 79.1871 30.3727C79.7416 30.2942 80.3078 30.4969 80.7352 30.9172C80.8697 31.0678 80.9766 31.2224 81.0873 31.4047C81.1784 31.4484 81.2972 31.4881 81.4199 31.5556L81.7603 31.762ZM70.9326 49.8932C70.8305 48.5785 70.7522 47.2322 70.7017 45.882C70.5885 43.4943 70.5624 41.1226 70.5917 38.743C70.6203 37.5513 70.6765 36.3556 70.7368 35.1877C70.7648 34.7878 70.9356 34.0001 70.7141 33.6356C70.6072 33.481 70.1835 33.4844 70.1635 33.7417C69.875 38.6747 69.9666 43.6954 70.6642 48.6021C70.6719 48.8555 70.6757 49.0812 70.6795 49.3069C70.7427 49.5524 70.8257 49.7386 70.8653 49.8179C70.9009 49.8694 70.9404 49.9486 70.9326 49.8932ZM81.4802 35.9586C81.3345 34.7349 81.2166 33.5073 80.9639 32.3271C80.8373 32.2319 80.6591 32.1722 80.4849 32.1403C80.4571 32.1442 80.4294 32.1482 80.4017 32.1521C80.3702 31.9303 80.2832 31.7164 80.0893 31.5459C79.0682 30.5309 77.7205 32.39 77.2923 33.1575C76.527 34.5383 75.9399 35.9787 75.3845 37.443C75.1186 38.1592 73.726 41.8911 73.7456 42.2277C73.7341 41.7485 73.7225 41.2694 73.7387 40.7864C73.771 39.8204 73.7994 38.8266 73.8318 37.8605C73.884 36.8351 73.9084 35.8136 74.0438 34.7764C74.1075 34.2301 74.2822 33.6681 73.8984 33.1568C73.7599 32.9785 73.566 32.808 73.3561 32.7245C73.3522 32.6968 73.3245 32.7007 73.3205 32.673C72.9011 32.1102 72.0773 32.2833 71.6533 32.6826C71.6018 32.7182 71.5265 32.7854 71.4789 32.8487C71.4429 33.3911 71.3514 33.9413 71.2877 34.4876C71.0727 36.1582 71.0359 37.8884 71.0228 39.587C70.9492 43.0474 71.1329 46.528 71.3958 49.9691C71.7599 50.3417 72.2508 50.6117 72.7776 50.5371C72.9597 50.6245 73.1775 50.5654 73.332 50.4587C74.0333 50.0202 74.0775 49.1373 74.1136 48.3969C74.1218 48.0564 74.1339 47.7436 74.1737 47.4269C74.2927 47.0708 74.4395 46.7107 74.5863 46.3505C75.4115 44.1977 77.4587 38.7049 77.7443 38.1272C77.883 37.9096 77.9901 37.6682 78.1011 37.4546C78.3611 39.4821 78.7043 41.498 78.9405 43.5572C79.0507 44.5313 79.1569 45.4778 79.2672 46.4519C79.3222 47.038 79.3019 47.6913 79.5194 48.2261C79.6577 48.6024 79.8753 48.9393 80.303 48.9636C80.3624 48.9835 80.3901 48.9796 80.4456 48.9717C80.8571 49.4791 81.5262 49.6107 82.1086 49.3303C82.4295 49.2001 82.6514 48.9708 82.81 48.6938C82.6175 46.3456 82.3697 44.0053 82.1218 41.6649C81.937 39.7681 81.6928 37.8514 81.4802 35.9586ZM100.067 28.0413C100.308 28.3465 100.474 28.7189 100.502 29.1109C100.549 29.6415 100.366 30.1481 100.049 30.504C100.085 30.9515 100.033 31.7789 99.355 32.3838C99.3312 32.4154 99.3074 32.4471 99.2559 32.4826C99.2041 32.9141 99.0533 33.4445 98.5778 33.8794C98.4549 34.0099 98.3004 34.1166 98.0865 34.2034C97.9874 34.3022 97.8289 34.3812 97.6943 34.4285C96.9139 34.7086 96.0742 34.9688 95.2107 35.2606C95.2895 35.815 95.3722 36.3972 95.4511 36.9516C95.522 37.4506 95.5929 37.9496 95.6639 38.4485C95.8294 39.6128 96.0305 40.8286 96.1723 42.0246C96.3381 42.7929 96.5156 43.8424 96.7208 44.888L96.7287 44.9434L96.7088 45.0028C96.756 45.5334 96.8027 46.658 96.0656 47.4409L95.8912 47.607C95.8157 48.0701 95.6569 48.545 95.2884 48.9365L94.0801 49.5882C93.8661 49.675 93.6245 49.7657 93.4027 49.7971C93.1809 49.8285 92.9829 49.8282 92.8087 49.7963C90.7852 49.4887 90.363 47.3144 90.2051 46.6015C89.8933 45.0054 89.7281 43.4452 89.6141 42.2453C89.5511 41.6038 89.4882 40.9623 89.4253 40.3208C89.3704 39.5367 89.2838 38.7289 89.225 37.9171L89.0832 36.7212C89.0832 36.7212 88.9446 36.7408 88.8892 36.7486C88.1367 36.8268 87.3604 36.9366 86.5446 36.9672C85.8951 36.9742 85.1031 36.9731 84.4063 36.6475C83.8956 36.437 83.4444 36.0483 83.1239 35.5846C82.2966 35.1361 81.7982 34.2168 81.9177 33.2667C81.9775 32.6927 82.2709 32.1705 82.6989 31.7989L82.6949 31.7712C82.7865 31.0229 83.2582 30.3624 83.8604 30.0227C83.9478 29.6427 84.2727 29.3422 84.6609 29.2873L84.6886 29.2834L84.7163 29.2795C86.1975 29.1548 87.7025 28.9985 89.1996 28.7867C91.4452 28.469 93.786 28.0248 96.1427 27.4935C96.4675 27.391 96.7923 27.2885 97.0695 27.2493L97.125 27.2414C97.2319 27.198 97.3428 27.1823 97.5092 27.1588C97.5092 27.1588 97.5092 27.1588 97.5369 27.1549C97.9726 27.0367 98.3291 26.958 98.6856 26.8793C98.7093 26.8476 98.7648 26.8398 98.8202 26.832C99.3747 26.7535 99.9091 27.1304 100.047 27.7047C100.063 27.8156 100.079 27.9265 100.067 28.0413ZM99.222 30.0555C99.8479 29.6841 99.7259 28.6268 99.037 28.3566C98.9737 28.309 98.9143 28.2892 98.8549 28.2693C98.9064 28.2337 98.9896 28.2219 99.045 28.2141C99.3144 28.1194 99.1642 27.6599 98.9186 27.723C98.5106 27.8372 98.0987 27.9238 97.6907 28.038C97.5205 28.0339 97.3581 28.0851 97.2194 28.1047C96.9461 28.1716 96.6728 28.2386 96.3758 28.3372C92.5694 29.2149 88.6999 29.8471 84.787 30.1744C84.6999 30.1584 84.6958 30.3287 84.779 30.3169C86.3115 30.3546 87.8323 30.3092 89.3412 30.1806C89.3451 30.2083 89.3214 30.24 89.3253 30.2677C87.8005 30.4834 86.2876 30.5843 84.7431 30.6613C84.1253 30.6922 83.6457 31.2973 83.5582 31.8753C83.4864 32.5641 83.9137 33.1824 84.5115 33.4089C84.7409 33.8289 85.1565 34.166 85.5524 34.3645C86.0948 34.5988 86.7165 34.5957 87.3105 34.5965C88.0392 34.55 88.7917 34.4719 89.5403 34.366C89.9007 34.315 90.2611 34.264 90.6215 34.213C90.6609 34.4902 90.7043 34.7952 90.7476 35.1001L90.8656 36.3277C91.0151 37.777 91.1368 39.2303 91.2547 40.6558C91.4002 42.0775 91.5774 43.5229 91.8616 44.9249C92.0708 45.9982 92.5016 47.2381 93.7172 47.4338C94.3231 47.5177 94.9689 47.087 95.0762 46.4497C95.1915 45.8678 95.1088 45.0877 95.1488 44.573C95.1803 44.7948 95.271 45.4324 95.2986 45.6265C95.326 46.0185 95.3812 46.4066 95.4086 46.7986C95.4086 46.7986 95.4126 46.8263 95.4165 46.854C95.8604 46.3953 95.8767 45.7144 95.8375 45.0412C95.6719 44.0749 95.4785 43.1125 95.3128 42.1462C95.0724 40.4552 94.8043 38.7681 94.5639 37.0771C94.3905 35.8573 94.2448 34.6337 94.0714 33.414C95.4577 33.0199 96.8085 32.5743 98.183 32.0971C98.2661 32.0853 98.3137 32.0221 98.3613 31.9588C98.496 31.9114 98.6544 31.8325 98.7535 31.7336C99.1537 31.3659 99.1937 30.8513 99.1505 30.3484C99.1941 30.2574 99.21 30.1703 99.222 30.0555ZM87.216 33.9312C86.5466 33.9976 85.7982 33.9055 85.2955 33.5525C86.4241 33.7322 87.5606 33.7694 88.6853 33.7234C88.1902 33.8217 87.6912 33.8923 87.216 33.9312ZM105.576 45.332C106.111 45.115 106.606 44.8187 107.106 44.5502C107.609 44.3093 108.08 44.0447 108.552 43.78L108.559 43.8355C108.175 44.1161 107.791 44.3967 107.379 44.6812C107.2 44.8195 106.994 44.9618 106.788 45.1041C106.765 45.1357 106.737 45.1396 106.709 45.1435C106.63 45.183 106 45.3287 105.576 45.332ZM110.34 34.8738L110.379 34.953C110.221 35.032 110.09 35.1071 109.936 35.2138C108.628 35.9643 107.261 36.6949 106.001 37.5801C106.196 37.3547 106.323 37.0539 106.335 36.7412C106.842 36.528 107.345 36.2872 107.876 36.0424C108.696 35.6437 109.52 35.2726 110.34 34.8738ZM119.101 38.4136C119.247 39.0433 119.084 39.6885 118.68 40.2264C118.621 40.4045 118.506 40.5904 118.351 40.6971C118.292 41.0732 118.141 41.4056 117.903 41.722C117.78 42.0505 117.507 42.3154 117.158 42.4495C115.11 43.1634 113.189 43.9725 111.422 44.8728C110.606 45.2993 109.738 45.7614 108.875 46.2512C108.823 46.2867 108.772 46.3223 108.716 46.3301L108.613 46.4013C108.379 46.5474 108.146 46.6936 107.856 46.8476C107.531 47.1481 107.143 47.401 106.612 47.6458C106.402 47.7603 106.141 47.9104 105.816 48.0129L105.737 48.0524L105.654 48.0641C105.571 48.0759 105.515 48.0838 105.428 48.0678C105.293 48.1151 105.155 48.1347 105.016 48.1543C104.267 48.2602 103.634 47.9822 103.242 47.4155C103.207 47.364 103.167 47.2847 103.128 47.2055C102.791 47.0268 102.498 46.7572 102.285 46.4481C101.964 45.9844 101.806 45.4695 101.818 44.9587C101.645 44.3329 101.499 43.7031 101.352 43.0734C101.285 42.8001 101.214 42.4991 101.143 42.1981L99.6465 36.0471C99.2151 35.5991 98.9304 34.9889 98.8952 34.3435C98.8758 33.809 99.0068 33.338 99.2249 32.8829C99.1181 32.7284 99.039 32.5699 99.0391 32.3719C99.0195 32.0353 99.1703 31.7029 99.4278 31.5251C99.5784 31.3907 99.7329 31.284 99.8874 31.1773C99.8479 31.0981 99.8321 30.9872 99.8163 30.8763C99.7968 30.5397 99.9475 30.2073 100.205 30.0295C102.024 28.6977 104.044 27.7898 105.965 26.9807C106.175 26.8662 106.389 26.7793 106.579 26.7242L106.607 26.7203L106.876 26.6256C107.926 26.2509 108.976 25.8762 110.101 25.6322C110.374 25.5653 110.651 25.5261 110.928 25.4868L111.047 25.9225C111.34 25.7962 111.633 25.6699 111.926 25.5436L112.271 25.3818L112.473 25.4098C112.699 25.4061 112.928 25.4302 113.13 25.4582C113.332 25.4862 113.506 25.5181 113.685 25.5777L113.803 25.6175L113.922 25.6572C114.108 25.7723 114.294 25.8874 114.453 26.0064L114.643 26.1492L114.753 26.3314C115.109 27.0446 115.295 27.7536 115.251 28.4385L115.243 28.977L114.767 29.2139C114.66 29.2573 114.553 29.3007 114.446 29.3441C114.47 29.5105 114.494 29.6768 114.49 29.847C114.818 29.9702 115.186 30.1727 115.499 30.5809C115.566 30.6562 115.606 30.7355 115.677 30.8385C115.681 30.8662 115.716 30.9178 115.748 30.9416C116.12 31.1717 116.397 31.5284 116.575 31.984C116.86 32.7921 116.574 33.7657 115.892 34.3429C115.896 34.3706 115.896 34.3706 115.872 34.4022C116.954 34.4473 118.414 35.1738 119.101 38.4136ZM100.727 30.7192C100.68 30.7825 100.692 30.8656 100.751 30.8855C101.321 30.522 101.896 30.1862 102.506 29.902C104.245 29.0056 106.071 28.3231 107.897 27.6406C108.943 27.2382 110.013 26.8041 111.054 26.3739C110.805 26.4092 110.555 26.4445 110.31 26.5075C109.13 26.7593 108.024 27.1419 106.919 27.5244C106.705 27.6113 106.519 27.6941 106.305 27.781C104.384 28.59 102.419 29.4901 100.727 30.7192ZM117.884 39.8017C118.182 39.5051 118.348 39.0856 118.25 38.5906C117.914 37.0262 117.041 34.6612 114.969 35.4067C114.676 35.533 114.418 35.7108 114.125 35.8371C113.78 35.999 113.436 36.1609 113.091 36.3227C112.457 36.6386 111.827 36.9822 111.197 37.3258C110.801 37.5233 110.409 37.7484 110.017 37.9736C109.256 38.3922 108.523 38.807 107.79 39.2217C107.216 39.5575 106.641 39.8933 106.071 40.2568C106.047 40.2884 106.019 40.2923 105.996 40.324C105.988 40.2685 105.984 40.2408 105.98 40.2131C105.838 39.6111 105.7 39.0367 105.557 38.4347C106.278 37.9368 106.972 37.4428 107.729 36.9965C108.953 36.2577 110.197 35.6576 111.476 35.109C112.118 34.8485 112.791 34.6119 113.441 34.4069C114.059 34.1781 114.673 34.1195 115.216 33.7599C115.679 33.4398 115.925 32.7829 115.739 32.2719C115.644 32.0025 115.439 31.7489 115.169 31.6455C115.142 31.6495 115.142 31.6495 115.11 31.6257C115.067 31.5187 114.995 31.4157 114.924 31.3126C114.889 31.2611 114.849 31.1819 114.782 31.1065C114.299 30.4961 113.63 30.5625 112.941 30.6883C112.612 30.7631 112.311 30.8339 111.986 30.9364C111.879 30.9798 111.744 31.0272 111.637 31.0706C110.786 31.4456 109.906 31.8245 109.051 32.1717C107.553 32.9774 106.123 33.8584 104.665 34.7433C104.645 34.6047 104.337 33.6303 104.27 33.357C104.27 33.357 104.294 33.3254 104.317 33.2937C105.126 32.8118 105.965 32.3536 106.809 31.9232C107.095 31.7415 109.721 30.5216 111.08 29.9335C111.135 29.9256 111.187 29.8901 111.238 29.8545C111.852 29.598 112.462 29.3137 113.045 29.0334C113.496 28.8281 113.948 28.6228 114.372 28.4215C114.404 27.8514 114.238 27.281 113.961 26.7263C113.807 26.635 113.621 26.52 113.466 26.4287C113.32 26.3928 113.173 26.357 112.999 26.3251C112.825 26.2932 112.627 26.2929 112.429 26.2926C111.042 26.8847 109.656 27.4767 108.234 28.0172C106.404 28.672 104.578 29.3545 102.838 30.2509C102.284 30.5273 101.705 30.8353 101.159 31.1672C101.143 31.2543 101.099 31.3453 101.079 31.4046C100.738 31.7922 100.548 32.2433 100.571 32.8056C100.583 33.2847 100.824 33.7878 101.208 34.1012L101.99 37.2143C102.259 38.3075 102.527 39.4007 102.796 40.4938C103.017 41.4523 103.214 42.4424 103.514 43.3614C103.367 44.1175 103.957 44.8824 104.689 45.0616C104.681 45.2041 104.697 45.315 104.772 45.4458C105.061 45.8857 105.564 45.8428 105.996 45.6969C106.107 45.6812 106.269 45.6299 106.269 45.6299C106.245 45.6616 107.759 44.9668 108.06 44.698L108.084 44.6663C108.369 44.4846 108.658 44.3306 108.943 44.1488C108.995 44.1132 109.074 44.0738 109.126 44.0382C109.126 44.0382 109.126 44.0382 109.153 44.0343C110.013 43.5168 110.908 43.0508 111.804 42.5848C113.674 41.6133 115.65 40.7964 117.647 40.1181C117.809 40.0668 117.876 39.9442 117.884 39.8017Z" fill="white"/>
<path d="M19.706 40.3129C19.706 40.3129 18.6402 39.4262 18.1732 38.8273C14.9324 34.6709 10.9686 28.7797 12.0772 23.2085C12.3113 22.0316 10.094 24.6152 9.32199 25.5348C7.76246 27.3926 6.15918 29.2196 4.66344 31.1294C4.48553 31.3565 3.25806 32.9552 4.50945 31.697C5.35781 30.8439 10.1663 23.9178 11.0427 23.9881C14.5544 24.2698 16.3203 30.5253 19.7061 31.7854" stroke="#FB471F" stroke-width="2" stroke-linecap="round"/>
<path d="M96.125 23.0863C97.1563 22.4613 100.187 19.2425 100.719 18.0863C100.719 18.0863 101.532 17.0269 102.151 11.7197C102.438 9.25006 102.188 7.27505 101.781 4.82C101.418 2.62502 102.453 4.23828 103.268 5.12611C104.345 6.30019 105.776 10.0836 107.094 10.8263C107.098 10.8282 105.289 5.0166 104.88 4.352C103.864 2.69917 104.678 0.981694 102.709 1.99505C99.8752 3.45313 100.253 7.63293 98.0961 9.92682" stroke="#FB471F" stroke-width="2" stroke-linecap="round"/>
<path d="M75.9402 28.3227C76.0055 26.1069 74.8044 23.3489 73.7672 21.4314C72.0336 18.2265 68.8689 16.2131 65.8224 14.3411C64.4048 13.47 63.1347 13.0609 61.5291 12.6088C60.0936 12.2046 61.3666 12.0425 62.1365 11.8069C63.1548 11.4953 63.5917 11.1424 64.4163 10.5648C64.4184 10.5634 62.643 10.5683 62.1237 10.6243C60.8322 10.7636 60.338 10.7492 60.3948 12.213C60.4765 14.3192 61.714 16.4418 62.4948 18.3803" stroke="#FB471F" stroke-width="2" stroke-linecap="round"/>
</svg>
