<svg width="1920" height="541" viewBox="0 0 1920 541" fill="none" xmlns="http://www.w3.org/2000/svg">
  <path d="M162.137 77.8963L0.13117 178.227L-21 440.893L24 482L92.2027 511L337.727 358.946L492.689 448.371L665.26 341.498L904.243 489.501L1158.82 370.163L1336.93 440.893L1380.2 388.859L1523.08 469.248L1621.7 358.946L1781.19 399.452L1920.05 358.946V104.381L1831.5 49.5421L1759.55 7.47805L1336.93 137.721L1235.3 49.5421L720.603 124.323L519.857 0L324.142 178.227L162.137 77.8963Z" fill="#FB471F" />
  <path d="M191.84 107.049L11.798 207.576V470.756L123.088 541L364.463 388.649L516.807 478.249L686.462 371.166L921.407 519.459L1171.69 399.888L1348.57 474.258L1389.32 418.62L1533.43 502.772L1626.74 388.649L1783.53 429.234L1920.05 388.649V133.585L1833 78.639L1762.26 36.4927L1346.78 166.99L1246.87 78.639L740.871 153.566L543.516 29L351.109 207.576L191.84 107.049Z" fill="#FB471F" />
  <path d="M199.791 102.896L40.5232 203.227L19.7491 465.893L131.039 536L372.414 383.946L524.758 473.371L694.413 366.498L929.359 514.501L1179.64 395.163L1354.73 465.893L1397.27 413.859L1537.74 494.248L1634.69 383.946L1791.48 424.452L1928 383.946V129.381L1840.95 74.5421L1770.22 32.478L1354.73 162.721L1254.82 74.5421L748.822 149.323L551.468 25L359.06 203.227L199.791 102.896Z" fill="#FB471F" />
  <path d="M191.84 99.8963L32.5722 200.227L26.7063 466.307L123.088 533L364.463 380.946L516.807 470.371L686.462 363.498L921.408 511.501L1171.69 392.163L1346.78 462.893L1389.32 410.859L1529.79 491.248L1626.74 380.946L1783.53 421.452L1920.05 380.946V126.381L1833 71.5421L1762.26 29.478L1346.78 159.721L1246.87 71.5421L740.871 146.323L543.517 22L351.109 200.227L191.84 99.8963Z" fill="#264F36" />
</svg>