<svg width="320" height="288" viewBox="0 0 320 288" fill="none" xmlns="http://www.w3.org/2000/svg">
  <path d="M-604.515 41.4461L-690.713 94.8287L-701.956 234.585L-678.013 256.457L-641.725 271.887L-511.089 190.984L-428.639 238.564L-336.819 181.7L-209.664 260.447L-74.21 196.952L20.5543 234.585L43.5761 206.899L119.602 249.671L172.07 190.984L256.929 212.536L330.813 190.984V55.5378L283.699 26.3597L245.419 3.97883L20.5543 73.2768L-33.5203 26.3597L-307.373 66.148L-414.183 0L-518.317 94.8287L-604.515 41.4461Z" fill="#FB471F" />
  <path d="M-588.711 56.9572L-684.505 110.444V250.474L-625.292 287.849L-496.864 206.787L-415.806 254.461L-325.538 197.485L-200.532 276.387L-67.3664 212.767L26.7465 252.337L48.4295 222.734L125.106 267.509L174.752 206.787L258.178 228.382L330.813 206.787V71.0764L284.495 41.8413L246.861 19.4165L25.7966 88.8501L-27.3642 41.8413L-296.589 81.7074L-401.595 15.4299L-503.969 110.444L-588.711 56.9572Z" fill="#FB471F" />
  <path d="M-584.48 54.7478L-669.222 108.13L-680.275 247.887L-621.061 285.188L-492.633 204.285L-411.576 251.866L-321.308 195.001L-196.301 273.749L-63.1359 210.254L30.027 247.887L52.6599 220.201L127.401 262.973L178.983 204.285L262.408 225.837L335.044 204.285V68.8394L288.725 39.6614L251.092 17.2805L30.027 86.5784L-23.1337 39.6614L-292.359 79.4497L-397.365 13.3016L-499.739 108.13L-584.48 54.7478Z" fill="#FB471F" />
  <path d="M-588.711 53.1516L-673.452 106.534L-676.573 248.107L-625.292 283.592L-496.864 202.689L-415.807 250.269L-325.538 193.405L-200.532 272.153L-67.3664 208.657L25.7966 246.291L48.4294 218.605L123.17 261.377L174.752 202.689L258.178 224.241L330.813 202.689V67.2433L284.495 38.0652L246.861 15.6843L25.7966 84.9822L-27.3642 38.0652L-296.589 77.8535L-401.595 11.7054L-503.969 106.534L-588.711 53.1516Z" fill="#264F36" />
</svg>