<svg width="20rem" height="15rem" viewBox="0 0 20 12" fill="none" xmlns="http://www.w3.org/2000/svg">
  <path d="M10.8212 11.5612C4.49185 11.5612 0.881855 7.52209 0.731709 0.790527H3.90146C4.0062 5.72311 6.34366 7.79087 8.19454 8.24316V0.800723H11.1799V5.05487C13.0085 4.87228 14.9289 2.93336 15.5767 0.800723H18.562C18.3175 1.92006 17.833 2.97304 17.1421 3.88706C16.4322 4.82512 15.5373 5.60745 14.5127 6.1856C15.6553 6.70922 16.6763 7.46484 17.511 8.40443C18.3224 9.31779 18.9224 10.3988 19.2683 11.5705H15.9706C15.6574 10.5457 15.04 9.64029 14.2004 8.97443C13.3307 8.28283 12.284 7.84987 11.1799 7.72506V11.5705L10.8212 11.5594V11.5612Z" fill="white" />
</svg>
